<svg width="285" height="158" viewBox="0 0 285 158" fill="none" xmlns="http://www.w3.org/2000/svg">
<g clip-path="url(#clip0_1561_15956)">
<path d="M199.728 83.0459C199.519 83.721 199.368 84.4129 199.277 85.1139C199.23 85.6762 200.056 85.7128 200.216 85.2263C200.396 84.5849 200.534 83.9321 200.628 83.2722C200.65 83.1557 200.626 83.0353 200.562 82.9356C200.498 82.8359 200.399 82.7644 200.284 82.7356C200.169 82.7067 200.048 82.7228 199.945 82.7804C199.841 82.8381 199.764 82.933 199.728 83.0459Z" fill="#263238"/>
<path d="M199.725 81.9936C200.514 81.7226 200.626 82.2565 200.7 82.4001C200.741 82.469 200.798 82.5261 200.867 82.5658C200.937 82.6054 201.015 82.6263 201.095 82.6263C201.174 82.6263 201.253 82.6054 201.322 82.5658C201.391 82.5261 201.448 82.469 201.489 82.4001C201.584 82.1648 201.587 81.9019 201.496 81.6646C201.406 81.4274 201.229 81.2335 201.001 81.1223C200.758 81.0176 200.496 80.9636 200.232 80.9636C199.967 80.9636 199.706 81.0176 199.463 81.1223C199.351 81.1601 199.259 81.24 199.205 81.345C199.151 81.45 199.14 81.572 199.174 81.6851C199.208 81.7982 199.284 81.8936 199.387 81.9512C199.49 82.0087 199.611 82.0239 199.725 81.9936Z" fill="#263238"/>
<path d="M167.053 101.015C184.12 117.855 199.764 107.067 201.227 106.691C202.985 108.12 211.168 108.834 210.868 103.304C210.868 103.304 214.696 105.407 215.857 107.098C221.158 114.833 221.401 134.088 221.297 136.681C221.214 138.714 223.163 146.795 223.435 149.236C223.653 151.192 223.8 153.588 222.346 155.025C220.741 156.409 218.777 157.309 216.683 157.619C213.116 158.44 209.43 158.606 205.803 158.108C202.089 157.516 197.284 155.816 195.15 152.508C194.199 150.987 193.637 149.256 193.513 147.466C193.389 145.676 193.706 143.883 194.437 142.245C195.443 139.808 196.16 137.261 196.575 134.657C197.003 131.749 196.363 128.784 194.775 126.312C194.775 126.312 202.25 123.709 201.302 122.741C200.857 122.285 198.675 124.241 195.081 124.47C192.755 124.618 169.534 117.817 163.419 105.111C163.339 101.879 167.053 101.015 167.053 101.015Z" fill="#F4F4F4"/>
<path d="M161.726 102.669C159.977 102.826 158.227 102.394 156.752 101.44C155.277 100.487 154.162 99.0668 153.585 97.4058C153.549 97.2918 153.474 97.1944 153.372 97.1313C153.271 97.0681 153.151 97.0434 153.033 97.0616C152.915 97.0798 152.808 97.1397 152.73 97.2304C152.652 97.3211 152.61 97.4367 152.61 97.5562C152.553 101.955 158.245 103.994 161.726 103.646C162.327 103.585 162.364 102.641 161.726 102.669Z" fill="#263238"/>
<path d="M158.687 98.9127C157.586 98.6839 156.578 98.1331 155.791 97.3301C155.003 96.5271 154.47 95.5079 154.261 94.4015C154.188 93.7999 153.179 93.5736 153.172 94.2511C153.153 98.349 157.073 99.6268 158.461 99.8897C159.029 99.9615 159.29 99.0482 158.687 98.9127Z" fill="#263238"/>
<path d="M153.81 91.5423C155.75 94.1902 164.899 101.413 167.052 91.8418C167.169 91.3173 166.151 91.0152 166.001 91.5789C163.901 99.4738 156.105 92.7456 154.559 90.9406C154.232 90.5558 153.476 91.087 153.81 91.5423Z" fill="#263238"/>
<path d="M167.052 100.946C167.262 100.572 167.391 100.158 167.43 99.7301C167.469 99.3026 167.416 98.8717 167.276 98.466C167.052 98.0148 166.295 98.279 166.377 98.691C166.496 99.2729 166.43 99.8775 166.189 100.42C165.95 101.01 166.787 101.503 167.052 100.946Z" fill="#263238"/>
<path d="M198.263 106.728C202.092 104.552 194.551 104.733 188.06 103.42C180.699 101.74 174.032 97.8286 168.967 92.2186C169.557 93.5163 169.862 94.9257 169.862 96.3517C169.862 97.7777 169.557 99.1871 168.967 100.485C170.958 102.801 173.362 104.725 176.056 106.16C181.646 108.908 192.04 110.267 198.263 106.728Z" fill="#F4F4F4"/>
<path d="M152.797 85.1515C154.11 89.9622 161.348 88.8334 162.25 87.4064C162.299 87.3117 162.324 87.2063 162.322 87.0995C162.32 86.9928 162.292 86.8881 162.24 86.795C162.188 86.7018 162.114 86.6231 162.024 86.5659C161.934 86.5087 161.831 86.4749 161.725 86.4673C160.788 86.386 156.066 88.3049 154.072 84.9632C153.735 84.3994 152.721 84.3615 152.797 85.1515Z" fill="#263238"/>
<path d="M152.609 81.7293C153.72 83.4449 159.847 87.3476 162.1 82.6698C162.443 81.9583 161.125 81.7673 160.748 82.2944C159.136 84.5506 154.814 82.9381 153.357 81.1656C153.021 80.7537 152.315 81.2754 152.609 81.7293Z" fill="#263238"/>
<path d="M151.52 78.6103C152.876 79.6767 154.491 80.3609 156.199 80.5922C157.907 80.8235 159.646 80.5936 161.235 79.9261C161.355 79.8518 161.447 79.7405 161.498 79.6089C161.549 79.4774 161.556 79.3328 161.518 79.197C161.48 79.0611 161.399 78.9414 161.287 78.8559C161.175 78.7703 161.038 78.7236 160.897 78.7228C157.922 79.5348 154.748 79.1578 152.045 77.6712C151.596 77.4056 151.105 78.2742 151.52 78.6103Z" fill="#263238"/>
<path d="M176.243 137.741C175.793 134.019 171.165 118.895 169.303 115.525C169.231 115.405 169.119 115.316 168.986 115.273C168.854 115.23 168.711 115.237 168.583 115.292C168.455 115.346 168.351 115.446 168.29 115.571C168.23 115.697 168.217 115.84 168.254 115.975C169.101 119.692 173.843 134.319 175.23 137.779C174.705 138.863 172.796 138.68 172.342 138.379C172.379 138.266 165.12 117.781 161.088 107.818C160.905 107.366 160.225 107.555 160.375 108.007C163.772 118.162 171.291 138.567 171.329 138.643C171.855 139.508 174.217 140.748 176.431 138.266C176.581 138.116 176.431 137.891 176.243 137.741Z" fill="#263238"/>
<path d="M181.532 32.7128C180.685 25.5423 177.761 18.7772 173.121 13.2527C168.481 7.72818 162.329 3.68603 155.423 1.6252C140.791 -2.84667 124.109 2.08187 114.718 14.2928C101.257 31.8049 104.441 60.5143 125.56 70.8294C133.399 74.7915 142.282 76.1851 150.955 74.8134C151.081 75.3294 151.283 75.8236 151.555 76.2797C151.826 76.7634 152.679 76.4314 152.456 75.9043C152.153 75.1901 152.128 74.396 151.855 73.686C151.826 73.599 151.771 73.5225 151.699 73.4659C151.627 73.4093 151.54 73.3749 151.448 73.367C151.357 73.3591 151.265 73.378 151.184 73.4214C151.103 73.4648 151.037 73.5308 150.993 73.6114C143.446 74.6681 135.754 73.6411 128.747 70.641C122.327 68.0941 116.904 63.5294 113.293 57.632C106.614 46.5444 106.88 31.8848 112.805 20.5304C116.306 14.0644 121.698 8.82676 128.256 5.52075C134.814 2.21473 142.225 0.998649 149.493 2.0358C162.998 3.98174 174.958 13.6532 178.753 26.9211C181.215 35.5067 180.537 44.6913 176.839 52.82C173.053 60.7555 165.564 68.4281 157.22 71.4649C157.112 71.5034 157.015 71.566 156.934 71.6479C156.854 71.7299 156.794 71.829 156.758 71.9378C156.722 72.0466 156.711 72.1622 156.726 72.2759C156.741 72.3896 156.782 72.4983 156.845 72.5938C157.115 73.8823 157.543 75.1322 158.121 76.3149C158.182 76.4093 158.275 76.4789 158.383 76.5111C158.491 76.5434 158.607 76.5364 158.711 76.4913C158.814 76.4462 158.898 76.3659 158.948 76.2647C158.998 76.1635 159.01 76.0478 158.983 75.9382C158.832 75.2254 158.233 73.045 158.157 72.6683C165.73 70.0001 172.121 63.7652 176.389 57.0682C180.801 49.7657 182.614 41.1804 181.532 32.7128Z" fill="#263238"/>
<path d="M169.641 23.0888C166.36 17.6635 161.559 13.324 155.837 10.6096C150.175 7.82908 143.707 7.17519 137.605 8.76663C117.05 13.496 107.106 36.915 117.235 53.6872C122.413 62.261 136.593 70.7061 151.597 67.672C157.864 66.405 162.853 62.7936 167.014 57.8976C171.155 53.1877 173.585 47.2136 173.911 40.9451C174.178 34.7104 172.7 28.525 169.641 23.0888ZM168.666 52.8606C165.306 58.3837 160.253 62.6696 154.261 65.0783C144.11 68.9214 129.668 66.5039 120.574 55.4922C116.893 50.829 114.907 45.048 114.944 39.1022C114.986 33.2891 116.724 27.6154 119.944 22.7798C123.164 17.9442 127.725 14.1579 133.065 11.8874C138.28 9.74637 144.622 8.64195 150.133 10.1258C155.869 11.7765 161.029 15.006 165.026 19.4476C172.834 28.1976 174.895 42.826 168.666 52.8606Z" fill="#263238"/>
<path d="M271 139.208C271 132.629 267.811 22.9027 267.811 22.9027C267.832 22.8232 267.836 22.74 267.823 22.6588C267.809 22.5776 267.778 22.5004 267.731 22.4324C267.685 22.3644 267.624 22.3073 267.554 22.265C267.483 22.2227 267.405 22.1961 267.323 22.1872C264.844 21.717 212.704 22.3011 201.901 23.6535C201.786 23.5821 201.654 23.5426 201.519 23.5389C201.385 23.5353 201.251 23.5677 201.133 23.6328C201.014 23.6978 200.915 23.7933 200.846 23.9093C200.777 24.0254 200.739 24.1578 200.738 24.2931C200.663 31.135 200.244 61.8188 200.964 64.8909C200.992 64.9887 201.051 65.0746 201.132 65.1358C201.213 65.197 201.312 65.2301 201.413 65.2301C201.515 65.2301 201.613 65.197 201.695 65.1358C201.776 65.0746 201.835 64.9887 201.863 64.8909C202.634 61.8785 202.539 31.5551 202.313 24.8947C212.967 24.6684 264.06 23.9177 266.724 23.6535C266.348 31.7354 269.012 135.674 269.499 138.944C262.859 138.907 235.034 137.618 227.972 138.568C227.073 138.689 227.335 140.115 228.198 140.109C232.061 140.092 263.609 140.749 270.399 140.073C270.549 139.959 271 139.432 271 139.208Z" fill="#F4F4F4"/>
<path d="M193.684 14.7439C193.677 14.5269 193.588 14.3207 193.435 14.1672C193.282 14.0137 193.076 13.9243 192.86 13.9172C188.356 13.9728 183.856 14.2181 179.355 14.2181C178.679 14.2181 178.714 15.1734 179.355 15.2696C183.565 15.7424 187.808 15.843 192.035 15.5705C191.884 26.0211 191.452 73.2373 192.185 79.0236C192.294 79.8881 193.569 79.9261 193.572 79.0236C193.591 73.1966 193.647 25.4953 193.684 14.7439Z" fill="#F4F4F4"/>
<path d="M185.583 177.849C179.39 177.538 103.954 177.211 98.1772 177.436C98.2908 172.136 94.764 26.9237 94.3515 14.706C98.933 14.9082 103.523 14.7574 108.082 14.2547C108.605 14.1721 108.494 13.2452 107.969 13.3156C105.57 13.6368 96.1515 12.9768 94.127 13.3901C94.0512 13.3313 93.9605 13.295 93.8651 13.2853C93.7697 13.2756 93.6735 13.2929 93.5874 13.3353C93.5014 13.3776 93.4289 13.4433 93.3782 13.5249C93.3275 13.6064 93.3007 13.7006 93.3008 13.7967C93.3008 13.8346 96.3489 171.64 96.8276 177.765C96.8309 177.865 96.8562 177.963 96.9016 178.052C96.947 178.14 97.0114 178.218 97.0902 178.279C97.169 178.34 97.2602 178.383 97.3574 178.404C97.4547 178.426 97.5554 178.426 97.6525 178.404C97.6904 178.442 182.057 179.532 185.62 179.268C185.792 179.241 185.948 179.153 186.059 179.019C186.17 178.886 186.229 178.716 186.224 178.542C186.22 178.368 186.152 178.202 186.034 178.074C185.916 177.947 185.755 177.867 185.583 177.849Z" fill="#F4F4F4"/>
<path d="M85.8689 139.508C85.493 108.34 84.1434 28.6891 83.2427 20.1221C83.2672 20.0406 83.2748 19.9549 83.2652 19.8704C83.2556 19.7858 83.2289 19.7041 83.1868 19.6302C83.1447 19.5563 83.088 19.4917 83.0202 19.4405C82.9524 19.3892 82.8749 19.3523 82.7924 19.332C80.3244 18.8252 26.6579 19.0786 15.4243 20.2698C15.3011 20.2777 15.1857 20.3328 15.1019 20.4236C15.0181 20.5144 14.9723 20.6339 14.9739 20.7576C14.8938 20.7164 14.8047 20.6959 14.7146 20.6979C14.6246 20.7 14.5365 20.7245 14.4583 20.7694C14.3801 20.8142 14.3144 20.8779 14.267 20.9546C14.2196 21.0314 14.192 21.1188 14.1869 21.2089C13.5756 30.0347 14.552 133.857 15.8367 141.123C15.8554 141.276 15.932 141.416 16.0508 141.514C16.1696 141.612 16.3215 141.661 16.475 141.65C16.5136 141.773 16.5877 141.881 16.6879 141.961C16.788 142.042 16.9097 142.09 17.0376 142.101C20.0383 142.288 80.4745 140.802 85.0481 141.048C85.1602 141.053 85.2716 141.028 85.3705 140.975C85.4695 140.922 85.5522 140.843 85.61 140.747C85.6678 140.65 85.6985 140.54 85.6989 140.428C85.6992 140.315 85.6692 140.205 85.612 140.108C85.7039 140.039 85.7762 139.948 85.8213 139.842C85.8664 139.737 85.8829 139.621 85.8689 139.508ZM17.2634 140.898C17.2255 134.357 15.2349 21.2847 15.2349 21.2847C18.256 21.2847 79.7294 21.2454 82.0081 20.8782C82.0081 28.3205 84.0365 131.049 84.2204 139.551C84.1853 139.582 22.9269 139.957 17.2634 140.898Z" fill="#F4F4F4"/>
<path d="M110.183 107.217C117.877 107.104 154.075 107.339 155.799 106.916C155.925 106.879 156.036 106.803 156.114 106.697C156.193 106.592 156.235 106.465 156.235 106.333C156.235 106.202 156.193 106.074 156.114 105.969C156.036 105.864 155.925 105.788 155.799 105.751C154.193 105.24 117.871 105.787 110.183 106.202C109.545 106.23 109.546 107.226 110.183 107.217Z" fill="#D42151"/>
<path d="M147.659 94.7365C146.049 94.2812 116.337 94.7745 110.11 95.1133C109.96 89.7755 110.483 66.1017 109.922 63.3115C109.885 63.1855 109.809 63.0748 109.704 62.9961C109.599 62.9173 109.471 62.8748 109.34 62.8748C109.209 62.8748 109.082 62.9173 108.977 62.9961C108.872 63.0748 108.796 63.1855 108.759 63.3115C108.042 66.0217 108.797 89.7755 109.097 95.1133C109.097 95.2257 109.133 96.1662 109.584 96.1282C115.999 95.9399 146.01 96.2407 147.659 95.9019C147.779 95.8588 147.883 95.7796 147.956 95.6753C148.029 95.5711 148.068 95.4467 148.068 95.3192C148.068 95.1918 148.029 95.0674 147.956 94.9631C147.883 94.8588 147.779 94.7797 147.659 94.7365Z" fill="#F4F4F4"/>
<path d="M179.881 92.4435C179.824 87.9716 180.25 68.1693 179.731 65.6421C179.694 65.516 179.618 65.4054 179.513 65.3266C179.408 65.2479 179.281 65.2053 179.15 65.2053C179.019 65.2053 178.891 65.2479 178.786 65.3266C178.681 65.4054 178.605 65.516 178.568 65.6421C177.892 68.1612 178.606 87.9703 178.868 92.4435C178.908 93.0858 179.889 93.1211 179.881 92.4435Z" fill="#F4F4F4"/>
<path d="M110.184 119.134C118.211 119.628 152.76 119.897 156.4 119.698C157.187 119.654 157.489 118.333 156.587 118.193C153.179 117.665 118.325 117.742 110.184 118.155C110.06 118.165 109.945 118.22 109.861 118.311C109.777 118.402 109.73 118.521 109.73 118.645C109.73 118.768 109.777 118.888 109.861 118.978C109.945 119.069 110.06 119.125 110.184 119.134Z" fill="#D42151"/>
<path d="M110.409 134.507C118.628 134.357 157.637 134.353 159.701 134.132C160.413 134.055 160.674 133.01 159.889 132.816C158.121 132.38 118.778 133.005 110.409 133.568C110.289 133.575 110.176 133.627 110.094 133.714C110.011 133.802 109.965 133.917 109.965 134.038C109.965 134.158 110.011 134.274 110.094 134.361C110.176 134.449 110.289 134.501 110.409 134.507Z" fill="#D42151"/>
<path d="M110.409 149.243C122.715 149.205 180.933 150.107 183.746 149.355C183.872 149.318 183.982 149.241 184.061 149.136C184.139 149.031 184.182 148.904 184.182 148.772C184.182 148.641 184.139 148.513 184.061 148.408C183.982 148.303 183.872 148.226 183.746 148.19C180.889 147.621 122.723 148.003 110.409 148.303C110.289 148.31 110.176 148.362 110.094 148.45C110.011 148.537 109.965 148.653 109.965 148.773C109.965 148.893 110.011 149.009 110.094 149.096C110.176 149.184 110.289 149.236 110.409 149.243Z" fill="#D42151"/>
<path d="M59.8391 39.704C58.8208 39.5766 58.4219 41.1065 54.7382 40.9819C49.7455 40.8138 43.4302 37.323 40.2576 42.1852C39.5274 43.3243 39.1974 44.6751 39.3199 46.0234C39.4424 47.3717 40.0103 48.6405 40.9338 49.6288C40.8547 49.6534 40.786 49.7036 40.7385 49.7715C40.691 49.8395 40.6674 49.9213 40.6715 50.0042C40.6349 53.0125 40.6633 56.2499 42.4295 58.8002C43.1567 59.8311 44.1446 60.6495 45.2917 61.1715C46.4388 61.6935 47.7039 61.9003 48.9571 61.7706C55.1114 61.2828 56.6463 55.8312 56.4597 49.29C60.5802 46.5432 61.6823 39.9357 59.8391 39.704ZM54.4759 56.2445C54.0266 57.4046 53.2607 58.4147 52.2656 59.1592C51.2706 59.9038 50.0865 60.3527 48.8489 60.4548C42.6986 61.1554 41.6816 54.7783 41.5329 50.156C43.7466 51.7347 50.0105 52.7497 55.1912 50.0435C55.0006 52.1087 55.2656 54.1779 54.4759 56.2445Z" fill="#263238"/>
<path d="M243.989 39.704C242.971 39.5766 242.572 41.1065 238.889 40.9819C233.896 40.8138 227.581 37.323 224.408 42.1852C223.678 43.3243 223.348 44.6751 223.47 46.0234C223.593 47.3717 224.161 48.6405 225.084 49.6288C225.022 49.6029 224.955 49.5927 224.889 49.599C224.822 49.6054 224.758 49.6282 224.702 49.6654C224.647 49.7025 224.601 49.7529 224.57 49.812C224.538 49.8711 224.522 49.9372 224.522 50.0042C224.485 53.0125 224.514 56.2499 226.28 58.8002C227.007 59.8311 227.995 60.6495 229.142 61.1715C230.289 61.6935 231.554 61.9003 232.807 61.7706C238.963 61.2828 241.327 54.9287 240.348 49.4784C241.001 49.0599 241.605 48.568 242.148 48.0122C244.683 45.386 245.764 39.9262 243.989 39.704ZM238.326 56.2445C237.878 57.4053 237.112 58.4161 236.117 59.1608C235.122 59.9055 233.937 60.354 232.699 60.4548C226.512 61.1568 225.44 54.7064 225.347 50.0421C225.351 49.9771 225.338 49.912 225.309 49.8538C227.067 52.2225 235.624 53.1995 239.001 50.1546C239.079 52.2069 238.851 54.2593 238.326 56.2445Z" fill="#263238"/>
<path d="M240.689 63.2357C236.452 61.6592 231.795 61.632 227.54 63.1588C223.285 64.6857 219.704 67.6686 217.429 71.5819C217.126 72.1063 217.917 72.5589 218.255 72.0697C219.263 70.59 220.476 69.2614 221.857 68.1236C229.396 72.0331 233.747 85.904 233.785 86.3173C230.184 86.4298 226.579 86.5233 222.982 86.7686C222.891 86.7742 222.806 86.8142 222.744 86.8806C222.681 86.9469 222.647 87.0346 222.647 87.1257C222.647 87.2167 222.681 87.3044 222.744 87.3707C222.806 87.4371 222.891 87.4771 222.982 87.4827C232.74 87.6508 242.56 87.3323 252.317 87.1819C252.499 87.185 252.675 87.1218 252.813 87.004C252.951 86.8862 253.041 86.7221 253.067 86.5423C253.158 86.4707 253.233 86.3795 253.285 86.2755C253.336 86.1714 253.365 86.057 253.367 85.9406C253.931 76.2827 246.855 65.6166 240.689 63.2357ZM243.165 66.8078C240.919 69.1425 238.932 71.7136 237.238 74.4764C236.327 71.9455 235.236 69.4833 233.975 67.1086C234.753 65.9538 235.618 64.8602 236.563 63.8374C241.249 64.5515 242.34 66.0178 243.165 66.8078ZM222.759 67.446C224.842 65.8908 227.214 64.7664 229.735 64.1382C230.656 65.293 231.728 66.3173 232.924 67.1832C232.361 70.1536 231.01 72.6334 230.56 75.5659C230.111 74.9642 226.659 68.5735 222.759 67.446ZM243.84 67.446C250.93 75.1146 251.53 81.5799 251.755 85.6777C246.128 85.9406 240.501 86.091 234.874 86.2794C235.324 82.7453 238.551 72.4085 243.84 67.446Z" fill="#F4F4F4"/>
<path d="M261.697 94.7362C262.072 90.0381 260.74 45.1174 260.759 35.0801C260.759 34.9297 260.458 34.2494 260.158 34.2155C251.841 33.2819 213.943 34.9297 209.629 35.2305C209.329 35.2305 208.953 35.9081 208.953 36.0571C208.897 41.4342 208.846 65.2219 209.215 67.6719C209.252 67.7868 209.324 67.887 209.421 67.9581C209.519 68.0292 209.636 68.0675 209.756 68.0675C209.877 68.0675 209.994 68.0292 210.091 67.9581C210.188 67.887 210.26 67.7868 210.297 67.6719C210.703 65.1826 210.409 41.6537 209.997 36.4339C213.823 36.9217 250.999 35.5693 259.251 35.3064C259.326 45.2678 260.264 89.8497 260.64 94.6603C248.373 95.7444 235.995 95.5439 223.722 95.6374C223.608 95.6462 223.502 95.6976 223.425 95.7812C223.348 95.8649 223.305 95.9747 223.305 96.0886C223.305 96.2026 223.348 96.3124 223.425 96.3961C223.502 96.4797 223.608 96.5311 223.722 96.5399C236.213 96.5019 248.78 96.8787 261.271 95.9003C261.395 95.8792 261.511 95.8258 261.608 95.7453C261.704 95.6648 261.778 95.5602 261.821 95.4421C261.864 95.3239 261.876 95.1964 261.854 95.0724C261.832 94.9485 261.778 94.8325 261.697 94.7362Z" fill="#F4F4F4"/>
<path d="M226.623 107.631C232.584 107.863 259.078 108.258 261.772 107.744C262.524 107.608 262.297 106.508 261.584 106.466C258.658 106.295 232.374 106.134 226.585 106.616C226.458 106.631 226.342 106.694 226.259 106.791C226.176 106.888 226.132 107.013 226.137 107.141C226.142 107.269 226.194 107.39 226.284 107.481C226.375 107.572 226.495 107.625 226.623 107.631Z" fill="#263238"/>
<path d="M226.21 116.394C232.44 116.915 260.423 117.852 263.009 116.844C263.497 116.655 263.649 115.826 263.009 115.679C261.657 115.369 232.436 115.604 226.21 115.642C225.722 115.6 225.722 116.348 226.21 116.394Z" fill="#263238"/>
<path d="M228.724 126.839C234.577 126.896 258.056 127.59 263.874 127.065C264.774 126.984 264.812 125.584 263.874 125.599C258.02 125.692 234.564 125.234 228.724 125.824C228.123 125.879 228.087 126.828 228.724 126.839Z" fill="#263238"/>
<path d="M23.8655 107.63C32.8679 108.316 75.6834 107.886 77.2088 107.223C77.3091 107.164 77.3896 107.076 77.4403 106.971C77.4909 106.865 77.5093 106.747 77.4933 106.631C77.4772 106.516 77.4275 106.407 77.3501 106.32C77.2728 106.232 77.1714 106.169 77.0587 106.139C75.4089 105.76 32.7935 106.928 23.8655 106.89C23.7797 106.907 23.7023 106.953 23.6466 107.02C23.591 107.088 23.5605 107.173 23.5605 107.26C23.5605 107.348 23.591 107.432 23.6466 107.5C23.7023 107.568 23.7797 107.613 23.8655 107.63Z" fill="#263238"/>
<path d="M24.2771 118.908C33.055 118.908 73.0848 119.881 76.9078 119.434C77.8084 119.329 77.8449 117.961 76.9078 117.969C68.1286 118.043 33.055 117.405 24.2771 117.931C23.6767 118.005 23.6388 118.908 24.2771 118.908Z" fill="#263238"/>
<path d="M24.2771 129.432C33.055 129.432 73.0483 129.542 76.9078 129.095C77.8084 128.989 77.8449 127.621 76.9078 127.629C68.1286 127.703 33.055 127.93 24.2771 128.455C23.6767 128.531 23.6388 129.432 24.2771 129.432Z" fill="#263238"/>
<path d="M76.5691 32.3361C76.5693 32.2588 76.5536 32.1822 76.523 32.1113C76.4924 32.0403 76.4475 31.9763 76.3912 31.9235C76.3349 31.8706 76.2683 31.8299 76.1956 31.8039C76.1229 31.7779 76.0457 31.7672 75.9687 31.7724C75.8943 31.7724 30.8015 32.599 21.8383 33.0882C21.7687 33.0912 21.7004 33.1084 21.6375 33.1387C21.5747 33.1691 21.5188 33.2119 21.4731 33.2647C21.4274 33.3175 21.3929 33.379 21.3718 33.4456C21.3506 33.5122 21.3433 33.5824 21.3502 33.6519C21.3123 33.7278 21.7558 85.9213 22.8512 96.2405C22.8569 96.3621 22.9052 96.4778 22.9875 96.5672C23.0699 96.6567 23.1811 96.7142 23.3015 96.7297C23.3604 96.7995 23.4359 96.8532 23.521 96.8859C23.6061 96.9186 23.6981 96.9292 23.7884 96.9167C32.6041 96.5414 76.0065 96.5034 76.0823 96.4655C76.2362 96.4798 76.3896 96.4326 76.5089 96.3341C76.6282 96.2356 76.7038 96.0938 76.7192 95.9397C77.0451 93.4517 76.6638 39.6686 76.5691 32.3361ZM23.902 95.5643C23.7884 85.4145 23.4882 44.4034 22.8201 34.1032C31.4857 34.1411 66.5972 33.614 75.4129 33.2007C74.9261 51.057 75.0383 92.6698 75.563 95.338C67.1908 95.0751 32.7217 95.1876 23.902 95.5643Z" fill="#F4F4F4"/>
<path d="M66.3276 83.8706C65.285 79.312 66.6197 74.7439 61.5269 68.5334C59.9945 66.5945 58.0362 65.0362 55.8043 63.9799C53.5725 62.9236 51.1275 62.3978 48.6597 62.4435C37.2556 62.8826 29.1147 74.5474 30.1654 85.4804C30.1654 85.5563 30.3169 86.1146 30.6158 86.158C35.9209 86.9236 57.9325 87.0767 63.1768 86.0821C63.9286 85.9398 63.7028 84.7961 62.9888 84.7663C60.3274 84.6592 52.035 85.2934 50.5732 85.33C51.6226 82.0601 52.3731 76.0082 58.1881 67.5496C65.3905 74.3916 63.8367 81.8569 64.8644 84.2405C65.258 85.1593 66.5521 84.8503 66.3276 83.8706ZM40.2185 66.807C42.0101 65.6272 44.0091 64.7994 46.1092 64.3678C46.5627 65.6987 47.2767 66.9256 48.2094 67.9765C47.759 69.6676 47.3466 71.9984 46.8963 73.5392C45.4319 70.6475 43.0953 68.2919 40.2185 66.807ZM31.0985 85.1132C31.6611 79.8499 33.6111 72.2573 39.3138 67.4453C48.8044 75.6776 49.3669 85.3327 49.3669 85.3761C48.5434 85.414 36.355 84.9628 31.0985 85.1132ZM52.3731 74.2493C51.1329 72.1678 50.1743 69.9303 49.5224 67.5957C50.0063 66.5043 50.3468 65.3546 50.5353 64.1754C53.0547 64.4911 55.4476 65.4629 57.4754 66.994C55.7864 69.4373 53.6105 71.5052 52.3731 74.2493Z" fill="#F4F4F4"/>
<path d="M136.397 52.3829C136.136 52.3837 135.879 52.3237 135.643 52.2072C135.408 52.0906 135.2 51.9206 135.035 51.7094C134.871 51.4982 134.753 51.2512 134.692 50.9865C134.63 50.7217 134.626 50.4459 134.679 50.1793L136.081 41.6072L130.127 35.5583C129.893 35.3201 129.728 35.0183 129.65 34.6872C129.572 34.3561 129.584 34.0088 129.685 33.6846C129.786 33.3603 129.972 33.0719 130.221 32.852C130.47 32.6322 130.773 32.4895 131.096 32.4402L139.306 31.1952L142.984 23.3944C143.126 23.0816 143.349 22.8173 143.629 22.6322C143.909 22.4471 144.233 22.3489 144.565 22.3489C144.896 22.3489 145.22 22.4471 145.5 22.6322C145.78 22.8173 146.003 23.0816 146.145 23.3944L149.844 31.1952L158.075 32.4512C158.398 32.5005 158.701 32.6432 158.95 32.8631C159.199 33.0829 159.385 33.3713 159.486 33.6956C159.587 34.0199 159.599 34.3671 159.521 34.6982C159.443 35.0294 159.278 35.3311 159.045 35.5694L153.09 41.6403L154.471 50.1793C154.526 50.5137 154.491 50.8576 154.369 51.1724C154.248 51.4872 154.045 51.7605 153.784 51.9617C153.523 52.163 153.213 52.2842 152.889 52.3119C152.566 52.3396 152.241 52.2726 151.952 52.1184L144.575 48.0748L137.198 52.1184C136.956 52.2737 136.681 52.3645 136.397 52.3829ZM132.129 34.5116L137.693 40.1859C137.898 40.3921 138.051 40.6476 138.139 40.9299C138.227 41.2123 138.248 41.5129 138.199 41.8056L136.882 49.8046L143.764 46.0255C144.014 45.8884 144.292 45.8168 144.575 45.8168C144.858 45.8168 145.136 45.8884 145.387 46.0255L152.268 49.8046L150.951 41.7945C150.902 41.5019 150.923 41.2013 151.011 40.9189C151.099 40.6366 151.252 40.3811 151.457 40.1749L157.021 34.5006L149.328 33.3327C149.047 33.2899 148.78 33.1762 148.551 33.0015C148.321 32.8268 148.136 32.5964 148.011 32.33L144.575 25.0581L141.139 32.3411C141.014 32.6074 140.829 32.8378 140.599 33.0125C140.37 33.1872 140.103 33.3009 139.822 33.3437L132.129 34.5116Z" fill="#D42151"/>
<path d="M222.758 102.631C213.229 95.3666 222.911 89.6142 219.869 81.7301C219.321 80.1455 218.465 78.6852 217.351 77.4337C216.237 76.1822 214.887 75.1641 213.378 74.4383C211.5 73.6537 209.665 73.197 208.239 71.6183C207.312 70.3318 206.185 69.2026 204.9 68.2739C203.993 67.7492 202.957 67.4887 201.91 67.5217C200.863 67.5548 199.846 67.88 198.973 68.4609C196.48 70.3757 196.068 75.3476 199.087 78.5727C199.011 78.6107 196.004 83.6802 194.397 86.0164C192.513 88.755 195.298 89.5871 195.372 89.625C194.539 95.6038 197.637 98.8493 201.449 99.0227C201.712 100.826 201.735 102.671 201.975 104.473C202.046 105 202.922 105.264 203.025 104.623C203.236 102.743 203.07 100.839 202.538 99.0227C203.744 98.9388 204.889 98.463 205.801 97.6676C206.251 100.255 207.658 102.577 209.74 104.172C212.811 106.51 220.468 107.405 223.128 103.984C223.357 103.608 222.87 102.707 222.758 102.631ZM207.305 88.2713C207.162 88.1992 207 88.1734 206.841 88.1975C206.683 88.2216 206.536 88.2944 206.421 88.4058C206.305 88.5172 206.227 88.6618 206.198 88.8195C206.168 88.9772 206.187 89.1403 206.254 89.2862C205.601 91.44 205.334 93.6927 205.466 95.9398C204.709 96.8544 203.652 97.4698 202.484 97.6763C201.316 97.8828 200.113 97.667 199.09 97.0673C198.436 96.7053 197.874 96.1991 197.445 95.587C197.016 94.9749 196.732 94.2731 196.613 93.5345C197.284 93.6856 197.986 93.6217 198.618 93.3518C199.251 93.0819 199.783 92.6196 200.139 92.0303C200.188 91.9348 200.203 91.825 200.18 91.7199C200.157 91.6148 200.099 91.5208 200.014 91.4542C199.93 91.3876 199.825 91.3524 199.718 91.3546C199.611 91.3569 199.508 91.3965 199.426 91.4666C199.061 91.8898 198.593 92.2117 198.067 92.4015C197.542 92.5913 196.976 92.6427 196.425 92.5507C196.275 91.4233 196.313 90.2213 196.238 89.0559C196.238 88.8296 195.676 88.7537 195.038 87.9718C194.551 87.3701 199.54 79.1012 199.54 79.1012C200.338 79.693 201.252 80.1093 202.221 80.323C203.191 80.5367 204.195 80.5429 205.167 80.3412C206.097 81.2829 206.712 82.4917 206.925 83.7994C206.977 83.9774 207.096 84.1281 207.257 84.2194C207.418 84.3108 207.609 84.3356 207.788 84.2886C211.466 82.821 210.458 89.9516 207.305 88.2713Z" fill="#263238"/>
<path d="M232.55 227.131C232.475 224.274 225.345 186.774 222.309 156.197C222.265 155.747 221.52 155.858 221.521 156.31C221.559 168.189 230.337 223.71 230.975 226.454C230.074 229.349 226.242 228.296 223.509 227.319C221.521 220.665 210.905 189.54 209.78 186.308C209.854 186.007 213.058 173.96 215.143 168.377C215.452 167.553 213.97 166.945 213.718 167.775C209.005 183.35 196.913 223.185 194.174 228.033C194.137 228.033 188.622 230.514 186.71 226.793C187.835 220.74 195.988 167.048 197.25 155.108C197.317 154.467 196.353 154.506 196.275 155.108C194.713 167.218 185.456 220.661 185.321 226.643C185.318 226.824 185.385 226.999 185.509 227.131C184.608 227.507 170.916 230.739 170.916 234.123C170.915 234.302 170.974 234.477 171.082 234.62C171.191 234.762 171.344 234.865 171.516 234.912C178.897 235.936 186.36 236.238 193.798 235.814C194.099 235.776 196.909 229.875 195.151 228.903C199.164 220.031 207.906 192.891 209.143 188.494C209.968 191.049 219.496 220.22 221.484 226.347C221.41 226.347 207.246 229.235 208.318 232.211C208.737 233.374 209.932 233.566 211.057 233.715C213.196 234.008 226.067 234.372 230.338 234.315C230.845 234.227 231.315 233.991 231.69 233.638C232.967 231.658 233.187 227.694 232.55 227.131Z" fill="#263238"/>
</g>
<defs>
<clipPath id="clip0_1561_15956">
<rect width="285" height="158" fill="white"/>
</clipPath>
</defs>
</svg>
