<svg width="286" height="158" viewBox="0 0 286 158" fill="none" xmlns="http://www.w3.org/2000/svg">
<g clip-path="url(#clip0_1593_10981)">
<path d="M200.228 83.0459C200.019 83.721 199.868 84.4129 199.777 85.1139C199.73 85.6762 200.556 85.7128 200.716 85.2263C200.896 84.5849 201.034 83.9321 201.128 83.2722C201.15 83.1557 201.126 83.0353 201.062 82.9356C200.998 82.8359 200.899 82.7644 200.784 82.7356C200.669 82.7067 200.548 82.7228 200.445 82.7804C200.341 82.8381 200.264 82.933 200.228 83.0459Z" fill="#F4F4F4"/>
<path d="M200.225 81.9936C201.014 81.7226 201.126 82.2565 201.2 82.4001C201.241 82.469 201.298 82.5261 201.367 82.5658C201.437 82.6054 201.515 82.6263 201.595 82.6263C201.674 82.6263 201.753 82.6054 201.822 82.5658C201.891 82.5261 201.948 82.469 201.989 82.4001C202.084 82.1648 202.087 81.9019 201.996 81.6646C201.906 81.4274 201.729 81.2335 201.501 81.1223C201.258 81.0176 200.996 80.9636 200.732 80.9636C200.467 80.9636 200.206 81.0176 199.963 81.1223C199.851 81.1601 199.759 81.24 199.705 81.345C199.651 81.45 199.64 81.572 199.674 81.6851C199.708 81.7982 199.784 81.8936 199.887 81.9512C199.99 82.0087 200.111 82.0239 200.225 81.9936Z" fill="#F4F4F4"/>
<path d="M167.553 101.015C184.62 117.855 200.264 107.067 201.727 106.691C203.485 108.12 211.668 108.834 211.368 103.304C211.368 103.304 215.196 105.407 216.357 107.098C221.658 114.833 221.901 134.088 221.797 136.681C221.714 138.714 223.663 146.795 223.935 149.236C224.153 151.192 224.3 153.588 222.846 155.025C221.241 156.409 219.277 157.309 217.183 157.619C213.616 158.44 209.93 158.606 206.303 158.108C202.589 157.516 197.784 155.816 195.65 152.508C194.699 150.987 194.137 149.256 194.013 147.466C193.889 145.676 194.206 143.883 194.937 142.245C195.943 139.808 196.66 137.261 197.075 134.657C197.503 131.749 196.863 128.784 195.275 126.312C195.275 126.312 202.75 123.709 201.802 122.741C201.357 122.285 199.175 124.241 195.581 124.47C193.255 124.618 170.034 117.817 163.919 105.111C163.839 101.879 167.553 101.015 167.553 101.015Z" fill="#3F3F3F"/>
<path d="M162.226 102.669C160.477 102.826 158.727 102.394 157.252 101.44C155.777 100.487 154.662 99.0668 154.085 97.4058C154.049 97.2918 153.974 97.1944 153.872 97.1313C153.771 97.0681 153.651 97.0434 153.533 97.0616C153.415 97.0798 153.308 97.1397 153.23 97.2304C153.152 97.3211 153.11 97.4367 153.11 97.5562C153.053 101.955 158.745 103.994 162.226 103.646C162.827 103.585 162.864 102.641 162.226 102.669Z" fill="#F4F4F4"/>
<path d="M159.187 98.9127C158.086 98.6839 157.078 98.1331 156.291 97.3301C155.503 96.5271 154.97 95.5079 154.761 94.4015C154.688 93.7999 153.679 93.5736 153.672 94.2511C153.653 98.349 157.573 99.6268 158.961 99.8897C159.529 99.9615 159.79 99.0482 159.187 98.9127Z" fill="#F4F4F4"/>
<path d="M154.31 91.5423C156.25 94.1902 165.399 101.413 167.552 91.8418C167.669 91.3173 166.651 91.0152 166.501 91.5789C164.401 99.4738 156.605 92.7456 155.059 90.9406C154.732 90.5558 153.976 91.087 154.31 91.5423Z" fill="#F4F4F4"/>
<path d="M167.552 100.946C167.762 100.572 167.891 100.158 167.93 99.7301C167.969 99.3026 167.916 98.8717 167.776 98.466C167.552 98.0148 166.795 98.279 166.877 98.691C166.996 99.2729 166.93 99.8775 166.689 100.42C166.45 101.01 167.287 101.503 167.552 100.946Z" fill="#F4F4F4"/>
<path d="M198.763 106.728C202.592 104.552 195.051 104.733 188.56 103.42C181.199 101.74 174.532 97.8286 169.467 92.2186C170.057 93.5163 170.362 94.9257 170.362 96.3517C170.362 97.7777 170.057 99.1871 169.467 100.485C171.458 102.801 173.862 104.725 176.556 106.16C182.146 108.908 192.54 110.267 198.763 106.728Z" fill="#3F3F3F"/>
<path d="M153.297 85.1515C154.61 89.9622 161.848 88.8334 162.75 87.4064C162.799 87.3117 162.824 87.2063 162.822 87.0995C162.82 86.9928 162.792 86.8881 162.74 86.795C162.688 86.7018 162.614 86.6231 162.524 86.5659C162.434 86.5087 162.331 86.4749 162.225 86.4673C161.288 86.386 156.566 88.3049 154.572 84.9632C154.235 84.3994 153.221 84.3615 153.297 85.1515Z" fill="#F4F4F4"/>
<path d="M153.109 81.7293C154.22 83.4449 160.347 87.3476 162.6 82.6698C162.943 81.9583 161.625 81.7673 161.248 82.2944C159.636 84.5506 155.314 82.9381 153.857 81.1656C153.521 80.7537 152.815 81.2754 153.109 81.7293Z" fill="#F4F4F4"/>
<path d="M152.02 78.6103C153.376 79.6767 154.991 80.3609 156.699 80.5922C158.407 80.8235 160.146 80.5936 161.735 79.9261C161.855 79.8518 161.947 79.7405 161.998 79.6089C162.049 79.4774 162.056 79.3328 162.018 79.197C161.98 79.0611 161.899 78.9414 161.787 78.8559C161.675 78.7703 161.538 78.7236 161.397 78.7228C158.422 79.5348 155.248 79.1578 152.545 77.6712C152.096 77.4056 151.605 78.2742 152.02 78.6103Z" fill="#F4F4F4"/>
<path d="M176.743 137.741C176.293 134.019 171.665 118.895 169.803 115.525C169.731 115.405 169.619 115.316 169.486 115.273C169.354 115.23 169.211 115.237 169.083 115.292C168.955 115.346 168.851 115.446 168.79 115.571C168.73 115.697 168.717 115.84 168.754 115.975C169.601 119.692 174.343 134.319 175.73 137.779C175.205 138.863 173.296 138.68 172.842 138.379C172.879 138.266 165.62 117.781 161.588 107.818C161.405 107.366 160.725 107.555 160.875 108.007C164.272 118.162 171.791 138.567 171.829 138.643C172.355 139.508 174.717 140.748 176.931 138.266C177.081 138.116 176.931 137.891 176.743 137.741Z" fill="#F4F4F4"/>
<path d="M182.032 32.7128C181.185 25.5423 178.261 18.7772 173.621 13.2527C168.981 7.72818 162.829 3.68603 155.923 1.6252C141.291 -2.84667 124.609 2.08187 115.218 14.2928C101.757 31.8049 104.941 60.5143 126.06 70.8294C133.899 74.7915 142.782 76.1851 151.455 74.8134C151.581 75.3294 151.783 75.8236 152.055 76.2797C152.326 76.7634 153.179 76.4314 152.956 75.9043C152.653 75.1901 152.628 74.396 152.355 73.686C152.326 73.599 152.271 73.5225 152.199 73.4659C152.127 73.4093 152.04 73.3749 151.948 73.367C151.857 73.3591 151.765 73.378 151.684 73.4214C151.603 73.4648 151.537 73.5308 151.493 73.6114C143.946 74.6681 136.254 73.6411 129.247 70.641C122.827 68.0941 117.404 63.5294 113.793 57.632C107.114 46.5444 107.38 31.8848 113.305 20.5304C116.806 14.0644 122.198 8.82676 128.756 5.52075C135.314 2.21473 142.725 0.998649 149.993 2.0358C163.498 3.98174 175.458 13.6532 179.253 26.9211C181.715 35.5067 181.037 44.6913 177.339 52.82C173.553 60.7555 166.064 68.4281 157.72 71.4649C157.612 71.5034 157.515 71.566 157.434 71.6479C157.354 71.7299 157.294 71.829 157.258 71.9378C157.222 72.0466 157.211 72.1622 157.226 72.2759C157.241 72.3896 157.282 72.4983 157.345 72.5938C157.615 73.8823 158.043 75.1322 158.621 76.3149C158.682 76.4093 158.775 76.4789 158.883 76.5111C158.991 76.5434 159.107 76.5364 159.211 76.4913C159.314 76.4462 159.398 76.3659 159.448 76.2647C159.498 76.1635 159.51 76.0478 159.483 75.9382C159.332 75.2254 158.733 73.045 158.657 72.6683C166.23 70.0001 172.621 63.7652 176.889 57.0682C181.301 49.7657 183.114 41.1804 182.032 32.7128Z" fill="#F4F4F4"/>
<path d="M170.141 23.0888C166.86 17.6635 162.059 13.324 156.337 10.6096C150.675 7.82908 144.207 7.17519 138.105 8.76663C117.55 13.496 107.606 36.915 117.735 53.6872C122.913 62.261 137.093 70.7061 152.097 67.672C158.364 66.405 163.353 62.7936 167.514 57.8976C171.655 53.1877 174.085 47.2136 174.411 40.9451C174.678 34.7104 173.2 28.525 170.141 23.0888ZM169.166 52.8606C165.806 58.3837 160.753 62.6696 154.761 65.0783C144.61 68.9214 130.168 66.5039 121.074 55.4922C117.393 50.829 115.407 45.048 115.444 39.1022C115.486 33.2891 117.224 27.6154 120.444 22.7798C123.664 17.9442 128.225 14.1579 133.565 11.8874C138.78 9.74637 145.122 8.64195 150.633 10.1258C156.369 11.7765 161.529 15.006 165.526 19.4476C173.334 28.1976 175.395 42.826 169.166 52.8606Z" fill="#F4F4F4"/>
<path d="M271.5 139.208C271.5 132.629 268.311 22.9027 268.311 22.9027C268.332 22.8232 268.336 22.74 268.323 22.6588C268.309 22.5776 268.278 22.5004 268.231 22.4324C268.185 22.3644 268.124 22.3073 268.054 22.265C267.983 22.2227 267.905 22.1961 267.823 22.1872C265.344 21.717 213.204 22.3011 202.401 23.6535C202.286 23.5821 202.154 23.5426 202.019 23.5389C201.885 23.5353 201.751 23.5677 201.633 23.6328C201.514 23.6978 201.415 23.7933 201.346 23.9093C201.277 24.0254 201.239 24.1578 201.238 24.2931C201.163 31.135 200.744 61.8188 201.464 64.8909C201.492 64.9887 201.551 65.0746 201.632 65.1358C201.713 65.197 201.812 65.2301 201.913 65.2301C202.015 65.2301 202.113 65.197 202.195 65.1358C202.276 65.0746 202.335 64.9887 202.363 64.8909C203.134 61.8785 203.039 31.5551 202.813 24.8947C213.467 24.6684 264.56 23.9177 267.224 23.6535C266.848 31.7354 269.512 135.674 269.999 138.944C263.359 138.907 235.534 137.618 228.472 138.568C227.573 138.689 227.835 140.115 228.698 140.109C232.561 140.092 264.109 140.749 270.899 140.073C271.049 139.959 271.5 139.432 271.5 139.208Z" fill="#3F3F3F"/>
<path d="M194.184 14.7439C194.177 14.5269 194.088 14.3207 193.935 14.1672C193.782 14.0137 193.576 13.9243 193.36 13.9172C188.856 13.9728 184.356 14.2181 179.855 14.2181C179.179 14.2181 179.214 15.1734 179.855 15.2696C184.065 15.7424 188.308 15.843 192.535 15.5705C192.384 26.0211 191.952 73.2373 192.685 79.0236C192.794 79.8881 194.069 79.9261 194.072 79.0236C194.091 73.1966 194.147 25.4953 194.184 14.7439Z" fill="#3F3F3F"/>
<path d="M186.083 177.849C179.89 177.538 104.454 177.211 98.6772 177.436C98.7908 172.136 95.264 26.9237 94.8515 14.706C99.433 14.9082 104.023 14.7574 108.582 14.2547C109.105 14.1721 108.994 13.2452 108.469 13.3156C106.07 13.6368 96.6515 12.9768 94.627 13.3901C94.5512 13.3313 94.4605 13.295 94.3651 13.2853C94.2697 13.2756 94.1735 13.2929 94.0874 13.3353C94.0014 13.3776 93.9289 13.4433 93.8782 13.5249C93.8275 13.6064 93.8007 13.7006 93.8008 13.7967C93.8008 13.8346 96.8489 171.64 97.3276 177.765C97.3309 177.865 97.3562 177.963 97.4016 178.052C97.447 178.14 97.5114 178.218 97.5902 178.279C97.669 178.34 97.7602 178.383 97.8574 178.404C97.9547 178.426 98.0554 178.426 98.1525 178.404C98.1904 178.442 182.557 179.532 186.12 179.268C186.292 179.241 186.448 179.153 186.559 179.019C186.67 178.886 186.729 178.716 186.724 178.542C186.72 178.368 186.652 178.202 186.534 178.074C186.416 177.947 186.255 177.867 186.083 177.849Z" fill="#3F3F3F"/>
<path d="M86.3689 139.508C85.993 108.34 84.6434 28.6891 83.7427 20.1221C83.7672 20.0406 83.7748 19.9549 83.7652 19.8704C83.7556 19.7858 83.7289 19.7041 83.6868 19.6302C83.6447 19.5563 83.588 19.4917 83.5202 19.4405C83.4524 19.3892 83.3749 19.3523 83.2924 19.332C80.8244 18.8252 27.1579 19.0786 15.9243 20.2698C15.8011 20.2777 15.6857 20.3328 15.6019 20.4236C15.5181 20.5144 15.4723 20.6339 15.4739 20.7576C15.3938 20.7164 15.3047 20.6959 15.2146 20.6979C15.1246 20.7 15.0365 20.7245 14.9583 20.7694C14.8801 20.8142 14.8144 20.8779 14.767 20.9546C14.7196 21.0314 14.692 21.1188 14.6869 21.2089C14.0756 30.0347 15.052 133.857 16.3367 141.123C16.3554 141.276 16.432 141.416 16.5508 141.514C16.6696 141.612 16.8215 141.661 16.975 141.65C17.0136 141.773 17.0877 141.881 17.1879 141.961C17.288 142.042 17.4097 142.09 17.5376 142.101C20.5383 142.288 80.9745 140.802 85.5481 141.048C85.6602 141.053 85.7716 141.028 85.8705 140.975C85.9695 140.922 86.0522 140.843 86.11 140.747C86.1678 140.65 86.1985 140.54 86.1989 140.428C86.1992 140.315 86.1692 140.205 86.112 140.108C86.2039 140.039 86.2762 139.948 86.3213 139.842C86.3664 139.737 86.3829 139.621 86.3689 139.508ZM17.7634 140.898C17.7255 134.357 15.7349 21.2847 15.7349 21.2847C18.756 21.2847 80.2294 21.2454 82.5081 20.8782C82.5081 28.3205 84.5365 131.049 84.7204 139.551C84.6853 139.582 23.4269 139.957 17.7634 140.898Z" fill="#3F3F3F"/>
<path d="M110.683 107.217C118.377 107.104 154.575 107.339 156.299 106.916C156.425 106.879 156.536 106.803 156.614 106.697C156.693 106.592 156.735 106.465 156.735 106.333C156.735 106.202 156.693 106.074 156.614 105.969C156.536 105.864 156.425 105.788 156.299 105.751C154.693 105.24 118.371 105.787 110.683 106.202C110.045 106.23 110.046 107.226 110.683 107.217Z" fill="#D42151"/>
<path d="M148.159 94.7365C146.549 94.2812 116.837 94.7745 110.61 95.1133C110.46 89.7755 110.983 66.1017 110.422 63.3115C110.385 63.1855 110.309 63.0748 110.204 62.9961C110.099 62.9173 109.971 62.8748 109.84 62.8748C109.709 62.8748 109.582 62.9173 109.477 62.9961C109.372 63.0748 109.296 63.1855 109.259 63.3115C108.542 66.0217 109.297 89.7755 109.597 95.1133C109.597 95.2257 109.633 96.1662 110.084 96.1282C116.499 95.9399 146.51 96.2407 148.159 95.9019C148.279 95.8588 148.383 95.7796 148.456 95.6753C148.529 95.5711 148.568 95.4467 148.568 95.3192C148.568 95.1918 148.529 95.0674 148.456 94.9631C148.383 94.8588 148.279 94.7797 148.159 94.7365Z" fill="#3F3F3F"/>
<path d="M180.381 92.4435C180.324 87.9716 180.75 68.1693 180.231 65.6421C180.194 65.516 180.118 65.4054 180.013 65.3266C179.908 65.2479 179.781 65.2053 179.65 65.2053C179.519 65.2053 179.391 65.2479 179.286 65.3266C179.181 65.4054 179.105 65.516 179.068 65.6421C178.392 68.1612 179.106 87.9703 179.368 92.4435C179.408 93.0858 180.389 93.1211 180.381 92.4435Z" fill="#3F3F3F"/>
<path d="M110.684 119.134C118.711 119.628 153.26 119.897 156.9 119.698C157.687 119.654 157.989 118.333 157.087 118.193C153.679 117.665 118.825 117.742 110.684 118.155C110.56 118.165 110.445 118.22 110.361 118.311C110.277 118.402 110.23 118.521 110.23 118.645C110.23 118.768 110.277 118.888 110.361 118.978C110.445 119.069 110.56 119.125 110.684 119.134Z" fill="#D42151"/>
<path d="M110.909 134.507C119.128 134.357 158.137 134.353 160.201 134.132C160.913 134.055 161.174 133.01 160.389 132.816C158.621 132.38 119.278 133.005 110.909 133.568C110.789 133.575 110.676 133.627 110.594 133.714C110.511 133.802 110.465 133.917 110.465 134.038C110.465 134.158 110.511 134.274 110.594 134.361C110.676 134.449 110.789 134.501 110.909 134.507Z" fill="#D42151"/>
<path d="M110.909 149.243C123.215 149.205 181.433 150.107 184.246 149.355C184.372 149.318 184.482 149.241 184.561 149.136C184.639 149.031 184.682 148.904 184.682 148.772C184.682 148.641 184.639 148.513 184.561 148.408C184.482 148.303 184.372 148.226 184.246 148.19C181.389 147.621 123.223 148.003 110.909 148.303C110.789 148.31 110.676 148.362 110.594 148.45C110.511 148.537 110.465 148.653 110.465 148.773C110.465 148.893 110.511 149.009 110.594 149.096C110.676 149.184 110.789 149.236 110.909 149.243Z" fill="#D42151"/>
<path d="M60.3391 39.704C59.3208 39.5766 58.9219 41.1065 55.2382 40.9819C50.2455 40.8138 43.9302 37.323 40.7576 42.1852C40.0274 43.3243 39.6974 44.6751 39.8199 46.0234C39.9424 47.3717 40.5103 48.6405 41.4338 49.6288C41.3547 49.6534 41.286 49.7036 41.2385 49.7715C41.191 49.8395 41.1674 49.9213 41.1715 50.0042C41.1349 53.0125 41.1633 56.2499 42.9295 58.8002C43.6567 59.8311 44.6446 60.6495 45.7917 61.1715C46.9388 61.6935 48.2039 61.9003 49.4571 61.7706C55.6114 61.2828 57.1463 55.8312 56.9597 49.29C61.0802 46.5432 62.1823 39.9357 60.3391 39.704ZM54.9759 56.2445C54.5266 57.4046 53.7607 58.4147 52.7656 59.1592C51.7706 59.9038 50.5865 60.3527 49.3489 60.4548C43.1986 61.1554 42.1816 54.7783 42.0329 50.156C44.2466 51.7347 50.5105 52.7497 55.6912 50.0435C55.5006 52.1087 55.7656 54.1779 54.9759 56.2445Z" fill="#F4F4F4"/>
<path d="M244.489 39.704C243.471 39.5766 243.072 41.1065 239.389 40.9819C234.396 40.8138 228.081 37.323 224.908 42.1852C224.178 43.3243 223.848 44.6751 223.97 46.0234C224.093 47.3717 224.661 48.6405 225.584 49.6288C225.522 49.6029 225.455 49.5927 225.389 49.599C225.322 49.6054 225.258 49.6282 225.202 49.6654C225.147 49.7025 225.101 49.7529 225.07 49.812C225.038 49.8711 225.022 49.9372 225.022 50.0042C224.985 53.0125 225.014 56.2499 226.78 58.8002C227.507 59.8311 228.495 60.6495 229.642 61.1715C230.789 61.6935 232.054 61.9003 233.307 61.7706C239.463 61.2828 241.827 54.9287 240.848 49.4784C241.501 49.0599 242.105 48.568 242.648 48.0122C245.183 45.386 246.264 39.9262 244.489 39.704ZM238.826 56.2445C238.378 57.4053 237.612 58.4161 236.617 59.1608C235.622 59.9055 234.437 60.354 233.199 60.4548C227.012 61.1568 225.94 54.7064 225.847 50.0421C225.851 49.9771 225.838 49.912 225.809 49.8538C227.567 52.2225 236.124 53.1995 239.501 50.1546C239.579 52.2069 239.351 54.2593 238.826 56.2445Z" fill="#F4F4F4"/>
<path d="M241.189 63.2357C236.952 61.6592 232.295 61.632 228.04 63.1588C223.785 64.6857 220.204 67.6686 217.929 71.5819C217.626 72.1063 218.417 72.5589 218.755 72.0697C219.763 70.59 220.976 69.2614 222.357 68.1236C229.896 72.0331 234.247 85.904 234.285 86.3173C230.684 86.4298 227.079 86.5233 223.482 86.7686C223.391 86.7742 223.306 86.8142 223.244 86.8806C223.181 86.9469 223.147 87.0346 223.147 87.1257C223.147 87.2167 223.181 87.3044 223.244 87.3707C223.306 87.4371 223.391 87.4771 223.482 87.4827C233.24 87.6508 243.06 87.3323 252.817 87.1819C252.999 87.185 253.175 87.1218 253.313 87.004C253.451 86.8862 253.541 86.7221 253.567 86.5423C253.658 86.4707 253.733 86.3795 253.785 86.2755C253.836 86.1714 253.865 86.057 253.867 85.9406C254.431 76.2827 247.355 65.6166 241.189 63.2357ZM243.665 66.8078C241.419 69.1425 239.432 71.7136 237.738 74.4764C236.827 71.9455 235.736 69.4833 234.475 67.1086C235.253 65.9538 236.118 64.8602 237.063 63.8374C241.749 64.5515 242.84 66.0178 243.665 66.8078ZM223.259 67.446C225.342 65.8908 227.714 64.7664 230.235 64.1382C231.156 65.293 232.228 66.3173 233.424 67.1832C232.861 70.1536 231.51 72.6334 231.06 75.5659C230.611 74.9642 227.159 68.5735 223.259 67.446ZM244.34 67.446C251.43 75.1146 252.03 81.5799 252.255 85.6777C246.628 85.9406 241.001 86.091 235.374 86.2794C235.824 82.7453 239.051 72.4085 244.34 67.446Z" fill="#3F3F3F"/>
<path d="M262.197 94.7362C262.572 90.0381 261.24 45.1174 261.259 35.0801C261.259 34.9297 260.958 34.2494 260.658 34.2155C252.341 33.2819 214.443 34.9297 210.129 35.2305C209.829 35.2305 209.453 35.9081 209.453 36.0571C209.397 41.4342 209.346 65.2219 209.715 67.6719C209.752 67.7868 209.824 67.887 209.921 67.9581C210.019 68.0292 210.136 68.0675 210.256 68.0675C210.377 68.0675 210.494 68.0292 210.591 67.9581C210.688 67.887 210.76 67.7868 210.797 67.6719C211.203 65.1826 210.909 41.6537 210.497 36.4339C214.323 36.9217 251.499 35.5693 259.751 35.3064C259.826 45.2678 260.764 89.8497 261.14 94.6603C248.873 95.7444 236.495 95.5439 224.222 95.6374C224.108 95.6462 224.002 95.6976 223.925 95.7812C223.848 95.8649 223.805 95.9747 223.805 96.0886C223.805 96.2026 223.848 96.3124 223.925 96.3961C224.002 96.4797 224.108 96.5311 224.222 96.5399C236.713 96.5019 249.28 96.8787 261.771 95.9003C261.895 95.8792 262.011 95.8258 262.108 95.7453C262.204 95.6648 262.278 95.5602 262.321 95.4421C262.364 95.3239 262.376 95.1964 262.354 95.0724C262.332 94.9485 262.278 94.8325 262.197 94.7362Z" fill="#3F3F3F"/>
<path d="M227.123 107.631C233.084 107.863 259.578 108.258 262.272 107.744C263.024 107.608 262.797 106.508 262.084 106.466C259.158 106.295 232.874 106.134 227.085 106.616C226.958 106.631 226.842 106.694 226.759 106.791C226.676 106.888 226.632 107.013 226.637 107.141C226.642 107.269 226.694 107.39 226.784 107.481C226.875 107.572 226.995 107.625 227.123 107.631Z" fill="#F4F4F4"/>
<path d="M226.71 116.394C232.94 116.915 260.923 117.852 263.509 116.844C263.997 116.655 264.149 115.826 263.509 115.679C262.157 115.369 232.936 115.604 226.71 115.642C226.222 115.6 226.222 116.348 226.71 116.394Z" fill="#F4F4F4"/>
<path d="M229.224 126.839C235.077 126.896 258.556 127.59 264.374 127.065C265.274 126.984 265.312 125.584 264.374 125.599C258.52 125.692 235.064 125.234 229.224 125.824C228.623 125.879 228.587 126.828 229.224 126.839Z" fill="#F4F4F4"/>
<path d="M24.3655 107.63C33.3679 108.316 76.1834 107.886 77.7088 107.223C77.8091 107.164 77.8896 107.076 77.9403 106.971C77.9909 106.865 78.0093 106.747 77.9933 106.631C77.9772 106.516 77.9275 106.407 77.8501 106.32C77.7728 106.232 77.6714 106.169 77.5587 106.139C75.9089 105.76 33.2935 106.928 24.3655 106.89C24.2797 106.907 24.2023 106.953 24.1466 107.02C24.091 107.088 24.0605 107.173 24.0605 107.26C24.0605 107.348 24.091 107.432 24.1466 107.5C24.2023 107.568 24.2797 107.613 24.3655 107.63Z" fill="#F4F4F4"/>
<path d="M24.7771 118.908C33.555 118.908 73.5848 119.881 77.4078 119.434C78.3084 119.329 78.3449 117.961 77.4078 117.969C68.6286 118.043 33.555 117.405 24.7771 117.931C24.1767 118.005 24.1388 118.908 24.7771 118.908Z" fill="#F4F4F4"/>
<path d="M24.7771 129.432C33.555 129.432 73.5483 129.542 77.4078 129.095C78.3084 128.989 78.3449 127.621 77.4078 127.629C68.6286 127.703 33.555 127.93 24.7771 128.455C24.1767 128.531 24.1388 129.432 24.7771 129.432Z" fill="#F4F4F4"/>
<path d="M77.0691 32.3361C77.0693 32.2588 77.0536 32.1822 77.023 32.1113C76.9924 32.0403 76.9475 31.9763 76.8912 31.9235C76.8349 31.8706 76.7683 31.8299 76.6956 31.8039C76.6229 31.7779 76.5457 31.7672 76.4687 31.7724C76.3943 31.7724 31.3015 32.599 22.3383 33.0882C22.2687 33.0912 22.2004 33.1084 22.1375 33.1387C22.0747 33.1691 22.0188 33.2119 21.9731 33.2647C21.9274 33.3175 21.8929 33.379 21.8718 33.4456C21.8506 33.5122 21.8433 33.5824 21.8502 33.6519C21.8123 33.7278 22.2558 85.9213 23.3512 96.2405C23.3569 96.3621 23.4052 96.4778 23.4875 96.5672C23.5699 96.6567 23.6811 96.7142 23.8015 96.7297C23.8604 96.7995 23.9359 96.8532 24.021 96.8859C24.1061 96.9186 24.1981 96.9292 24.2884 96.9167C33.1041 96.5414 76.5065 96.5034 76.5823 96.4655C76.7362 96.4798 76.8896 96.4326 77.0089 96.3341C77.1282 96.2356 77.2038 96.0938 77.2192 95.9397C77.5451 93.4517 77.1638 39.6686 77.0691 32.3361ZM24.402 95.5643C24.2884 85.4145 23.9882 44.4034 23.3201 34.1032C31.9857 34.1411 67.0972 33.614 75.9129 33.2007C75.4261 51.057 75.5383 92.6698 76.063 95.338C67.6908 95.0751 33.2217 95.1876 24.402 95.5643Z" fill="#3F3F3F"/>
<path d="M66.8276 83.8706C65.785 79.312 67.1197 74.7439 62.0269 68.5334C60.4945 66.5945 58.5362 65.0362 56.3043 63.9799C54.0725 62.9236 51.6275 62.3978 49.1597 62.4435C37.7556 62.8826 29.6147 74.5474 30.6654 85.4804C30.6654 85.5563 30.8169 86.1146 31.1158 86.158C36.4209 86.9236 58.4325 87.0767 63.6768 86.0821C64.4286 85.9398 64.2028 84.7961 63.4888 84.7663C60.8274 84.6592 52.535 85.2934 51.0732 85.33C52.1226 82.0601 52.8731 76.0082 58.6881 67.5496C65.8905 74.3916 64.3367 81.8569 65.3644 84.2405C65.758 85.1593 67.0521 84.8503 66.8276 83.8706ZM40.7185 66.807C42.5101 65.6272 44.5091 64.7994 46.6092 64.3678C47.0627 65.6987 47.7767 66.9256 48.7094 67.9765C48.259 69.6676 47.8466 71.9984 47.3963 73.5392C45.9319 70.6475 43.5953 68.2919 40.7185 66.807ZM31.5985 85.1132C32.1611 79.8499 34.1111 72.2573 39.8138 67.4453C49.3044 75.6776 49.8669 85.3327 49.8669 85.3761C49.0434 85.414 36.855 84.9628 31.5985 85.1132ZM52.8731 74.2493C51.6329 72.1678 50.6743 69.9303 50.0224 67.5957C50.5063 66.5043 50.8468 65.3546 51.0353 64.1754C53.5547 64.4911 55.9476 65.4629 57.9754 66.994C56.2864 69.4373 54.1105 71.5052 52.8731 74.2493Z" fill="#3F3F3F"/>
<path d="M136.897 52.3829C136.636 52.3837 136.379 52.3237 136.143 52.2072C135.908 52.0906 135.7 51.9206 135.535 51.7094C135.371 51.4982 135.253 51.2512 135.192 50.9865C135.13 50.7217 135.126 50.4459 135.179 50.1793L136.581 41.6072L130.627 35.5583C130.393 35.3201 130.228 35.0183 130.15 34.6872C130.072 34.3561 130.084 34.0088 130.185 33.6846C130.286 33.3603 130.472 33.0719 130.721 32.852C130.97 32.6322 131.273 32.4895 131.596 32.4402L139.806 31.1952L143.484 23.3944C143.626 23.0816 143.849 22.8173 144.129 22.6322C144.409 22.4471 144.733 22.3489 145.065 22.3489C145.396 22.3489 145.72 22.4471 146 22.6322C146.28 22.8173 146.503 23.0816 146.645 23.3944L150.344 31.1952L158.575 32.4512C158.898 32.5005 159.201 32.6432 159.45 32.8631C159.699 33.0829 159.885 33.3713 159.986 33.6956C160.087 34.0199 160.099 34.3671 160.021 34.6982C159.943 35.0294 159.778 35.3311 159.545 35.5694L153.59 41.6403L154.971 50.1793C155.026 50.5137 154.991 50.8576 154.869 51.1724C154.748 51.4872 154.545 51.7605 154.284 51.9617C154.023 52.163 153.713 52.2842 153.389 52.3119C153.066 52.3396 152.741 52.2726 152.452 52.1184L145.075 48.0748L137.698 52.1184C137.456 52.2737 137.181 52.3645 136.897 52.3829ZM132.629 34.5116L138.193 40.1859C138.398 40.3921 138.551 40.6476 138.639 40.9299C138.727 41.2123 138.748 41.5129 138.699 41.8056L137.382 49.8046L144.264 46.0255C144.514 45.8884 144.792 45.8168 145.075 45.8168C145.358 45.8168 145.636 45.8884 145.887 46.0255L152.768 49.8046L151.451 41.7945C151.402 41.5019 151.423 41.2013 151.511 40.9189C151.599 40.6366 151.752 40.3811 151.957 40.1749L157.521 34.5006L149.828 33.3327C149.547 33.2899 149.28 33.1762 149.051 33.0015C148.821 32.8268 148.636 32.5964 148.511 32.33L145.075 25.0581L141.639 32.3411C141.514 32.6074 141.329 32.8378 141.099 33.0125C140.87 33.1872 140.603 33.3009 140.322 33.3437L132.629 34.5116Z" fill="#D42151"/>
<path d="M223.258 102.631C213.729 95.3666 223.411 89.6142 220.369 81.7301C219.821 80.1455 218.965 78.6852 217.851 77.4337C216.737 76.1822 215.387 75.1641 213.878 74.4383C212 73.6537 210.165 73.197 208.739 71.6183C207.812 70.3318 206.685 69.2026 205.4 68.2739C204.493 67.7492 203.457 67.4887 202.41 67.5217C201.363 67.5548 200.346 67.88 199.473 68.4609C196.98 70.3757 196.568 75.3476 199.587 78.5727C199.511 78.6107 196.504 83.6802 194.897 86.0164C193.013 88.755 195.798 89.5871 195.872 89.625C195.039 95.6038 198.137 98.8493 201.949 99.0227C202.212 100.826 202.235 102.671 202.475 104.473C202.546 105 203.422 105.264 203.525 104.623C203.736 102.743 203.57 100.839 203.038 99.0227C204.244 98.9388 205.389 98.463 206.301 97.6676C206.751 100.255 208.158 102.577 210.24 104.172C213.311 106.51 220.968 107.405 223.628 103.984C223.857 103.608 223.37 102.707 223.258 102.631ZM207.805 88.2713C207.662 88.1992 207.5 88.1734 207.341 88.1975C207.183 88.2216 207.036 88.2944 206.921 88.4058C206.805 88.5172 206.727 88.6618 206.698 88.8195C206.668 88.9772 206.687 89.1403 206.754 89.2862C206.101 91.44 205.834 93.6927 205.966 95.9398C205.209 96.8544 204.152 97.4698 202.984 97.6763C201.816 97.8828 200.613 97.667 199.59 97.0673C198.936 96.7053 198.374 96.1991 197.945 95.587C197.516 94.9749 197.232 94.2731 197.113 93.5345C197.784 93.6856 198.486 93.6217 199.118 93.3518C199.751 93.0819 200.283 92.6196 200.639 92.0303C200.688 91.9348 200.703 91.825 200.68 91.7199C200.657 91.6148 200.599 91.5208 200.514 91.4542C200.43 91.3876 200.325 91.3524 200.218 91.3546C200.111 91.3569 200.008 91.3965 199.926 91.4666C199.561 91.8898 199.093 92.2117 198.567 92.4015C198.042 92.5913 197.476 92.6427 196.925 92.5507C196.775 91.4233 196.813 90.2213 196.738 89.0559C196.738 88.8296 196.176 88.7537 195.538 87.9718C195.051 87.3701 200.04 79.1012 200.04 79.1012C200.838 79.693 201.752 80.1093 202.721 80.323C203.691 80.5367 204.695 80.5429 205.667 80.3412C206.597 81.2829 207.212 82.4917 207.425 83.7994C207.477 83.9774 207.596 84.1281 207.757 84.2194C207.918 84.3108 208.109 84.3356 208.288 84.2886C211.966 82.821 210.958 89.9516 207.805 88.2713Z" fill="#F4F4F4"/>
<path d="M233.05 227.131C232.975 224.274 225.845 186.774 222.809 156.197C222.765 155.747 222.02 155.858 222.021 156.31C222.059 168.189 230.837 223.71 231.475 226.454C230.574 229.349 226.742 228.296 224.009 227.319C222.021 220.665 211.405 189.54 210.28 186.308C210.354 186.007 213.558 173.96 215.643 168.377C215.952 167.553 214.47 166.945 214.218 167.775C209.505 183.35 197.413 223.185 194.674 228.033C194.637 228.033 189.122 230.514 187.21 226.793C188.335 220.74 196.488 167.048 197.75 155.108C197.817 154.467 196.853 154.506 196.775 155.108C195.213 167.218 185.956 220.661 185.821 226.643C185.818 226.824 185.885 226.999 186.009 227.131C185.108 227.507 171.416 230.739 171.416 234.123C171.415 234.302 171.474 234.477 171.582 234.62C171.691 234.762 171.844 234.865 172.016 234.912C179.397 235.936 186.86 236.238 194.298 235.814C194.599 235.776 197.409 229.875 195.651 228.903C199.664 220.031 208.406 192.891 209.643 188.494C210.468 191.049 219.996 220.22 221.984 226.347C221.91 226.347 207.746 229.235 208.818 232.211C209.237 233.374 210.432 233.566 211.557 233.715C213.696 234.008 226.567 234.372 230.838 234.315C231.345 234.227 231.815 233.991 232.19 233.638C233.467 231.658 233.687 227.694 233.05 227.131Z" fill="#F4F4F4"/>
</g>
<defs>
<clipPath id="clip0_1593_10981">
<rect width="285" height="158" fill="white" transform="translate(0.5)"/>
</clipPath>
</defs>
</svg>
