<svg width="285" height="158" viewBox="0 0 285 158" fill="none" xmlns="http://www.w3.org/2000/svg">
<g clip-path="url(#clip0_2780_16464)">
<path d="M209.336 14.1215H160.033V26.6825C160.034 26.9741 159.978 27.2633 159.868 27.5333C159.758 27.8032 159.595 28.0487 159.39 28.2555C159.184 28.4623 158.94 28.6264 158.671 28.7383C158.402 28.8503 158.114 28.9078 157.823 28.9076H142.283V43.824C142.618 43.9127 142.91 44.1205 143.103 44.4086C143.296 44.6968 143.378 45.0455 143.334 45.3897C143.289 45.734 143.121 46.0501 142.86 46.2792C142.6 46.5083 142.265 46.6347 141.918 46.6347C141.572 46.6347 141.237 46.5083 140.977 46.2792C140.716 46.0501 140.548 45.734 140.503 45.3897C140.459 45.0455 140.541 44.6968 140.734 44.4086C140.927 44.1205 141.219 43.9127 141.554 43.824V28.9076H137.303V65.6897C137.303 66.2566 137.528 66.8003 137.928 67.2012C138.328 67.602 138.871 67.8272 139.437 67.8272L206.043 65.5473C206.611 65.5483 207.157 65.324 207.561 64.9236C207.964 64.5231 208.194 63.9789 208.198 63.4098L211.471 16.259C211.474 15.9773 211.421 15.6978 211.315 15.4368C211.209 15.1758 211.052 14.9388 210.853 14.7396C210.654 14.5404 210.418 14.383 210.157 14.2769C209.896 14.1707 209.617 14.1179 209.336 14.1215ZM160.033 35.7243C160.033 35.6026 160.114 35.5003 160.175 35.5003H166.885C167.083 35.5003 167.027 35.7231 167.027 38.2282C167.027 38.3499 166.946 38.4522 166.885 38.4522H160.175C159.975 38.4498 160.033 38.227 160.033 35.7243ZM152.632 42.5239C152.63 42.4984 152.633 42.4727 152.641 42.4484C152.65 42.4241 152.663 42.4018 152.68 42.3827C152.697 42.3637 152.718 42.3484 152.741 42.3377C152.765 42.3271 152.79 42.3213 152.815 42.3207H161.375C161.4 42.3213 161.425 42.3271 161.449 42.3377C161.472 42.3484 161.493 42.3637 161.51 42.3827C161.527 42.4018 161.54 42.4241 161.549 42.4484C161.557 42.4727 161.56 42.4984 161.558 42.5239V45.0279C161.563 45.0818 161.546 45.1355 161.512 45.1774C161.478 45.2193 161.428 45.246 161.375 45.2518H152.815C152.713 45.2518 152.632 45.1703 152.632 45.0279V42.5239ZM175.769 51.0752C175.769 51.3942 176.459 51.298 153.1 51.298C152.836 51.298 152.632 51.2177 152.632 51.0752V48.5677C152.632 48.278 151.921 48.3644 175.281 48.3644C175.545 48.3644 175.749 48.4459 175.749 48.5677V51.0728L175.769 51.0752ZM186.545 51.0752C186.55 51.129 186.533 51.1824 186.499 51.224C186.464 51.2656 186.415 51.2921 186.362 51.298H177.803C177.7 51.298 177.619 51.2177 177.619 51.0752V48.5677C177.617 48.5421 177.62 48.5164 177.628 48.4921C177.637 48.4678 177.65 48.4455 177.667 48.4265C177.684 48.4074 177.705 48.3921 177.728 48.3815C177.752 48.3708 177.777 48.365 177.803 48.3644H186.362C186.387 48.365 186.413 48.3708 186.436 48.3815C186.459 48.3921 186.48 48.4074 186.497 48.4265C186.514 48.4455 186.528 48.4678 186.536 48.4921C186.544 48.5164 186.547 48.5421 186.545 48.5677V51.0752ZM186.545 45.0279C186.545 45.3468 187.236 45.2518 163.875 45.2518C163.611 45.2518 163.408 45.1703 163.408 45.0279V42.5215C163.408 42.2318 162.697 42.3182 186.057 42.3182C186.322 42.3182 186.525 42.3998 186.525 42.5215V45.0254L186.545 45.0279ZM186.545 38.2112C186.545 38.5411 187.167 38.4352 168.836 38.4352C168.633 38.4352 168.471 38.3341 168.471 38.2112V35.7012C168.471 35.3713 167.85 35.4772 186.181 35.4772C186.384 35.4772 186.545 35.5794 186.545 35.7012V38.2112ZM190.712 55.8615C190.712 56.0045 190.656 56.1417 190.555 56.2428C190.454 56.344 190.317 56.4008 190.174 56.4008C190.031 56.4008 189.894 56.344 189.793 56.2428C189.692 56.1417 189.635 56.0045 189.635 55.8615V28.0056C189.635 27.8626 189.692 27.7255 189.793 27.6243C189.894 27.5232 190.031 27.4664 190.174 27.4664C190.317 27.4664 190.454 27.5232 190.555 27.6243C190.656 27.7255 190.712 27.8626 190.712 28.0056V55.8615ZM195.002 51.1142C194.625 51.1142 194.263 50.964 193.996 50.6967C193.729 50.4294 193.579 50.0668 193.579 49.6888C193.579 49.3107 193.729 48.9482 193.996 48.6808C194.263 48.4135 194.625 48.2633 195.002 48.2633C195.373 48.2742 195.724 48.4291 195.982 48.6951C196.24 48.9611 196.384 49.3173 196.384 49.6882C196.384 50.059 196.24 50.4152 195.982 50.6812C195.724 50.9473 195.373 51.1021 195.002 51.113V51.1142ZM195.002 44.7016C194.625 44.7016 194.263 44.5515 193.996 44.2841C193.729 44.0168 193.579 43.6543 193.579 43.2762C193.579 42.8982 193.729 42.5356 193.996 42.2683C194.263 42.001 194.625 41.8508 195.002 41.8508C195.373 41.8616 195.724 42.0165 195.982 42.2825C196.24 42.5485 196.384 42.9048 196.384 43.2756C196.384 43.6464 196.24 44.0027 195.982 44.2687C195.724 44.5347 195.373 44.6896 195.002 44.7004V44.7016ZM195.205 38.0237C194.828 38.0237 194.466 37.8735 194.199 37.6062C193.932 37.3389 193.782 36.9763 193.782 36.5983C193.782 36.2203 193.932 35.8577 194.199 35.5904C194.466 35.3231 194.828 35.1729 195.205 35.1729C195.576 35.1837 195.927 35.3386 196.185 35.6046C196.443 35.8706 196.587 36.2269 196.587 36.5977C196.587 36.9685 196.443 37.3248 196.185 37.5908C195.927 37.8568 195.576 38.0117 195.205 38.0225V38.0237ZM207.483 22.0423C207.26 23.0161 207.362 23.4056 207.199 23.4056C207.057 23.4056 206.731 22.8761 206.713 21.7769C206.747 21.1379 206.72 20.4971 206.631 19.8633C206.486 19.1512 206.083 18.4489 205.31 18.4026C193.668 17.6272 182.022 19.8378 170.38 18.5657C169.843 18.5666 169.314 18.4415 168.835 18.2006C169.953 17.5079 171.885 17.6309 173.145 17.5286C182.131 16.7983 191.159 16.8153 200.165 16.836C203.759 16.8445 207.702 16.0545 207.79 19.8901C207.775 20.6167 207.673 21.3389 207.486 22.041L207.483 22.0423Z" fill="#D42151"/>
<path d="M191.018 116.648L190.733 115.65C190.664 115.412 190.515 115.205 190.311 115.065C190.108 114.924 189.862 114.858 189.615 114.877L174.631 116.216C174.462 116.228 174.299 116.281 174.155 116.371C174.012 116.46 173.892 116.583 173.806 116.729C173.72 116.875 173.67 117.04 173.662 117.209C173.654 117.378 173.686 117.547 173.757 117.701L174.163 118.638C174.253 118.84 174.403 119.008 174.592 119.121C174.782 119.234 175.001 119.285 175.221 119.269L190.062 118.011C190.22 117.997 190.373 117.949 190.511 117.87C190.648 117.791 190.766 117.682 190.857 117.552C190.948 117.422 191.01 117.274 191.037 117.118C191.065 116.962 191.059 116.801 191.018 116.648Z" fill="#F4F4F4"/>
<path d="M192.889 123.102L192.604 122.104C192.535 121.866 192.386 121.659 192.182 121.518C191.978 121.378 191.733 121.311 191.486 121.33L176.501 122.669C176.332 122.681 176.169 122.735 176.025 122.824C175.881 122.914 175.761 123.037 175.675 123.183C175.589 123.329 175.54 123.494 175.532 123.663C175.523 123.832 175.556 124.001 175.627 124.155L176.034 125.092C176.124 125.294 176.273 125.462 176.462 125.575C176.652 125.688 176.871 125.74 177.09 125.723L191.933 124.461C192.09 124.445 192.242 124.397 192.378 124.317C192.514 124.238 192.632 124.13 192.722 124.001C192.813 123.872 192.875 123.725 192.904 123.57C192.932 123.415 192.927 123.255 192.889 123.102Z" fill="#F4F4F4"/>
<path d="M195.206 130.39L194.921 129.393C194.852 129.155 194.703 128.948 194.499 128.807C194.296 128.666 194.05 128.6 193.803 128.619L187.257 129.188C187.088 129.201 186.925 129.254 186.781 129.344C186.637 129.433 186.517 129.556 186.431 129.702C186.345 129.848 186.296 130.013 186.287 130.183C186.279 130.352 186.312 130.521 186.383 130.675L186.789 131.612C186.879 131.813 187.029 131.982 187.218 132.095C187.407 132.208 187.627 132.259 187.846 132.243L194.25 131.734C194.409 131.726 194.563 131.683 194.703 131.607C194.842 131.53 194.962 131.424 195.054 131.294C195.146 131.165 195.207 131.016 195.234 130.86C195.26 130.703 195.25 130.542 195.206 130.39Z" fill="#F4F4F4"/>
<path d="M169.121 118.907L168.837 117.91C168.767 117.672 168.618 117.465 168.415 117.324C168.211 117.183 167.965 117.117 167.718 117.136L161.172 117.706C161.003 117.718 160.84 117.772 160.696 117.861C160.552 117.951 160.432 118.074 160.347 118.22C160.261 118.366 160.211 118.531 160.203 118.7C160.195 118.869 160.227 119.038 160.298 119.192L160.704 120.129C160.794 120.331 160.944 120.499 161.133 120.612C161.323 120.725 161.542 120.777 161.762 120.76L168.166 120.251C168.322 120.237 168.472 120.189 168.608 120.111C168.744 120.033 168.861 119.927 168.952 119.799C169.043 119.671 169.105 119.526 169.134 119.372C169.163 119.218 169.159 119.059 169.121 118.907Z" fill="#F4F4F4"/>
<path d="M171.662 125.749L171.378 124.75C171.308 124.513 171.159 124.306 170.955 124.165C170.752 124.024 170.506 123.958 170.259 123.977L163.712 124.547C163.543 124.56 163.38 124.613 163.236 124.702C163.092 124.792 162.972 124.915 162.886 125.061C162.8 125.207 162.751 125.372 162.743 125.541C162.734 125.711 162.767 125.879 162.838 126.033L163.245 126.969C163.335 127.171 163.484 127.34 163.673 127.453C163.863 127.566 164.082 127.618 164.302 127.601L170.707 127.092C170.864 127.082 171.017 127.036 171.154 126.959C171.292 126.882 171.411 126.776 171.502 126.647C171.594 126.518 171.655 126.371 171.683 126.216C171.711 126.06 171.704 125.901 171.662 125.749Z" fill="#F4F4F4"/>
<path d="M207.055 140.956L204.147 139.837C203.188 139.472 205.33 139.381 174 143.725C173.905 143.739 173.818 143.783 173.751 143.852C173.684 143.92 173.642 144.009 173.631 144.104C173.619 144.199 173.639 144.295 173.688 144.377C173.736 144.46 173.81 144.524 173.899 144.56L177.05 145.842C177.05 145.72 176.364 145.933 207.055 140.956Z" fill="#F4F4F4"/>
<path d="M214.42 143.786L209.051 141.73L178.904 146.616C182.727 148.176 182.979 148.406 183.905 148.285L214.321 144.641C214.418 144.626 214.507 144.58 214.574 144.51C214.642 144.439 214.685 144.348 214.696 144.251C214.707 144.154 214.686 144.056 214.636 143.972C214.586 143.888 214.51 143.822 214.42 143.786Z" fill="#F4F4F4"/>
<mask id="path-9-outside-1_2780_16464" maskUnits="userSpaceOnUse" x="126.089" y="2.85815" width="34" height="26" fill="black">
<rect fill="white" x="126.089" y="2.85815" width="34" height="26"/>
<path d="M155.722 4.85815L131.121 5.87579C130.568 5.91278 130.051 6.16579 129.683 6.58036C129.314 6.99493 129.122 7.53791 129.149 8.09243L128.092 23.6734C128.064 24.2285 128.255 24.7723 128.624 25.1874C128.994 25.6026 129.511 25.8558 130.065 25.8925H141.572V18.3966H133.053C132.959 18.397 132.866 18.3789 132.78 18.3432C132.693 18.3075 132.614 18.255 132.548 18.1886C132.482 18.1223 132.43 18.0435 132.394 17.9567C132.359 17.8699 132.341 17.777 132.342 17.6832V14.1617C132.341 14.069 132.36 13.9773 132.396 13.8919C132.432 13.8065 132.484 13.7292 132.551 13.6645C132.617 13.5999 132.696 13.5493 132.782 13.5158C132.868 13.4822 132.96 13.4663 133.053 13.4691H151.92C152.013 13.4663 152.105 13.4822 152.191 13.5158C152.278 13.5493 152.356 13.5999 152.423 13.6645C152.489 13.7292 152.542 13.8065 152.577 13.8919C152.613 13.9773 152.632 14.069 152.632 14.1617V17.6832C152.632 17.777 152.614 17.8699 152.579 17.9567C152.543 18.0435 152.491 18.1223 152.425 18.1886C152.359 18.255 152.28 18.3075 152.193 18.3432C152.107 18.3789 152.014 18.397 151.92 18.3966H142.283V25.8888H155.722C156.277 25.8568 156.797 25.6056 157.168 25.1904C157.539 24.7752 157.731 24.2297 157.701 23.6734V7.07723C157.716 6.80139 157.678 6.52518 157.587 6.26437C157.495 6.00355 157.354 5.76325 157.17 5.55718C156.986 5.35111 156.764 5.18332 156.515 5.06338C156.267 4.94344 155.997 4.8737 155.722 4.85815Z"/>
</mask>
<path d="M155.722 4.85815L131.121 5.87579C130.568 5.91278 130.051 6.16579 129.683 6.58036C129.314 6.99493 129.122 7.53791 129.149 8.09243L128.092 23.6734C128.064 24.2285 128.255 24.7723 128.624 25.1874C128.994 25.6026 129.511 25.8558 130.065 25.8925H141.572V18.3966H133.053C132.959 18.397 132.866 18.3789 132.78 18.3432C132.693 18.3075 132.614 18.255 132.548 18.1886C132.482 18.1223 132.43 18.0435 132.394 17.9567C132.359 17.8699 132.341 17.777 132.342 17.6832V14.1617C132.341 14.069 132.36 13.9773 132.396 13.8919C132.432 13.8065 132.484 13.7292 132.551 13.6645C132.617 13.5999 132.696 13.5493 132.782 13.5158C132.868 13.4822 132.96 13.4663 133.053 13.4691H151.92C152.013 13.4663 152.105 13.4822 152.191 13.5158C152.278 13.5493 152.356 13.5999 152.423 13.6645C152.489 13.7292 152.542 13.8065 152.577 13.8919C152.613 13.9773 152.632 14.069 152.632 14.1617V17.6832C152.632 17.777 152.614 17.8699 152.579 17.9567C152.543 18.0435 152.491 18.1223 152.425 18.1886C152.359 18.255 152.28 18.3075 152.193 18.3432C152.107 18.3789 152.014 18.397 151.92 18.3966H142.283V25.8888H155.722C156.277 25.8568 156.797 25.6056 157.168 25.1904C157.539 24.7752 157.731 24.2297 157.701 23.6734V7.07723C157.716 6.80139 157.678 6.52518 157.587 6.26437C157.495 6.00355 157.354 5.76325 157.17 5.55718C156.986 5.35111 156.764 5.18332 156.515 5.06338C156.267 4.94344 155.997 4.8737 155.722 4.85815Z" fill="#F4F4F4"/>
<path d="M131.121 5.87579L131.038 3.8775L131.013 3.87855L130.988 3.88025L131.121 5.87579ZM129.149 8.09243L131.145 8.22787L131.153 8.1115L131.147 7.99501L129.149 8.09243ZM128.092 23.6734L126.096 23.538L126.095 23.5559L126.094 23.5738L128.092 23.6734ZM130.065 25.8925L129.933 27.8881L129.999 27.8925H130.065V25.8925ZM141.572 25.8925V27.8925H143.572V25.8925H141.572ZM141.572 18.3966H143.572V16.3966H141.572V18.3966ZM133.053 18.3966V16.3965L133.042 16.3966L133.053 18.3966ZM132.342 17.6832L134.342 17.697V17.6832H132.342ZM132.342 14.1617H134.342L134.342 14.1573L132.342 14.1617ZM133.053 13.4691L132.993 15.4682L133.023 15.4691H133.053V13.4691ZM151.92 13.4691V15.4691H151.95L151.98 15.4682L151.92 13.4691ZM152.632 14.1617L150.632 14.1573V14.1617H152.632ZM152.632 17.6832H150.632L150.632 17.697L152.632 17.6832ZM151.92 18.3966L151.931 16.3966H151.92V18.3966ZM142.283 18.3966V16.3966H140.283V18.3966H142.283ZM142.283 25.8888H140.283V27.8888H142.283V25.8888ZM155.722 25.8888V27.8888H155.779L155.837 27.8855L155.722 25.8888ZM157.701 23.6734H155.701V23.727L155.704 23.7806L157.701 23.6734ZM157.701 7.07723L155.704 6.96426L155.701 7.0207V7.07723H157.701ZM155.639 2.85986L131.038 3.8775L131.204 7.87408L155.804 6.85645L155.639 2.85986ZM130.988 3.88025C129.911 3.95226 128.905 4.44485 128.188 5.2511L131.177 7.90961C131.197 7.88672 131.225 7.87329 131.255 7.87133L130.988 3.88025ZM128.188 5.2511C127.471 6.05726 127.099 7.11258 127.152 8.18984L131.147 7.99501C131.145 7.96324 131.156 7.93259 131.177 7.90961L128.188 5.2511ZM127.154 7.95698L126.096 23.538L130.087 23.8088L131.145 8.22787L127.154 7.95698ZM126.094 23.5738C126.04 24.6522 126.412 25.7091 127.13 26.5163L130.119 23.8585C130.099 23.8355 130.088 23.8048 130.089 23.773L126.094 23.5738ZM127.13 26.5163C127.848 27.3237 128.854 27.8167 129.933 27.8881L130.197 23.8968C130.168 23.8949 130.14 23.8815 130.119 23.8585L127.13 26.5163ZM130.065 27.8925H141.572V23.8925H130.065V27.8925ZM143.572 25.8925V18.3966H139.572V25.8925H143.572ZM141.572 16.3966H133.053V20.3966H141.572V16.3966ZM133.042 16.3966C133.214 16.3957 133.384 16.4289 133.542 16.4942L132.017 20.1923C132.349 20.3289 132.704 20.3984 133.063 20.3965L133.042 16.3966ZM133.542 16.4942C133.7 16.5594 133.844 16.6555 133.965 16.7766L131.132 19.6007C131.385 19.8545 131.686 20.0556 132.017 20.1923L133.542 16.4942ZM133.965 16.7766C134.085 16.8977 134.181 17.0414 134.245 17.1994L130.543 18.714C130.679 19.0455 130.879 19.3469 131.132 19.6007L133.965 16.7766ZM134.245 17.1994C134.31 17.3574 134.343 17.5265 134.342 17.697L130.342 17.6695C130.339 18.0275 130.408 18.3825 130.543 18.714L134.245 17.1994ZM134.342 17.6832V14.1617H130.342V17.6832H134.342ZM134.342 14.1573C134.342 14.3323 134.307 14.5057 134.239 14.6671L130.552 13.1166C130.412 13.4489 130.341 13.8058 130.342 14.1661L134.342 14.1573ZM134.239 14.6671C134.171 14.8285 134.072 14.9749 133.946 15.0973L131.155 12.2318C130.897 12.4835 130.692 12.7844 130.552 13.1166L134.239 14.6671ZM133.946 15.0973C133.82 15.2197 133.671 15.3157 133.507 15.3795L132.056 11.652C131.72 11.783 131.414 11.9802 131.155 12.2318L133.946 15.0973ZM133.507 15.3795C133.344 15.4433 133.169 15.4735 132.993 15.4682L133.113 11.47C132.752 11.4592 132.393 11.5211 132.056 11.652L133.507 15.3795ZM133.053 15.4691H151.92V11.4691H133.053V15.4691ZM151.98 15.4682C151.805 15.4735 151.63 15.4433 151.466 15.3795L152.917 11.652C152.581 11.5211 152.221 11.4592 151.86 11.47L151.98 15.4682ZM151.466 15.3795C151.302 15.3157 151.153 15.2197 151.027 15.0973L153.818 12.2318C153.56 11.9802 153.253 11.783 152.917 11.652L151.466 15.3795ZM151.027 15.0973C150.901 14.9749 150.802 14.8285 150.734 14.6671L154.421 13.1166C154.281 12.7844 154.076 12.4835 153.818 12.2318L151.027 15.0973ZM150.734 14.6671C150.666 14.5058 150.631 14.3324 150.632 14.1573L154.632 14.1661C154.632 13.8057 154.561 13.4488 154.421 13.1166L150.734 14.6671ZM150.632 14.1617V17.6832H154.632V14.1617H150.632ZM150.632 17.697C150.63 17.5264 150.663 17.3573 150.728 17.1994L154.43 18.714C154.565 18.3826 154.634 18.0276 154.632 17.6695L150.632 17.697ZM150.728 17.1994C150.792 17.0414 150.888 16.8977 151.008 16.7766L153.841 19.6007C154.094 19.3469 154.294 19.0455 154.43 18.714L150.728 17.1994ZM151.008 16.7766C151.129 16.6555 151.273 16.5595 151.431 16.4942L152.956 20.1923C153.287 20.0556 153.588 19.8545 153.841 19.6007L151.008 16.7766ZM151.431 16.4942C151.59 16.4289 151.759 16.3957 151.931 16.3966L151.91 20.3965C152.269 20.3984 152.624 20.3289 152.956 20.1923L151.431 16.4942ZM151.92 16.3966H142.283V20.3966H151.92V16.3966ZM140.283 18.3966V25.8888H144.283V18.3966H140.283ZM142.283 27.8888H155.722V23.8888H142.283V27.8888ZM155.837 27.8855C156.921 27.8229 157.936 27.3326 158.66 26.5228L155.677 23.858C155.658 23.8787 155.633 23.8906 155.607 23.8921L155.837 27.8855ZM158.66 26.5228C159.383 25.7131 159.756 24.65 159.698 23.5662L155.704 23.7806C155.705 23.8094 155.695 23.8372 155.677 23.858L158.66 26.5228ZM159.701 23.6734V7.07723H155.701V23.6734H159.701ZM159.698 7.1902C159.728 6.65247 159.652 6.11395 159.475 5.60539L155.698 6.92334C155.703 6.9364 155.705 6.95032 155.704 6.96426L159.698 7.1902ZM159.475 5.60539C159.297 5.0968 159.021 4.62807 158.663 4.226L155.678 6.88836C155.687 6.89843 155.694 6.9103 155.698 6.92334L159.475 5.60539ZM158.663 4.226C158.304 3.82391 157.87 3.49634 157.385 3.26213L155.646 6.86462C155.658 6.87029 155.669 6.87831 155.678 6.88836L158.663 4.226ZM157.385 3.26213C156.899 3.02793 156.373 2.8917 155.834 2.86133L155.609 6.85498C155.622 6.8557 155.634 6.85894 155.646 6.86462L157.385 3.26213Z" fill="#263238" mask="url(#path-9-outside-1_2780_16464)"/>
<path d="M232.168 97.022C230.054 96.5132 230.481 95.963 230.623 93.9071C234.181 92.9089 243.78 89.2036 243.595 78.0473C243.313 61.0677 222.834 58.2765 216.537 64.9569C211.087 70.7364 210.905 75.6858 210.905 75.6858C210.905 75.6858 211.922 75.7065 213.427 75.6043C213.08 78.9992 212.591 83.1635 213.163 86.5365C213.827 90.4549 218.285 92.5754 221.925 92.6448C222.927 92.6906 223.929 92.5384 224.873 92.1968C225.523 91.9728 225.828 91.7282 225.845 91.6466C224.699 91.7915 223.545 91.8663 222.389 91.8706C219.482 91.6271 216.147 90.1408 214.846 87.3667C213.968 84.8518 214.838 78.068 215.233 75.4375C219.218 74.9506 224.951 73.5848 227.899 69.6555C227.899 69.6555 224.959 79.7527 230.359 81.6882C230.686 81.8099 229.886 88.0593 229.81 88.7483C229.131 94.9563 228.122 97.403 230.296 98.1139C230.591 98.1931 231.778 98.4304 232.167 98.501C228.212 102.396 223.319 102.595 218.544 98.0141C218.666 98.0141 218.788 98.0348 218.909 98.0348C220.759 98.0348 221.535 97.4846 220.901 95.5102C220.562 94.4548 220.069 95.201 219.823 96.2406C217.827 96.019 213.38 95.1925 211.264 96.1797C210.656 96.4645 210.615 96.7469 211.224 96.9734C213.101 97.4322 215.012 97.7456 216.937 97.9106C222.651 104.038 228.869 103.705 233.364 98.7859C235.668 99.5372 237.759 100.828 239.464 102.552C251.812 114.81 245.246 137.407 228.81 137.203C218.011 137.068 207.911 127.726 202.42 118.457C200.233 114.315 198.449 109.972 197.093 105.488C196.095 102.34 195.691 100.541 195.528 100.419C195.385 100.277 195.469 101.824 196.199 105.142C200.783 125.995 215.013 137.534 226.553 139.06C235.899 140.297 244.452 134.016 247.108 125.359C250.689 113.706 243.253 98.6288 232.168 97.022ZM226.191 66.5649C225.508 67.822 224.557 68.9133 223.406 69.7614C221.844 70.987 220.102 71.9623 218.242 72.6524C216.956 73.1757 215.584 73.452 214.196 73.4668C213.383 73.4059 213.424 73.1235 214.075 72.6926C215.306 71.877 218.694 70.5745 222.492 68.0925C224.405 66.8412 227.04 64.6525 226.191 66.5649Z" fill="#263238"/>
<path d="M198.439 96.6959C199.008 97.5309 199.361 98.4001 199.7 98.8334C200.814 100.256 201.28 96.1481 198.947 94.2735C197.209 92.881 194.915 93.2023 194.149 94.1713C193.798 94.6156 193.967 94.8554 194.392 94.9248C195.242 95.0635 197.238 94.9357 198.439 96.6959Z" fill="#263238"/>
<path d="M197.483 91.5858C198.1 91.4648 198.738 91.5068 199.333 91.7075C201.346 92.4634 201.502 94.3989 201.915 95.7792C202.066 96.2856 202.308 96.4755 202.668 96.0032C203.056 95.3085 203.232 94.5149 203.174 93.721C203.116 92.9271 202.826 92.1676 202.341 91.5369C201.857 90.9061 201.197 90.4317 200.446 90.1725C199.694 89.9133 198.883 89.8807 198.113 90.0788C197.842 90.1976 197.6 90.3737 197.404 90.595C197.208 90.8162 197.061 91.0774 196.975 91.3606C196.975 91.5042 197.157 91.6052 197.483 91.5858Z" fill="#263238"/>
<path d="M200.147 88.1046C200.268 88.2069 200.492 87.3937 200.39 85.9269C200.34 85.1965 200.248 84.2568 200.248 83.3414C200.255 82.9728 200.345 82.6107 200.513 82.2824C200.575 82.2435 200.553 82.2617 200.634 82.2617C201.139 82.2617 201.531 83.1552 201.728 83.6263C203.988 88.9323 203.602 94.4709 205.774 100.668C209.191 110.406 215.604 116.333 221.796 118.4C222.625 118.698 223.474 118.936 224.337 119.112C225.089 119.333 225.881 119.382 226.655 119.256C226.88 118.916 223.213 118.223 219.438 115.794C212.641 111.421 208.225 103.661 206.507 95.7819C205.674 91.9646 205.324 88.4929 204.168 85.3134C203.728 83.817 202.957 82.4391 201.912 81.2818C201.583 81.014 201.167 80.8764 200.744 80.8953C200.32 80.9141 199.918 81.0881 199.614 81.3841C198.754 82.5222 199.218 84.2641 199.594 85.8222C199.737 86.5925 199.921 87.3544 200.147 88.1046Z" fill="#263238"/>
<path d="M257.261 96.5742C257.019 96.0151 256.626 95.5343 256.127 95.1857C255.628 94.837 255.042 94.6342 254.434 94.5998C249.017 93.6077 237.051 91.9011 244.37 93.8865C246.079 94.3503 248.594 94.881 251.664 95.6174C253.074 95.9546 255.364 96.2078 255.588 96.9564C256.174 98.0227 255.116 100.634 252.396 128.288C248.235 170.595 253.102 144.842 257.092 103.023C257.444 99.3678 257.715 97.8182 257.261 96.5742Z" fill="#263238"/>
<path d="M225.113 79.5947C223.957 79.1589 222.45 80.7353 222.45 80.7353L226.556 80.3701C226.137 80.0101 225.645 79.7456 225.113 79.5947Z" fill="#263238"/>
<path d="M216.228 79.3304L219.421 80.5318C219.421 80.5318 218.058 77.9866 216.228 79.3304Z" fill="#263238"/>
<path d="M219.502 78.0072C219.42 75.5021 216.452 76.3578 216.086 76.9117C216.024 76.9915 215.987 77.0885 215.982 77.1896C215.976 77.2908 216.001 77.3914 216.054 77.4778C216.107 77.5642 216.185 77.6323 216.278 77.673C216.37 77.7136 216.473 77.7249 216.573 77.7053C218.879 76.2592 219.528 78.8009 219.502 78.0072Z" fill="#263238"/>
<path d="M226.252 78.8217C226.341 78.8881 226.447 78.9259 226.557 78.9298C226.668 78.9337 226.777 78.9037 226.869 78.8437C226.962 78.7837 227.034 78.6967 227.076 78.5944C227.118 78.4921 227.127 78.3794 227.103 78.2715C227.002 77.5789 224.497 75.3793 223.24 77.7627C222.835 78.5357 224.695 76.3446 226.252 78.8217Z" fill="#263238"/>
<path d="M220.823 85.4581C221.533 85.6102 221.576 84.4404 221.332 84.2566C221.068 84.0935 219.726 83.6054 219.644 83.4629C219.563 83.3205 221.413 80.3479 221.068 79.7576C221.068 79.7576 218.556 82.6267 218.465 83.3205C218.374 84.0144 220.11 85.3047 220.823 85.4581Z" fill="#263238"/>
<path d="M223.995 87.962C224.085 87.848 224.134 87.707 224.135 87.5617C224.135 87.4164 224.087 87.2751 223.998 87.1603C223.909 87.0455 223.785 86.9639 223.644 86.9285C223.503 86.8931 223.354 86.906 223.222 86.965C219.996 89.5323 218.846 86.0898 218.953 87.189C219.287 90.6716 223.52 88.8129 223.995 87.962Z" fill="#263238"/>
<path d="M69.2128 59.5827C74.165 52.5457 81.6769 47.7353 90.1337 46.1855C91.0685 47.9372 93.9325 52.4045 99.1402 53.8409C104.118 55.214 109.163 53.1288 113.25 50.3595C120.308 52.695 126.597 56.9106 131.443 62.5541C132.659 64.0379 133.07 64.0817 132.196 62.2692C127.918 53.3917 117.805 48.9073 108.615 47.1666C107.537 46.9621 106.536 46.9037 106.439 46.4752C106.142 45.174 106.089 43.8289 105.849 42.5252C105.498 40.6129 105.213 40.4291 105.057 42.4035C104.975 43.3441 104.941 44.2883 104.955 45.2324C104.852 46.0296 104.994 46.8391 105.362 47.5537C106.286 48.8379 108.93 48.6992 111.542 49.8142C103.423 55.1531 95.965 53.27 91.6787 46.0066C92.7122 45.8995 93.7505 45.8451 94.7895 45.8435C95.0545 31.1474 95.1347 31.9569 94.8296 31.3483C94.7257 31.1686 94.5855 31.0125 94.4181 30.8899C94.2507 30.7673 94.0597 30.6809 93.8571 30.6362C93.6652 30.6073 93.4752 30.5666 93.2882 30.5144C93.0143 30.3993 92.7665 30.2298 92.5597 30.0162C92.353 29.8026 92.1915 29.5493 92.0851 29.2716C91.9787 28.9939 91.9295 28.6974 91.9405 28.4002C91.9515 28.1029 92.0225 27.811 92.1492 27.5419C92.4097 27.1238 92.7676 26.775 93.1921 26.5256C93.6166 26.2761 94.0951 26.1333 94.5867 26.1094C95.0783 26.0854 95.5684 26.1811 96.0151 26.3882C96.4617 26.5952 96.8516 26.9076 97.1515 27.2984C97.6505 27.9719 98.0668 28.7031 98.3914 29.4761C99.2861 30.8808 101.198 28.624 100.363 25.7915C99.3907 22.4927 95.5237 19.0965 98.1471 16.8336C100.465 14.8385 107.398 16.976 110.407 17.3631C112.05 22.1348 116.485 29.61 113.559 34.1991C111.918 36.7724 109.411 37.56 106.361 37.6196C103.783 37.6707 101.411 37.1461 101.218 37.437C101.136 37.5588 101.482 37.7827 102.336 38.1284C108.364 40.5727 115.301 38.58 116.465 32.4487C117.379 27.6417 114.108 21.5529 111.481 17.424C113.595 16.8543 117.417 4.10953 103.206 0.607454C88.7503 -2.95913 80.1437 10.1301 78.9511 15.1599C77.6468 20.6303 80.7648 28.4086 83.4258 31.0391C85.8498 33.4371 88.7527 36.5764 93.1241 35.3957C93.1034 35.8436 92.9004 41.4431 92.819 43.8861C88.3171 44.1072 83.9276 45.3692 79.9942 47.5732C76.0609 49.7771 72.6906 52.8632 70.1476 56.5895C69.6007 57.3452 69.1242 58.1495 68.7241 58.9924C67.3212 61.6996 67.4282 62.0696 69.2128 59.5827ZM84.5017 16.8287C84.4862 17.1972 84.359 17.5522 84.137 17.8464C83.7905 17.6833 83.7565 17.2377 83.6896 16.8726C82.9603 12.8714 85.462 9.46671 88.467 7.18191C91.9469 4.57293 96.2812 3.37369 100.605 3.82347C101.041 3.86247 101.471 3.95109 101.886 4.08762C103.238 4.52827 103.005 4.76198 101.682 4.8618C93.8802 5.44365 85.789 8.89216 84.5017 16.8287Z" fill="#263238"/>
<path d="M137.201 95.5566C137.541 94.6375 138.052 91.3619 137.343 92.4817C135.963 96.0425 133.521 99.0912 130.35 101.213C119.075 109.072 92.01 112.155 78.2808 95.9789C80.4154 100.58 84.6227 103.962 89.2214 106.118C98.3483 110.397 109.025 110.334 118.824 107.991C123.035 107.133 127.035 105.451 130.595 103.043C133.276 101.091 136.063 98.6241 137.201 95.5566Z" fill="#263238"/>
<path d="M123.785 85.0103C121.68 85.9318 119.902 88.4053 119.902 92.2993C115.845 93.1112 95.517 87.933 88.8566 77.3148C87.3309 74.8802 87.083 73.3392 86.762 73.2637C86.3268 73.1602 86.4314 83.4583 103.538 90.5489C108.193 92.5141 113.138 93.704 118.176 94.0716C119.051 94.0863 120.429 94.1934 121.105 93.5007C121.811 92.7838 121.394 91.3097 121.491 90.3858C121.573 89.3292 121.91 88.3084 122.473 87.4112C123.036 86.514 123.808 85.7673 124.724 85.2355C124.905 85.1308 125.761 84.8484 125.818 84.6269C125.897 84.5831 125.184 84.3968 123.785 85.0103Z" fill="#263238"/>
<path d="M127.665 93.0111C125.214 97.5759 129.245 95.291 130.613 91.8096C131.716 89.0026 130.792 87.1852 127.665 93.0111Z" fill="#263238"/>
<path d="M131.264 97.4094C132 97.2178 132.665 96.8141 133.174 96.2481C135.363 94.057 136.045 90.3578 134.74 91.0772C133.928 91.5263 132.816 93.3218 131.853 94.9043C131.09 96.1605 130.228 97.5421 131.264 97.4094Z" fill="#263238"/>
<path d="M126.465 76.3978V90.2417C126.465 90.3114 126.478 90.3805 126.505 90.445C126.531 90.5094 126.57 90.568 126.619 90.6173C126.668 90.6665 126.727 90.7055 126.791 90.7319C126.856 90.7584 126.925 90.7717 126.994 90.7713C127.134 90.7688 127.267 90.7122 127.365 90.6134C127.464 90.5146 127.52 90.3814 127.523 90.2417C127.523 75.1586 127.449 76.2688 127.686 76.0314C127.929 75.8281 126.87 75.9961 146.675 74.057C146.751 74.0566 146.826 74.0719 146.895 74.102C146.965 74.1321 147.027 74.1763 147.079 74.2318C147.13 74.2872 147.17 74.3528 147.194 74.4244C147.219 74.4959 147.229 74.5718 147.223 74.6474L143.747 102.888C143.707 103.173 143.462 103.355 143.077 103.355L130.532 105.392C130.462 105.403 130.396 105.427 130.335 105.463C130.275 105.5 130.223 105.548 130.182 105.605C130.14 105.661 130.11 105.726 130.093 105.794C130.077 105.862 130.074 105.933 130.084 106.003C130.095 106.072 130.119 106.139 130.156 106.199C130.192 106.259 130.24 106.312 130.297 106.353C130.353 106.395 130.418 106.425 130.486 106.442C130.554 106.458 130.625 106.462 130.694 106.451L143.138 104.414C143.54 104.431 143.935 104.296 144.243 104.036C144.552 103.776 144.752 103.41 144.804 103.01L148.281 74.7691C148.308 74.5411 148.286 74.31 148.216 74.0913C148.147 73.8726 148.031 73.6715 147.876 73.5017C147.722 73.3318 147.533 73.1972 147.322 73.1069C147.111 73.0167 146.884 72.9729 146.654 72.9785L128.153 74.7898C127.936 74.7825 127.72 74.8185 127.517 74.8957C127.315 74.9729 127.129 75.0898 126.972 75.2395C126.815 75.3892 126.689 75.5687 126.602 75.7676C126.515 75.9665 126.469 76.1807 126.465 76.3978Z" fill="#263238"/>
<path d="M248.067 154.043C247.763 153.684 247.398 153.38 246.99 153.147C241.302 149.562 234.938 145.027 233.124 144.25C233.69 144.789 234.295 145.286 234.933 145.736C246.303 154.153 247.447 154.242 247.356 155.182C247.299 155.772 246.603 155.932 246.116 155.895C245.078 155.817 39.716 156.237 37.6579 156.2C36.8836 156.326 36.0894 156.212 35.3811 155.875C35.0976 155.674 34.8705 155.404 34.7215 155.09C34.5725 154.776 34.5066 154.429 34.5301 154.083C34.5675 153.771 34.6724 153.471 34.8374 153.204C35.0024 152.936 35.2236 152.708 35.4856 152.536C36.3803 151.761 37.1644 151.139 37.8232 150.643C38.8468 149.871 39.4911 149.38 39.7549 149.115C45.3739 151.595 51.6658 152.097 57.6063 150.541C62.6001 149.323 72.5512 145.363 65.1894 147.222C63.3818 147.679 60.756 148.457 57.5443 149.048C48.3518 150.758 36.7729 148.208 31.3172 139.906C26.2626 132.229 28.4143 120.519 34.4462 113.873C35.1708 113.186 35.8562 112.459 36.4994 111.695C36.5493 111.343 31.9761 113.605 29.1595 119.634C23.6247 131.49 26.6565 143.028 38.9343 148.713C38.1211 149.304 36.61 150.618 35.8235 151.197C35.3084 151.53 34.8311 151.919 34.4 152.357C34.1533 152.68 33.9758 153.051 33.8786 153.446C33.7813 153.842 33.7665 154.253 33.8349 154.654C33.9033 155.055 34.0536 155.438 34.2763 155.778C34.4991 156.119 34.7895 156.41 35.1294 156.633C39.1021 159.367 224.76 157.179 245.966 157.039C246.436 157.063 246.905 156.994 247.348 156.836C247.609 156.731 247.841 156.567 248.026 156.356C248.211 156.145 248.343 155.893 248.413 155.621C248.483 155.349 248.488 155.065 248.428 154.791C248.368 154.516 248.244 154.26 248.067 154.043Z" fill="#263238"/>
<path d="M150.884 113.778C154.1 121.933 158.069 129.897 161.903 137.758C164.185 142.437 164.658 142.851 162.798 137.859C160.414 131.463 158.03 125.854 155.194 119.028C154.951 118.438 152.815 112.614 152.55 112.655C153.018 112.593 154.544 112.316 155.56 112.208C167.076 110.978 178.519 109.467 190.084 108.99C191.294 108.94 191.192 108.932 191.405 109.355C195.24 117.018 198.628 124.896 201.551 132.951C203.496 137.791 203.912 138.143 202.446 133.114C199.97 124.624 197.17 116.048 192.93 108.236C192.681 107.832 192.325 107.505 191.901 107.293C191.478 107.081 191.003 106.992 190.531 107.035C178.604 107.514 166.708 108.601 154.89 110.293C153.569 110.501 151.043 110.469 150.636 112.104C150.545 112.674 150.631 113.259 150.884 113.778Z" fill="#263238"/>
<path d="M222.043 144.702C205.153 147.955 183.712 150.558 182.601 150.443C181.672 150.258 180.77 149.957 179.917 149.547C177.642 148.686 166.822 144.645 164.73 143.928C155.134 140.641 167.449 146.165 177.456 150.403C178.951 151.158 180.518 151.759 182.135 152.194C184.639 152.673 208.469 149.526 219.952 147.082C222.215 146.595 225.827 146.397 225.827 144.903C225.793 144.647 225.684 144.406 225.514 144.211C225.344 144.017 225.121 143.876 224.872 143.807C222.273 142.841 219.523 142.14 216.881 141.323C200.369 136.225 198.093 136.32 222.043 144.702Z" fill="#263238"/>
<path d="M171.802 142.341C181.911 141.864 200.919 136.93 201.019 136.233C201.059 136.09 200.632 136.01 199.697 136.029C193.198 136.163 182.898 138.971 168.041 141.466C164.5 142.06 168.386 142.502 171.802 142.341Z" fill="#263238"/>
<path d="M110.037 28.759C109.457 29.5721 110.376 29.6269 111.318 29.3286C111.567 29.2577 111.811 29.1694 112.048 29.0645C112.284 28.9373 112.474 28.7406 112.594 28.501C112.714 28.2614 112.758 27.9907 112.719 27.7255C112.284 26.4125 111.67 25.1656 110.895 24.0201C109.608 22.0567 108.516 21.3129 108.476 22.3513C108.416 23.8887 110.224 27.0256 110.854 27.9081C110.542 28.1509 110.267 28.4375 110.037 28.759Z" fill="#263238"/>
<path d="M106.358 25.033C106.645 24.8748 106.642 24.2601 106.318 23.649C105.993 23.038 105.504 22.7129 105.223 22.8748C104.943 23.0367 104.943 23.6466 105.264 24.2601C105.569 24.848 106.055 25.201 106.358 25.033Z" fill="#263238"/>
<path d="M101.702 22.7739C101.865 23.9339 103.026 23.8329 103.126 23.4251C104.22 18.9504 107.762 22.0606 106.866 20.9212C104.082 17.3765 101.539 21.6126 101.702 22.7739Z" fill="#263238"/>
<path d="M105.992 31.6088C105.585 31.4701 105.24 31.4055 105.321 32.0166C105.43 32.4136 105.665 32.7639 105.992 33.0135C106.427 33.3233 106.918 33.5439 107.438 33.6628C107.958 33.7817 108.496 33.7964 109.021 33.7062C111.574 33.386 113.155 30.8967 111.868 30.8967C111.27 30.9785 110.683 31.1288 110.119 31.3447C108.791 31.7976 107.367 31.8888 105.992 31.6088Z" fill="#263238"/>
<path d="M178.717 66.4835C182.455 79.647 189.258 96.5098 188.191 90.4868C187.282 85.3511 182.856 72.6818 180.364 66.4434L178.717 66.4835Z" fill="#F4F4F4"/>
<path d="M158.651 90.2577C161.254 85.5737 165.611 72.8289 167.23 66.8862L165.339 66.9678C162.977 73.5812 155.212 96.4475 158.651 90.2577Z" fill="#F4F4F4"/>
<path d="M175.505 8.25801C176.38 10.2546 177.357 12.2048 178.432 14.1009H180.385C180.1 14.1009 179.158 11.4777 179.022 11.1892C178.384 9.83924 177.762 8.48077 177.234 7.09674C176.929 6.30308 176.626 4.89592 175.586 4.77663C174.326 4.63056 173.933 6.44429 173.655 7.32072C172.947 9.55562 172.318 11.8246 171.744 14.1009H173.533C173.699 13.631 175.246 8.98472 175.505 8.25801Z" fill="#F4F4F4"/>
<path d="M112.274 146.718C102.589 146.885 73.5577 153.08 73.1164 152.947C69.4233 151.845 60.7012 147.753 65.7157 150.973C68.0377 152.425 70.504 153.633 73.0751 154.576C75.1416 154.748 96.3737 150.694 98.4087 150.301C111.264 147.816 117.561 146.627 112.274 146.718Z" fill="#263238"/>
<path d="M59.843 93.9474C63.0097 97.8134 68.9115 96.2286 71.9202 93.0722C73.2718 91.5854 74.2975 89.8316 74.9313 87.9238C75.5651 86.0159 75.7928 83.9964 75.5999 81.9951C75.341 79.9854 74.8049 78.4991 74.563 80.5344C74.0463 84.869 72.9754 89.6931 69.4197 92.5853C68.2646 93.5772 66.8472 94.2127 65.3389 94.4149C63.8307 94.6171 62.2962 94.3774 60.9212 93.7246C60.6696 93.6029 59.116 92.315 59.4163 93.2158C59.53 93.4753 59.6732 93.7207 59.843 93.9474Z" fill="#263238"/>
<path d="M74.0514 90.0802C73.9542 90.2653 73.8302 90.4272 73.7269 90.6085C73.247 91.5202 72.6372 92.3571 71.9168 93.093C70.8908 94.1237 69.6756 94.9463 68.338 95.5153C68.2979 97.1647 68.5215 100.019 68.7027 101.888C68.4302 102.034 68.1455 102.156 67.8517 102.253C63.6639 103.373 60.9567 98.7326 59.2925 95.8014C56.9707 91.7114 53.5535 80.3421 65.0461 74.8523C68.806 73.058 71.6919 74.6088 73.829 76.8474C73.9008 76.9235 73.9945 76.9756 74.0971 76.9963C74.1997 77.0171 74.3062 77.0055 74.402 76.9632C74.4977 76.921 74.5781 76.85 74.632 76.7602C74.6859 76.6704 74.7107 76.566 74.703 76.4615C72.7993 60.6371 57.3378 61.976 51.6268 64.979C35.8419 73.2686 42.2956 96.3723 43.7592 100.24C45.2229 104.107 43.6985 103.783 43.6985 103.783C36.9481 107.202 35.1587 109.483 35.1587 109.483L45.2229 112.578C78.9528 121.23 75.3132 97.1246 74.3578 89.4497C74.2389 89.6513 74.1364 89.8622 74.0514 90.0802ZM54.6354 67.9504C54.2564 68.109 53.8951 68.3068 53.5572 68.5408C53.0836 68.7867 52.6401 69.0869 52.2358 69.4354C51.7132 69.8146 51.2417 70.2598 50.833 70.7598C50.5733 71.0185 50.3418 71.3042 50.1425 71.6119C49.9383 71.9381 49.6951 72.2437 49.4909 72.5857C46.4774 77.6897 46.695 86.1327 46.5029 89.0967C46.2865 92.3139 44.7828 87.0821 45.0186 81.5643C45.235 76.4785 47.0378 70.5152 51.504 68.1269C52.4299 67.579 53.4634 67.2389 54.5333 67.1299C56.0176 67.0082 55.8596 67.3734 54.6354 67.9504Z" fill="#263238"/>
<path d="M71.7744 93.1958L72.0186 92.9517C71.9685 93.0506 71.8452 93.125 71.7744 93.1958Z" fill="#263238"/>
<path d="M64.7807 81.7368C64.8196 81.2889 64.6373 80.903 64.3735 80.8847C64.1097 80.8665 63.8654 81.211 63.824 81.6577C63.7329 82.7033 64.6811 82.8506 64.7807 81.7368Z" fill="#263238"/>
<path d="M70.4931 81.3862C70.453 81.8549 70.656 82.2383 70.9198 82.2614C71.1836 82.2846 71.4401 81.9145 71.4693 81.4678C71.5009 80.9991 71.3064 80.6157 71.0426 80.5925C70.7982 80.5512 70.5405 80.9176 70.4931 81.3862Z" fill="#263238"/>
<path d="M72.914 78.6378C72.649 77.8648 69.379 75.9111 68.4806 78.9433C68.1974 79.9001 69.8032 76.947 72.0801 79.4521C72.2831 79.6761 73.1778 79.412 72.914 78.6378Z" fill="#263238"/>
<path d="M62.5028 79.9001C64.8818 77.4778 66.3685 80.4284 66.1217 79.4729C65.3389 76.437 61.9886 78.2885 61.6896 79.0651C61.3905 79.8417 62.3022 80.1059 62.5028 79.9001Z" fill="#263238"/>
<path d="M44.7949 130.512C47.4238 131.821 50.2832 132.603 53.2119 132.812C62.5151 133.003 68.0182 130.865 73.9699 130.411C74.3213 130.384 75.2366 130.372 75.2913 130.207C75.3533 130.086 75.03 129.874 74.173 129.636C72.994 129.365 71.7825 129.262 70.5747 129.331C66.7844 129.46 55.5787 131.392 50.8743 130.817C50.8704 130.755 50.8565 130.693 50.8329 130.635C50.3649 129.538 50.1235 128.358 50.1235 127.165C50.1235 125.973 50.3649 124.793 50.8329 123.696C50.8835 123.569 50.884 123.427 50.8343 123.299C50.7845 123.171 50.6882 123.067 50.5649 123.008C50.4415 122.948 50.3002 122.938 50.1695 122.979C50.0387 123.02 49.9283 123.108 49.8604 123.228C48.8393 125.58 48.7739 128.238 49.6781 130.638C48.4625 130.456 46.013 129.908 45.1438 129.803C43.5355 129.607 43.3313 129.86 44.7949 130.512Z" fill="#263238"/>
<path d="M68.5005 87.2289C69.067 85.8753 68.4215 80.7617 67.8501 82.1165C67.2581 83.5236 67.962 88.5168 68.5005 87.2289Z" fill="#263238"/>
<path d="M63.5813 89.2036C62.9941 88.9102 63.1096 89.8755 63.9058 90.3649C64.2823 90.6237 64.7234 90.7722 65.1795 90.7937C65.6357 90.8152 66.0888 90.7089 66.4878 90.4866C67.0215 89.9534 65.6794 89.99 64.4553 89.57C64.1494 89.4861 63.8556 89.363 63.5813 89.2036Z" fill="#263238"/>
<path d="M115.974 142.931C118.264 135.471 121.91 121.325 124.067 113.207C124.148 112.891 124.151 112.56 124.075 112.242C124 111.925 123.849 111.631 123.635 111.385C123.421 111.139 123.15 110.949 122.846 110.831C122.542 110.713 122.214 110.671 121.891 110.708C108.173 112.237 98.2941 113.475 86.2096 114.882C84.887 115.035 84.4287 114.966 83.709 116.735C80.1448 125.49 74.6088 142.369 72.5666 148.535C72.4914 148.755 72.4787 148.991 72.5298 149.218C72.5809 149.445 72.6938 149.654 72.856 149.82C73.0182 149.987 73.2234 150.105 73.4487 150.162C73.674 150.219 73.9106 150.212 74.1323 150.143C74.1323 150.143 111.626 144.543 114.145 144.28C115.462 144.135 115.684 143.877 115.974 142.931ZM104.528 117.32C99.0026 118.925 93.3491 120.049 87.6306 120.679C87.4325 120.679 87.235 120.699 87.041 120.739C86.7371 121.044 83.7345 131.707 82.8945 131.286C82.6089 131.143 82.9298 129.697 82.9553 129.494C83.3075 126.312 84.0308 123.183 85.1106 120.17C85.8655 118.197 88.3029 118.587 90.0096 118.359C95.2915 117.646 100.761 116.266 104.608 116.525C106.255 116.637 106.075 116.916 104.528 117.32Z" fill="#F4F4F4"/>
<path d="M125.73 124.341C132.902 125.511 157.58 124.079 151.165 123.018C144.025 121.836 119.34 123.299 125.73 124.341Z" fill="#263238"/>
</g>
<defs>
<clipPath id="clip0_2780_16464">
<rect width="285" height="158" fill="white"/>
</clipPath>
</defs>
</svg>
