<svg width="285" height="158" viewBox="0 0 285 158" fill="none" xmlns="http://www.w3.org/2000/svg">
<g clip-path="url(#clip0_1221_7887)">
<path d="M96.9319 134.871C96.0542 133.715 95.3189 132.457 94.7416 131.125C94.4386 129.522 94.309 127.891 94.3551 126.26C94.5525 124.846 94.6567 123.42 94.6669 121.992C94.6641 121.875 94.6196 121.763 94.5413 121.676C94.4631 121.589 94.3562 121.532 94.24 121.517C94.1238 121.501 94.0059 121.528 93.9075 121.591C93.8091 121.655 93.7366 121.751 93.7031 121.864C93.1202 123.56 92.8466 125.347 92.8953 127.14C89.9763 131.975 86.0609 136.134 81.4089 139.342C77.7013 136.734 74.5195 133.45 72.0305 129.663C71.7444 126.516 71.756 123.367 71.6143 120.168C71.5898 119.621 70.7124 119.44 70.5977 120.039C70.0587 123.407 70.0413 126.838 70.5462 130.212C70.1116 132.68 69.0215 134.987 67.3897 136.891C65.758 138.795 63.6443 140.226 61.2695 141.036C61.3984 141.451 64.9235 167.592 65.3603 168.015C65.7971 168.438 95.9282 169.73 96.097 168.015C96.2658 166.3 105.992 139.529 105.992 139.529C104.247 139.398 102.545 138.919 100.989 138.119C99.4322 137.319 98.0527 136.214 96.9319 134.871ZM87.7635 156.57C85.6603 155.876 83.7257 154.751 82.0841 153.266C81.722 152.951 82.2129 152.301 82.6059 152.589C84.3232 153.834 86.1647 154.898 88.101 155.764C88.5455 155.97 88.2299 156.708 87.7635 156.57Z" fill="#3F3F3F"/>
<path d="M80.3913 106.798C80.3651 106.855 80.3516 106.917 80.3516 106.98C80.3516 107.043 80.3651 107.105 80.3913 107.162C80.9711 108.55 81.7467 111.615 83.8817 111.065C85.889 110.551 86.3825 107.372 86.4083 105.68C86.4062 105.601 86.3865 105.525 86.3507 105.455C86.3149 105.385 86.2639 105.324 86.2015 105.277C86.139 105.23 86.0668 105.197 85.9899 105.181C85.9131 105.165 85.8337 105.167 85.7576 105.186C84.0254 105.467 82.3181 105.884 80.6516 106.434C80.5769 106.462 80.5123 106.512 80.4659 106.576C80.4196 106.641 80.3936 106.718 80.3913 106.798ZM85.3402 106.252C85.1843 107.553 84.7153 109.812 83.4397 109.843C82.4747 109.865 81.7454 108.073 81.3035 107.111C82.6576 106.825 83.986 106.434 85.3402 106.252Z" fill="#BFBFBF"/>
<path d="M81.6942 95.5584C81.747 95.1427 81.0409 95.0436 80.9649 95.4541C80.7253 96.7552 80.4934 98.0279 80.2872 99.3315C80.0841 100.174 79.988 101.039 80.0012 101.905C80.1687 103.599 81.4855 104.117 83.0483 104.013C83.8304 103.962 83.8304 102.742 83.0483 102.791C82.1632 102.846 81.1389 102.555 81.0693 101.541C81.0332 101.025 81.6774 95.6883 81.6942 95.5584Z" fill="#BFBFBF"/>
<path d="M84.3475 92.8791C83.8811 93.0915 84.2444 93.6912 84.6606 93.6332C87.7734 93.2034 88.1664 94.0193 89.5051 93.8675C89.6009 93.8656 89.694 93.8358 89.7729 93.7816C89.8519 93.7274 89.9132 93.6513 89.9492 93.5627C89.9853 93.4741 89.9945 93.3768 89.9758 93.283C89.9571 93.1892 89.9113 93.1029 89.844 93.0348C88.5594 91.6656 85.8679 92.1894 84.3475 92.8791Z" fill="#BFBFBF"/>
<path d="M81.0161 92.1805C80.2491 91.7605 79.3996 91.5126 78.5269 91.4541C77.6541 91.3957 76.7791 91.5281 75.9629 91.8421C75.4707 92.1072 75.7541 92.7622 76.2206 92.8046C77.7014 92.6808 79.1924 92.7675 80.6489 93.062C81.1475 93.1869 81.5366 92.4121 81.0161 92.1805Z" fill="#BFBFBF"/>
<path d="M83.9863 90.7455C84.0113 90.7967 84.0113 90.8217 83.9863 90.7455V90.7455Z" fill="#BFBFBF"/>
<path d="M49.5669 60.0505C50.6291 60.0664 51.6742 59.8042 52.5795 59.2949C53.4848 58.7856 54.2127 58.0503 54.6777 57.1752C55.0937 56.1975 55.2809 55.1507 55.2272 54.1026C55.1735 53.0545 54.8801 52.0283 54.3659 51.0907C54.1093 50.6123 53.3509 50.9731 53.4574 51.4433C54.0193 52.976 54.1081 54.6211 53.7141 56.1971C53.4088 56.992 52.8321 57.6756 52.0693 58.1466C51.3065 58.6175 50.3984 58.8507 49.4796 58.8115C49.4478 58.724 49.3833 58.6496 49.2974 58.6016C49.2115 58.5535 49.1098 58.5349 49.0103 58.549C48.9108 58.563 48.82 58.609 48.7539 58.6785C48.6879 58.7481 48.6508 58.8368 48.6494 58.929C48.3414 78.3122 51.5404 109.988 68.2357 121.98C68.6733 122.294 69.2777 121.763 68.8594 121.41C52.0575 107.265 50.5652 81.0029 49.5669 60.0505Z" fill="#BFBFBF"/>
<path d="M40.2973 59.4562C40.3249 59.3646 40.3115 59.2668 40.2599 59.1843C40.2083 59.1017 40.1229 59.0412 40.0223 59.0161C39.9217 58.9909 39.8143 59.0032 39.7236 59.0501C39.633 59.0971 39.5665 59.1749 39.5389 59.2665C35.7063 72.8386 35.3869 87.0356 38.6061 100.739C41.8252 114.443 48.4949 127.279 58.0899 138.236C58.3811 138.568 59.0294 138.119 58.7434 137.784C40.5147 116.468 32.2992 87.2249 40.2973 59.4562Z" fill="#BFBFBF"/>
<path d="M128.663 60.0364C128.609 59.7026 128.059 59.7026 127.902 59.9409C126.963 59.9409 124.875 60.4067 123.353 59.4408C122.974 59.1867 122.69 58.8332 122.54 58.428C122.389 58.0229 122.38 57.5856 122.512 57.1753C122.666 56.5314 123.298 54.9063 124.14 54.6716C124.248 54.6431 124.339 54.5769 124.394 54.4874C124.448 54.3979 124.461 54.2926 124.429 54.1945C124.398 54.0965 124.325 54.0137 124.226 53.9645C124.128 53.9153 124.012 53.9037 123.904 53.9321C122.851 54.168 122.305 55.1987 121.854 56.0066C120.223 58.9325 122.14 61.8797 127.898 61.1332C128.633 68.8578 127.315 76.8183 125.375 84.3331C122.173 96.7338 115.913 111.132 104.117 118.238C103.652 114.607 103.451 110.952 103.515 107.297C103.634 100.905 102.273 94.5608 99.5212 88.6754C96.8165 83.5453 90.7196 85.8332 90.7196 85.8332C86.2265 82.7811 75.8471 81.7798 71.224 84.2364C66.6009 86.6929 70.6196 90.7935 70.6196 90.7935C70.087 91.3809 69.8294 92.1345 69.9023 92.8924C69.9752 93.6503 70.3727 94.352 71.0095 94.8469C71.6776 95.3102 72.4632 95.6142 73.2942 95.7308C74.1253 95.8474 74.9753 95.773 75.7665 95.5144C77.369 95.0615 84.1483 92.9387 87.4066 90.5541C87.4627 90.5085 87.5316 90.4778 87.6056 90.4653C87.6797 90.4528 87.756 90.459 87.8264 90.4833C88.011 90.5305 88.0864 90.7192 88.1423 90.8642C88.6072 92.0299 89.4315 93.0497 90.5171 93.8024C91.6026 94.5551 92.9036 95.0089 94.2652 95.1098C93.7661 96.5168 92.6601 98.3283 92.0843 100.022C91.5566 101.57 93.1877 102.428 94.9436 102.477C95.1754 102.488 95.4018 102.545 95.6065 102.644C95.8111 102.743 95.989 102.882 96.1272 103.052C96.2654 103.221 96.3606 103.416 96.4058 103.622C96.4511 103.829 96.4453 104.042 96.3889 104.246C95.2114 108.117 93.1046 108.108 92.1324 107.322C90.2127 120.27 89.7786 122.157 90.3258 122.791C90.7378 123.275 91.6658 123.048 92.1922 122.982C94.7572 122.627 97.2754 122.035 99.7071 121.213C99.7693 121.217 99.8317 121.209 99.8903 121.19C122.184 114.107 131.254 75.5105 128.663 60.0364ZM83.284 87.384C81.5036 86.6417 79.6342 86.0897 77.7134 85.7388C75.5312 85.5301 72.3846 86.0478 72.5887 88.6483C72.6199 89.0292 71.8829 89.12 71.8271 88.7438C71.0147 83.2528 80.9978 84.3331 83.7571 86.6693C84.1249 86.9311 83.7597 87.5302 83.284 87.384Z" fill="#BFBFBF"/>
<path d="M137.032 61.3958C137.026 61.2991 136.98 61.2082 136.903 61.1416C136.827 61.0751 136.725 61.038 136.619 61.038C136.514 61.038 136.412 61.0751 136.335 61.1416C136.259 61.2082 136.213 61.2991 136.207 61.3958C136.163 66.1123 137.482 73.2075 137.213 82.6522C136.54 106.672 127.693 122.265 112.943 135.591C112.501 135.989 113.152 136.564 113.614 136.205C124.913 127.442 132.312 115.091 135.722 101.945C140.507 83.4767 137.059 66.9988 137.032 61.3958Z" fill="#BFBFBF"/>
<path d="M80.997 114.186C80.9172 113.588 80.0951 113.822 80.0333 114.315C79.9365 115.816 79.9628 117.322 80.1119 118.819C80.1756 119.135 80.2016 119.459 80.1892 119.781C80.0848 120.016 78.6792 119.987 78.3403 120.016C77.115 120.115 75.9181 120.209 74.6928 120.273C74.5795 120.279 74.4729 120.328 74.3949 120.41C74.3169 120.493 74.2734 120.602 74.2734 120.715C74.2734 120.828 74.3169 120.937 74.3949 121.019C74.4729 121.102 74.5795 121.151 74.6928 121.157C76.3186 121.257 77.9504 121.196 79.5643 120.976C80.3992 120.876 81.1903 120.951 81.3617 120.013C81.4548 119.07 81.4284 118.118 81.2831 117.182C81.1955 116.163 81.1182 115.15 80.997 114.186Z" fill="#BFBFBF"/>
<path d="M87.5811 111.378C84.0173 112.942 79.1677 113.12 76.8227 109.53C74.1402 105.42 75.2998 100.243 75.2599 95.6626C75.2599 95.5592 75.2187 95.46 75.1455 95.3869C75.0723 95.3138 74.973 95.2727 74.8695 95.2727C74.7659 95.2727 74.6666 95.3138 74.5934 95.3869C74.5202 95.46 74.4791 95.5592 74.4791 95.6626C74.2794 100.76 73.2087 106.846 76.7184 111.144C79.2244 114.21 84.9102 114.4 88.1287 112.392C88.2571 112.316 88.3511 112.194 88.391 112.05C88.4309 111.907 88.4137 111.753 88.3429 111.622C88.2721 111.491 88.1532 111.392 88.0112 111.347C87.8692 111.301 87.7151 111.313 87.5811 111.378Z" fill="#BFBFBF"/>
<path d="M86.3573 97.3808C86.7065 95.731 85.1475 95.4015 84.7687 97.0423C84.6115 97.7179 84.846 98.3704 85.2841 98.4463C85.7646 98.5274 86.2143 98.0538 86.3573 97.3808Z" fill="#BFBFBF"/>
<path d="M77.1313 96.6509C76.9754 97.3278 77.2099 97.9789 77.6467 98.0561C78.0899 98.1604 78.5589 97.6701 78.7148 96.9893C78.8707 96.3085 78.6375 95.6625 78.1994 95.5853C77.7601 95.4811 77.2911 95.9753 77.1313 96.6509Z" fill="#BFBFBF"/>
<path d="M189.773 68.695C191.065 70.3344 192.086 72.1706 192.795 74.1333C191.98 74.2883 191.185 74.5326 190.424 74.8617C190.004 75.0612 190.216 75.7201 190.658 75.7201C191.717 75.6738 192.766 75.5009 193.784 75.2053C193.878 75.179 193.965 75.1316 194.038 75.0667C194.111 75.0018 194.169 74.9212 194.206 74.8309C194.243 74.7406 194.259 74.6431 194.253 74.5456C194.247 74.4482 194.219 74.3534 194.171 74.2685C193.223 72.0286 191.921 69.9556 190.314 68.1288C189.992 67.7556 189.477 68.3102 189.773 68.695Z" fill="#BFBFBF"/>
<path d="M187.533 79.7274C189.259 81.3836 193.264 81.8868 194.514 79.3889C194.57 79.291 194.592 79.1774 194.577 79.0656C194.562 78.9538 194.51 78.8501 194.431 78.7702C194.351 78.6904 194.247 78.639 194.135 78.6238C194.023 78.6087 193.91 78.6306 193.811 78.6863C192.58 79.3014 191.062 81.1095 188.028 79.102C187.944 79.0536 187.845 79.0371 187.75 79.0553C187.655 79.0735 187.57 79.1252 187.51 79.2011C187.45 79.277 187.419 79.372 187.423 79.4686C187.428 79.5652 187.466 79.6571 187.533 79.7274Z" fill="#BFBFBF"/>
<path d="M196.177 66.0672C196.228 65.9759 196.251 65.8717 196.243 65.7675C196.236 65.6632 196.198 65.5635 196.134 65.4806C196.07 65.3976 195.984 65.3352 195.885 65.3008C195.786 65.2665 195.679 65.2618 195.578 65.2874C195.046 65.4348 194.544 65.6725 194.093 65.99C193.576 66.2232 193.072 66.4835 192.582 66.7698C192.141 67.0594 192.27 67.8869 192.869 67.8367C193.51 67.7584 194.13 67.5551 194.693 67.2383C195.296 67.0088 195.814 66.6001 196.177 66.0672Z" fill="#BFBFBF"/>
<path d="M183.494 72.0513C184.74 71.8614 185.921 71.3701 186.933 70.6203C187.402 70.2561 187.168 69.345 186.49 69.5534C185.305 69.9459 184.176 70.4883 183.13 71.1672C183.031 71.2271 182.957 71.3202 182.921 71.4299C182.885 71.5395 182.889 71.6584 182.933 71.7651C182.977 71.8718 183.058 71.9593 183.161 72.0118C183.264 72.0642 183.382 72.0782 183.494 72.0513Z" fill="#BFBFBF"/>
<path d="M191.387 65.4433C192.453 64.5811 193.384 63.2556 194.905 63.7008C194.987 63.7201 195.073 63.7181 195.155 63.6948C195.237 63.6716 195.311 63.628 195.371 63.5681C195.431 63.5082 195.475 63.4339 195.498 63.3525C195.521 63.271 195.523 63.1849 195.504 63.1024C195.375 62.2685 194.097 62.2454 193.498 62.3998C192.861 62.5976 192.277 62.9367 191.789 63.3918C191.302 63.8468 190.924 64.4061 190.684 65.0276C190.554 65.4677 191.1 65.6762 191.387 65.4433Z" fill="#BFBFBF"/>
<path d="M185.24 67.8624C185.813 67.8624 185.787 67.0311 185.24 66.9783C183.651 66.8252 181.493 67.5176 180.967 69.1892C180.94 69.295 180.948 69.4068 180.989 69.5078C181.031 69.6088 181.104 69.6937 181.198 69.7495C181.292 69.8054 181.402 69.8293 181.51 69.8176C181.619 69.8059 181.721 69.7592 181.801 69.6847C182.199 69.1412 182.715 68.695 183.311 68.3793C183.907 68.0637 184.566 67.887 185.24 67.8624Z" fill="#BFBFBF"/>
<path d="M192.873 105.618C193.181 105.729 193.518 105.73 193.827 105.621C194.135 105.512 194.397 105.3 194.566 105.02C195.249 103.853 196.025 102.652 195.999 102.575C195.973 102.471 192.48 98.3282 192.091 98.5676C191.451 100.582 190.93 102.632 190.528 104.707C190.581 104.756 191.884 105.248 192.873 105.618Z" fill="#3F3F3F"/>
<path d="M156.639 156.14C150.497 157.545 140.663 156.71 137.055 151.353C134.441 147.479 134.772 140.479 135.934 136.081C136.717 133.72 137.684 131.423 138.825 129.212C139.031 128.742 138.49 128.226 138.096 128.639C133.665 133.293 132.472 144.839 135.133 150.645C138.455 157.919 149.415 158.778 156.883 157.02C157.446 156.89 157.212 156.01 156.639 156.14Z" fill="#BFBFBF"/>
<path d="M159.327 151.9C155.672 153.114 151.785 153.471 147.97 152.941C147.858 152.915 147.74 152.934 147.641 152.993C147.543 153.052 147.471 153.147 147.441 153.258C147.41 153.369 147.424 153.487 147.479 153.588C147.534 153.689 147.626 153.764 147.735 153.799C149.745 154.346 151.847 154.47 153.908 154.163C155.921 154.14 157.901 153.65 159.692 152.732C159.783 152.673 159.851 152.583 159.882 152.478C159.913 152.374 159.906 152.262 159.862 152.162C159.819 152.062 159.741 151.981 159.643 151.933C159.545 151.885 159.433 151.873 159.327 151.9Z" fill="#BFBFBF"/>
<path d="M161.068 147.711C155.464 149.614 153.52 149.984 147.887 149.402C147.392 149.35 147.315 150.102 147.783 150.234C152.379 151.385 157.24 150.802 161.432 148.595C161.897 148.329 161.591 147.533 161.068 147.711Z" fill="#BFBFBF"/>
<path d="M147.574 145.499C151.463 146.76 155.646 146.797 159.557 145.603C159.666 145.568 159.758 145.492 159.813 145.391C159.868 145.29 159.882 145.172 159.851 145.061C159.821 144.951 159.749 144.856 159.65 144.797C159.552 144.738 159.434 144.719 159.322 144.745C151.91 146.102 151.313 144.95 147.704 144.616C147.183 144.566 147.105 145.369 147.574 145.499Z" fill="#BFBFBF"/>
<path d="M145.828 140.946C145.886 140.953 145.945 140.949 146.001 140.933C146.057 140.918 146.11 140.891 146.156 140.856C146.202 140.82 146.24 140.775 146.269 140.724C146.297 140.674 146.316 140.618 146.323 140.56C146.949 139.866 147.764 139.369 148.668 139.129C148.746 139.107 148.82 139.069 148.884 139.019C148.948 138.968 149.002 138.905 149.042 138.834C149.082 138.763 149.107 138.684 149.117 138.603C149.126 138.522 149.12 138.44 149.097 138.361C149.075 138.283 149.038 138.209 148.987 138.145C148.936 138.081 148.874 138.028 148.802 137.988C148.731 137.948 148.652 137.922 148.571 137.913C148.49 137.903 148.408 137.91 148.329 137.932C147.232 138.248 146.265 138.904 145.568 139.806C143.876 139.451 142.262 138.798 140.801 137.876C140.715 137.831 140.616 137.817 140.521 137.838C140.426 137.859 140.342 137.913 140.283 137.99C140.223 138.066 140.193 138.162 140.198 138.259C140.202 138.355 140.24 138.448 140.306 138.519C141.851 139.879 143.78 140.727 145.828 140.946Z" fill="#BFBFBF"/>
<path d="M248.982 97.4453C245.521 95.1739 238.888 92.5706 234.656 92.5281C234.559 92.5271 234.465 92.5615 234.392 92.6248C234.319 92.6881 234.271 92.776 234.258 92.8719C234.246 92.9678 234.268 93.0651 234.322 93.1454C234.376 93.2257 234.458 93.2835 234.552 93.3079C237.585 94.2216 244.573 95.5999 249.086 98.8492C253.221 101.827 255.418 106.577 253.671 111.547C252.135 115.922 248.517 119.464 244.945 122.265C240.37 125.852 234.767 126.497 234.447 126.818C231.466 127.304 228.436 127.409 225.428 127.131C224.881 127.107 224.881 127.939 225.428 127.989C228.892 128.31 232.618 128.666 236.004 127.547C238.847 126.939 241.569 125.858 244.052 124.347C255.286 116.992 260.385 104.923 248.982 97.4453Z" fill="#BFBFBF"/>
<path d="M236.844 122.863C237.286 122.477 236.715 121.833 236.245 122.083C231.77 124.493 228.803 124.621 224.209 124.346C224.107 124.348 224.008 124.386 223.932 124.454C223.856 124.523 223.807 124.616 223.794 124.718C223.782 124.819 223.806 124.922 223.864 125.007C223.921 125.092 224.007 125.153 224.106 125.179C227.905 126.124 234.088 125.308 236.844 122.863Z" fill="#BFBFBF"/>
<path d="M230.2 121.901C232.198 121.52 233.971 120.383 235.15 118.728C235.436 118.258 234.741 117.698 234.368 118.129C231.736 121.218 226.866 121.755 223.038 121.381C222.516 121.33 222.466 122.105 222.933 122.24C225.341 122.791 227.854 122.674 230.2 121.901Z" fill="#BFBFBF"/>
<path d="M233.458 114.071C233.482 113.966 233.471 113.856 233.428 113.758C233.384 113.659 233.31 113.578 233.216 113.525C233.122 113.472 233.014 113.451 232.907 113.465C232.801 113.479 232.701 113.527 232.624 113.602C231.358 115.096 229.788 116.302 228.018 117.141C226.248 117.98 224.319 118.432 222.36 118.467C222.239 118.467 222.123 118.515 222.038 118.6C221.952 118.685 221.904 118.801 221.904 118.922C221.904 119.043 221.952 119.159 222.038 119.244C222.123 119.33 222.239 119.378 222.36 119.378C224.795 119.447 227.208 118.892 229.367 117.765C230.927 116.976 232.825 115.795 233.458 114.071Z" fill="#BFBFBF"/>
<path d="M223.742 109.413C223.503 109.828 223.999 110.368 224.418 110.089C225.609 109.037 227.128 108.43 228.716 108.372C229.942 108.416 231.319 109.59 232.52 109.126C233.651 108.46 234.579 107.497 235.202 106.343C236.095 105.106 236.578 103.621 236.584 102.096C236.578 101.986 236.53 101.883 236.45 101.807C236.37 101.732 236.264 101.69 236.154 101.69C236.044 101.69 235.938 101.732 235.858 101.807C235.778 101.883 235.73 101.986 235.724 102.096C235.499 103.828 234.723 105.442 233.509 106.7C233.235 107.04 232.93 107.354 232.597 107.637C232.082 108.011 231.894 107.895 231.399 107.793C230.8 107.664 230.281 107.318 229.654 107.22C227.652 106.918 224.82 107.53 223.742 109.413Z" fill="#BFBFBF"/>
<path d="M228.507 101.973C228.618 102.616 229.628 102.44 229.628 101.816C229.544 99.8127 229.561 97.8069 229.68 95.8058C229.976 93.7107 230.394 91.6345 230.931 89.5876C230.954 89.4816 230.938 89.3708 230.885 89.276C230.832 89.1812 230.746 89.109 230.644 89.0729C230.608 89.0113 230.559 88.9585 230.5 88.918C230.442 88.8775 230.375 88.8504 230.305 88.8386C226.696 88.0292 223.03 87.4983 219.339 87.2506C212.853 87.0975 210.073 88.7859 207.512 88.7859C207.55 88.6135 207.612 88.4471 207.695 88.2917C207.741 88.2079 207.765 88.1137 207.765 88.0181C207.764 87.9225 207.74 87.8286 207.693 87.7452C207.646 87.6619 207.578 87.5919 207.497 87.5418C207.415 87.4917 207.322 87.4633 207.226 87.4591C204.342 86.9485 201.393 86.922 198.5 87.3806C198.432 87.3354 198.355 87.3042 198.275 87.2889C198.194 87.2735 198.112 87.2744 198.032 87.2915C197.952 87.3085 197.876 87.3413 197.809 87.388C197.741 87.4347 197.684 87.4943 197.64 87.5634C197.124 88.3611 196.558 89.1257 195.946 89.8527C195.244 88.1875 194.618 86.4965 194.014 84.7798C197.257 84.2393 200.644 82.3412 201.256 79.0558C202.052 74.773 200.621 66.3157 196.672 60.2454C196.602 60.14 196.494 60.0651 196.371 60.0359C196.248 60.0068 196.119 60.0257 196.009 60.0887C195.899 60.1517 195.818 60.254 195.781 60.375C195.744 60.4959 195.755 60.6263 195.811 60.7396C197.408 63.5776 198.626 66.6127 199.433 69.7671C200.136 72.2777 200.435 74.884 200.318 77.4884C200.029 80.6618 197.531 82.5625 194.64 83.4196C191.369 84.2864 187.92 84.2146 184.688 83.2124C184.591 83.1849 184.488 83.197 184.4 83.2458C184.312 83.2947 184.247 83.3764 184.22 83.473C184.192 83.5696 184.204 83.6731 184.253 83.7609C184.302 83.8486 184.384 83.9133 184.48 83.9408C187.228 85.0155 190.209 85.3562 193.128 84.9291C193.572 86.9001 194.175 88.8316 194.932 90.7046C194.959 90.7827 195.003 90.8539 195.061 90.9131C193.889 92.3184 192.854 93.833 191.675 95.2061C191.339 95.5986 191.648 95.4944 191.232 95.4146C190.651 95.1825 190.107 94.8669 189.617 94.4778C188.804 93.99 186.939 93.2527 186.569 92.3699C183.295 84.5598 182.903 81.1238 181.047 78.5294C180.623 77.9362 179.48 78.7933 178.442 78.321C177.71 77.9418 177.137 77.3144 176.827 76.5515C176.403 75.3045 178.806 74.8863 179.588 75.172C180.083 75.3547 180.315 74.6302 179.927 74.3664C179.656 74.1838 179.341 74.0759 179.015 74.0537C181.959 72.4927 179.094 67.9912 178.963 66.8214C183.235 65.3975 187.306 63.43 191.075 60.9674C194.749 58.4721 197.764 55.6603 197.275 50.8988C197.18 49.3527 196.605 47.8747 195.629 46.6711C194.652 45.4675 193.324 44.5984 191.83 44.1852C189.419 43.4503 186.843 43.4503 184.432 44.1852C177.612 46.517 177.035 54.4365 177.008 60.6032C174.688 59.077 170.743 62.7459 171.304 66.7686C171.431 67.7064 171.814 68.591 172.411 69.3255C173.008 70.0599 173.797 70.6157 174.69 70.9317C174.008 71.4946 173.557 72.2879 173.423 73.161C173.288 74.034 173.48 74.926 173.96 75.6674C174.477 76.4951 175.171 77.1983 175.992 77.7264C176.877 79.1832 178.884 80.3543 180.395 79.6259C181.097 81.7325 182.008 83.8147 182.739 85.8956C183.383 87.7435 184.041 89.6159 184.77 91.4369C184.406 91.1795 184.041 90.9221 183.702 90.6313C183.699 90.6313 183.695 90.6306 183.692 90.6292C183.689 90.6278 183.686 90.6258 183.684 90.6233C183.681 90.6208 183.679 90.6178 183.678 90.6145C183.677 90.6112 183.676 90.6077 183.677 90.6043C183.625 90.5549 183.562 90.5195 183.494 90.5013C180.747 89.8588 177.884 89.903 175.159 90.63C175.062 90.6607 174.973 90.7128 174.898 90.7824C174.824 90.8519 174.766 90.9372 174.729 91.0319C174.692 91.1267 174.677 91.2285 174.684 91.33C174.692 91.4315 174.722 91.53 174.772 91.6183C175.03 92.1231 175.335 92.6023 175.683 93.0493C168.854 95.515 166.936 95.8714 158.334 102.338C157.605 102.886 157.998 103.496 158.752 103.014C162.247 100.591 165.929 98.45 169.764 96.6101C172.106 95.5922 174.615 94.9372 176.979 93.9823C177.09 93.9479 177.19 93.8857 177.27 93.8017C177.35 93.7177 177.407 93.6147 177.436 93.5024C177.464 93.3901 177.464 93.2724 177.434 93.1604C177.404 93.0484 177.346 92.9459 177.265 92.8627C176.926 92.5295 176.621 92.1635 176.354 91.7702C178.595 91.4845 180.913 91.8487 183.126 91.4587C184.145 92.5218 185.312 93.432 186.591 94.1612C187.739 95.043 188.959 95.8265 190.238 96.5033C189.614 98.9226 189.118 101.369 188.467 103.788C185.625 101.557 183.039 99.0171 180.757 96.2163C180.439 95.8303 179.767 96.345 180.053 96.7375C182.45 99.9381 185.241 102.823 188.363 105.324C188.443 105.401 188.541 105.456 188.649 105.484C188.757 105.512 188.87 105.512 188.978 105.483C189.086 105.454 189.184 105.398 189.263 105.319C189.343 105.241 189.4 105.144 189.431 105.037C190.005 102.299 190.759 99.5995 191.228 96.8418C191.385 96.8542 191.543 96.8327 191.692 96.7787C191.84 96.7248 191.975 96.6396 192.087 96.529C195.352 99.5905 196.504 102.638 199.2 103.864C200.917 104.648 201.124 102.719 201.492 101.471C202.404 98.917 203.161 96.3106 203.758 93.6657C203.843 93.151 203.101 92.7263 202.846 93.2797C202.473 94.0827 199.59 102.62 199.668 102.674C199.511 102.597 199.355 102.492 199.2 102.417C198.813 102.225 198.468 101.96 198.183 101.637C196.226 99.8711 195.006 97.1609 192.686 95.7569C195.021 92.5397 196.784 90.8256 198.417 88.3419C200.994 88.5491 203.601 88.3677 206.18 88.5491L205.711 89.486C205.659 89.5809 205.635 89.6891 205.644 89.7971C205.652 89.9052 205.692 90.0085 205.759 90.0942C205.825 90.18 205.915 90.2444 206.018 90.2797C206.12 90.315 206.231 90.3196 206.336 90.2928C216.448 87.6148 220.654 88.3329 229.657 89.9544C228.293 93.8059 227.899 97.933 228.507 101.973ZM191.518 46.6071C195.075 48.0677 194.403 52.5885 193.289 55.4261C193.107 55.8945 192.354 55.6835 192.534 55.2189C193.59 52.4663 194.081 49.2143 191.153 47.4654C190.713 47.2016 191.023 46.4025 191.518 46.6071Z" fill="#BFBFBF"/>
<path d="M191.753 108.919C193.098 108.301 194.504 107.822 195.947 107.488C196.305 107.497 196.661 107.426 196.989 107.28C197.054 107.241 197.108 107.186 197.146 107.12C197.184 107.053 197.203 106.979 197.203 106.903C197.203 106.827 197.184 106.752 197.146 106.686C197.108 106.62 197.054 106.564 196.989 106.526C196.279 106.122 194.936 106.746 194.254 106.993C193.261 107.351 192.287 107.759 191.337 108.217C190.844 108.456 191.258 109.152 191.753 108.919Z" fill="#BFBFBF"/>
<path d="M22.7461 16.5115C23.7868 19.3209 25.7742 21.6017 27.8933 23.6694C28.7599 24.5151 28.9061 24.3865 29.391 23.8339C31.7026 21.1996 33.7767 18.1027 34.5476 14.8242C35.1988 12.0587 34.2847 8.69561 31.7496 7.06567C29.3508 5.52331 25.8439 5.86135 23.883 7.96705C21.7704 10.2354 21.72 13.7422 22.7461 16.5115ZM29.4664 9.45277C30.1463 9.67105 30.7425 10.093 31.1741 10.6613C31.6057 11.2296 31.8518 11.9167 31.879 12.6295C31.917 14.286 30.2722 16.1544 28.5263 16.0379C26.4742 15.9012 23.9338 13.5473 25.6939 10.8023C26.1037 10.213 26.6875 9.76619 27.3638 9.52425C28.0401 9.28231 28.7752 9.25732 29.4664 9.45277Z" fill="#D42151"/>
<path d="M153.234 48.5107C153.234 14.9051 153.502 16.1984 152.532 14.0378C151.894 12.6608 150.876 11.4938 149.599 10.6733C148.321 9.85285 146.836 9.41291 145.316 9.405C144.792 9.3947 50.7372 9.43202 43.2475 9.45648C39.7688 -0.222152 26.1449 -2.89758 18.8138 3.42101C10.3102 10.7562 13.222 28.4045 26.3678 30.0877C26.3678 33.3924 26.3936 44.3979 26.3936 46.583C26.253 48.408 26.3395 50.2434 26.6513 52.0471C27.1449 53.7916 28.225 55.3131 29.7099 56.3556C31.1948 57.3981 32.9939 57.898 34.8045 57.7711C38.3992 57.6939 41.9694 57.7711 45.5371 57.4854C46.1619 57.434 46.1619 56.4559 45.5371 56.4958C41.9655 56.6876 38.3734 56.6129 34.8045 56.6245C33.7608 56.691 32.7156 56.5224 31.746 56.1313C30.7763 55.7402 29.9071 55.1365 29.2024 54.3647C27.7245 52.6673 27.6125 50.6971 27.6125 48.5635C27.6125 42.4495 27.6395 36.3085 27.6395 30.1946C31.9064 30.2771 36.0596 28.8175 39.3346 26.0843C39.4448 25.9886 39.5144 25.8544 39.529 25.7093C39.5436 25.5641 39.5022 25.4188 39.4132 25.3031C39.3182 25.1915 39.1836 25.1211 39.0377 25.1067C38.8918 25.0923 38.746 25.135 38.6311 25.2259C28.9795 32.9819 16.0024 28.77 15.0838 15.9604C13.8185 -1.72909 36.978 -3.22059 42.048 9.45905C42.8007 11.5856 43.0743 13.8518 42.8491 16.0961C42.6239 18.3404 41.9056 20.5073 40.7454 22.4424C40.7078 22.5039 40.6828 22.5722 40.6716 22.6434C40.6605 22.7146 40.6635 22.7873 40.6805 22.8573C40.6975 22.9273 40.7281 22.9933 40.7707 23.0515C40.8132 23.1097 40.8668 23.159 40.9284 23.1965C40.9899 23.234 41.0583 23.259 41.1296 23.2702C41.2009 23.2813 41.2736 23.2783 41.3438 23.2613C41.4139 23.2443 41.4799 23.2137 41.5382 23.1713C41.5965 23.1288 41.6458 23.0753 41.6834 23.0138C43.8858 19.3599 44.5789 14.9937 43.616 10.8386C49.8675 10.8386 144.748 10.8592 145.19 10.8643C146.529 10.848 147.841 11.2479 148.942 12.0088C150.044 12.7696 150.881 13.8537 151.339 15.111C151.682 16.3818 151.805 17.7019 151.703 19.0141C151.703 19.0141 151.755 48.2842 151.703 51.7434C151.718 53.4576 151.052 55.1079 149.851 56.3322C148.649 57.5565 147.011 58.2549 145.295 58.2743C144.908 58.2743 128.853 56.972 127.258 56.896C126.477 56.8574 126.477 58.0877 127.258 58.1186C160.318 59.4145 145.255 60.3191 148.004 59.2896C149.514 58.7131 150.815 57.6938 151.735 56.3656C152.654 55.0375 153.151 53.4625 153.158 51.8476C153.261 50.7486 153.234 49.6277 153.234 48.5107Z" fill="#3F3F3F"/>
<path d="M119.048 57.0453C101.804 57.0054 60.4903 56.6412 57.0746 56.6592C56.9468 56.6592 56.8243 56.7099 56.7339 56.8002C56.6435 56.8904 56.5928 57.0129 56.5928 57.1405C56.5928 57.2682 56.6435 57.3906 56.7339 57.4808C56.8243 57.5711 56.9468 57.6218 57.0746 57.6218C64.1056 58.0259 112.303 59.1892 119.201 58.2202C119.907 58.1636 119.726 57.0466 119.048 57.0453Z" fill="#3F3F3F"/>
<path d="M101.371 33.7594C96.5778 33.6783 47.4758 33.9421 42.1366 34.0167C42.1366 32.6385 42.1366 31.2332 42.058 29.855C42.052 29.7452 42.0041 29.6419 41.9241 29.5663C41.8442 29.4908 41.7383 29.4486 41.6283 29.4486C41.5182 29.4486 41.4124 29.4908 41.3324 29.5663C41.2525 29.6419 41.2046 29.7452 41.1986 29.855C41.0698 31.4134 41.12 32.9769 41.12 34.5379C41.122 34.6749 41.1779 34.8056 41.2755 34.9019C41.3731 34.9982 41.5046 35.0523 41.6418 35.0527C60.918 35.0784 80.2199 34.4903 99.4922 34.7953C104.623 34.8751 109.782 35.211 114.912 34.924C115.008 34.9849 115.117 35.0197 115.23 35.0248C115.344 35.0298 115.456 35.005 115.557 34.9528C115.657 34.9006 115.742 34.8229 115.803 34.7274C115.864 34.632 115.898 34.5222 115.903 34.4092C115.931 33.1597 115.943 31.9371 115.903 30.6876C115.884 30.0892 116.085 28.6852 115.46 28.294C115.042 28.0366 114.157 28.1923 113.714 28.191C110.068 28.1769 49.1637 28.4252 42.0026 28.5024C41.8927 28.5085 41.7893 28.5563 41.7136 28.6361C41.6379 28.7159 41.5958 28.8217 41.5958 28.9316C41.5958 29.0415 41.6379 29.1473 41.7136 29.2271C41.7893 29.3069 41.8927 29.3548 42.0026 29.3608C58.4043 29.5435 65.0049 29.3029 111.761 29.3608C112.713 29.4532 113.67 29.4795 114.626 29.4393C114.6 29.6967 114.652 30.0377 114.652 30.2719C114.652 31.4944 114.626 32.717 114.626 33.9408C110.202 34.0463 105.799 33.834 101.371 33.7594ZM115.125 29.384C115.099 29.4097 115.073 29.4097 115.02 29.384H115.125Z" fill="#3F3F3F"/>
<path d="M120.935 46.3513C127.577 46.408 134.271 46.8725 140.913 46.5083C141.009 46.5695 141.12 46.6043 141.233 46.609C141.347 46.6138 141.46 46.5884 141.56 46.5355C141.661 46.4825 141.746 46.4039 141.806 46.3076C141.867 46.2113 141.9 46.1007 141.904 45.9872C142.064 44.1941 142.038 42.3892 141.826 40.6016C141.824 40.4858 141.799 40.3716 141.752 40.2659C141.705 40.1602 141.636 40.0654 141.551 39.9873C141.465 39.9092 141.364 39.8495 141.255 39.812C141.145 39.7744 141.029 39.7598 140.913 39.7689C139.165 39.6145 44.4397 40.0508 40.6002 40.0817C40.4903 40.0877 40.3869 40.1355 40.3112 40.2153C40.2356 40.2952 40.1934 40.4009 40.1934 40.5108C40.1934 40.6208 40.2356 40.7265 40.3112 40.8063C40.3869 40.8862 40.4903 40.934 40.6002 40.94C46.1959 40.9863 28.9657 40.9928 140.627 40.9928C140.721 41.5526 140.653 45.1108 140.653 45.5187C134.896 45.7015 129.114 45.3965 123.357 45.3373C116.529 45.2678 47.1119 45.5715 40.7819 45.65C40.7819 44.2705 40.7819 42.8665 40.7046 41.4869C40.6986 41.3772 40.6507 41.2739 40.5707 41.1983C40.4908 41.1227 40.3849 41.0806 40.2749 41.0806C40.1648 41.0806 40.059 41.1227 39.979 41.1983C39.8991 41.2739 39.8512 41.3772 39.8452 41.4869C39.7679 43.0479 39.7666 44.6089 39.7666 46.1699C39.7717 46.2993 39.8254 46.4221 39.9172 46.5137C40.0089 46.6053 40.1318 46.659 40.2614 46.6641C52.8957 46.6769 106.659 46.2304 120.935 46.3513ZM141.122 40.9928C141.112 41.0026 141.1 41.01 141.086 41.0144C141.073 41.0189 141.059 41.0203 141.045 41.0185C141.068 41.0047 141.095 40.9959 141.122 40.9928Z" fill="#3F3F3F"/>
<path opacity="0.8" d="M53.485 15.9767H55.0402C55.7488 15.9767 56.2627 16.0781 56.5817 16.2809C56.903 16.4814 57.0636 16.8016 57.0636 17.2413C57.0636 17.5398 56.993 17.7848 56.8517 17.9762C56.7127 18.1676 56.527 18.2827 56.2946 18.3214V18.3556C56.6113 18.4262 56.8392 18.5584 56.9782 18.7521C57.1194 18.9458 57.1901 19.2032 57.1901 19.5245C57.1901 19.9803 57.0249 20.3357 56.6945 20.5909C56.3663 20.8462 55.9197 20.9738 55.3546 20.9738H53.485V15.9767ZM54.5446 17.9557H55.1598C55.4469 17.9557 55.6543 17.9113 55.7819 17.8224C55.9118 17.7335 55.9767 17.5865 55.9767 17.3815C55.9767 17.1901 55.9061 17.0533 55.7648 16.9713C55.6258 16.887 55.4048 16.8448 55.1017 16.8448H54.5446V17.9557ZM54.5446 18.7965V20.0988H55.235C55.5267 20.0988 55.742 20.0429 55.881 19.9313C56.02 19.8196 56.0895 19.6487 56.0895 19.4186C56.0895 19.0039 55.7933 18.7965 55.2008 18.7965H54.5446ZM60.9131 20.9738L60.773 20.485H60.7183C60.6066 20.6627 60.4483 20.8006 60.2432 20.8986C60.0381 20.9943 59.8046 21.0421 59.5425 21.0421C59.0936 21.0421 58.7552 20.9225 58.5274 20.6832C58.2995 20.4417 58.1856 20.0953 58.1856 19.6442V17.1525H59.2281V19.3844C59.2281 19.6601 59.2771 19.8675 59.375 20.0065C59.473 20.1432 59.6291 20.2115 59.8433 20.2115C60.135 20.2115 60.3457 20.1147 60.4756 19.921C60.6055 19.7251 60.6704 19.4015 60.6704 18.9503V17.1525H61.7129V20.9738H60.9131ZM65.5727 19.839C65.5727 20.2309 65.436 20.5294 65.1625 20.7345C64.8914 20.9396 64.4846 21.0421 63.9423 21.0421C63.6643 21.0421 63.4274 21.0227 63.2314 20.984C63.0354 20.9476 62.852 20.8929 62.6811 20.8199V19.9586C62.8748 20.0498 63.0924 20.1261 63.3339 20.1876C63.5777 20.2491 63.7919 20.2799 63.9765 20.2799C64.3548 20.2799 64.5439 20.1705 64.5439 19.9518C64.5439 19.8698 64.5188 19.8037 64.4687 19.7535C64.4186 19.7011 64.332 19.643 64.2089 19.5792C64.0859 19.5131 63.9218 19.4368 63.7167 19.3502C63.4228 19.2272 63.2063 19.1132 63.0673 19.0084C62.9306 18.9036 62.8303 18.784 62.7665 18.6495C62.705 18.5128 62.6743 18.3453 62.6743 18.1471C62.6743 17.8076 62.8053 17.5455 63.0673 17.361C63.3316 17.1741 63.7053 17.0807 64.1884 17.0807C64.6487 17.0807 65.0965 17.1809 65.5317 17.3815L65.2172 18.1334C65.0258 18.0514 64.8469 17.9842 64.6806 17.9318C64.5143 17.8794 64.3445 17.8531 64.1713 17.8531C63.8637 17.8531 63.7099 17.9363 63.7099 18.1027C63.7099 18.1961 63.7589 18.277 63.8569 18.3453C63.9571 18.4137 64.1747 18.5151 64.5097 18.6495C64.8082 18.7703 65.027 18.8831 65.166 18.9879C65.305 19.0927 65.4075 19.2135 65.4736 19.3502C65.5397 19.4869 65.5727 19.6499 65.5727 19.839ZM66.4417 16.1647C66.4417 15.8252 66.6309 15.6554 67.0091 15.6554C67.3874 15.6554 67.5765 15.8252 67.5765 16.1647C67.5765 16.3265 67.5287 16.4529 67.433 16.5441C67.3395 16.6329 67.1982 16.6774 67.0091 16.6774C66.6309 16.6774 66.4417 16.5065 66.4417 16.1647ZM67.5287 20.9738H66.4862V17.1525H67.5287V20.9738ZM72.2532 20.9738H71.2107V18.7418C71.2107 18.4661 71.1617 18.2599 71.0637 18.1232C70.9657 17.9842 70.8096 17.9147 70.5954 17.9147C70.3038 17.9147 70.093 18.0127 69.9631 18.2086C69.8332 18.4023 69.7683 18.7247 69.7683 19.1759V20.9738H68.7258V17.1525H69.5222L69.6623 17.6412H69.7204C69.8367 17.4567 69.9962 17.3177 70.199 17.2242C70.404 17.1285 70.6365 17.0807 70.8962 17.0807C71.3406 17.0807 71.6778 17.2015 71.9079 17.443C72.1381 17.6823 72.2532 18.0286 72.2532 18.4821V20.9738ZM75.0089 17.8224C74.7879 17.8224 74.6147 17.893 74.4894 18.0343C74.3641 18.1733 74.2923 18.3715 74.2741 18.629H75.737C75.7324 18.3715 75.6652 18.1733 75.5353 18.0343C75.4054 17.893 75.23 17.8224 75.0089 17.8224ZM75.1559 21.0421C74.5407 21.0421 74.0599 20.8724 73.7135 20.5328C73.3672 20.1933 73.194 19.7125 73.194 19.0905C73.194 18.4502 73.3535 17.9557 73.6725 17.6071C73.9938 17.2561 74.437 17.0807 75.0021 17.0807C75.5421 17.0807 75.9625 17.2345 76.2633 17.5421C76.5641 17.8497 76.7145 18.2747 76.7145 18.817V19.3229H74.2501C74.2615 19.6191 74.3493 19.8504 74.5133 20.0167C74.6774 20.1831 74.9075 20.2662 75.2038 20.2662C75.4339 20.2662 75.6515 20.2423 75.8566 20.1945C76.0617 20.1466 76.2759 20.0703 76.4992 19.9655V20.7721C76.3169 20.8632 76.122 20.9305 75.9147 20.9738C75.7073 21.0193 75.4544 21.0421 75.1559 21.0421ZM80.3282 19.839C80.3282 20.2309 80.1914 20.5294 79.918 20.7345C79.6468 20.9396 79.2401 21.0421 78.6978 21.0421C78.4198 21.0421 78.1828 21.0227 77.9869 20.984C77.7909 20.9476 77.6075 20.8929 77.4366 20.8199V19.9586C77.6302 20.0498 77.8479 20.1261 78.0894 20.1876C78.3332 20.2491 78.5474 20.2799 78.732 20.2799C79.1102 20.2799 79.2994 20.1705 79.2994 19.9518C79.2994 19.8698 79.2743 19.8037 79.2242 19.7535C79.174 19.7011 79.0874 19.643 78.9644 19.5792C78.8413 19.5131 78.6773 19.4368 78.4722 19.3502C78.1783 19.2272 77.9618 19.1132 77.8228 19.0084C77.6861 18.9036 77.5858 18.784 77.522 18.6495C77.4605 18.5128 77.4297 18.3453 77.4297 18.1471C77.4297 17.8076 77.5607 17.5455 77.8228 17.361C78.0871 17.1741 78.4608 17.0807 78.9439 17.0807C79.4042 17.0807 79.8519 17.1809 80.2871 17.3815L79.9727 18.1334C79.7813 18.0514 79.6024 17.9842 79.4361 17.9318C79.2697 17.8794 79.1 17.8531 78.9268 17.8531C78.6192 17.8531 78.4654 17.9363 78.4654 18.1027C78.4654 18.1961 78.5144 18.277 78.6123 18.3453C78.7126 18.4137 78.9302 18.5151 79.2652 18.6495C79.5637 18.7703 79.7824 18.8831 79.9214 18.9879C80.0604 19.0927 80.163 19.2135 80.229 19.3502C80.2951 19.4869 80.3282 19.6499 80.3282 19.839ZM83.9077 19.839C83.9077 20.2309 83.7709 20.5294 83.4975 20.7345C83.2263 20.9396 82.8196 21.0421 82.2773 21.0421C81.9993 21.0421 81.7623 21.0227 81.5663 20.984C81.3704 20.9476 81.187 20.8929 81.0161 20.8199V19.9586C81.2097 20.0498 81.4274 20.1261 81.6689 20.1876C81.9127 20.2491 82.1269 20.2799 82.3115 20.2799C82.6897 20.2799 82.8788 20.1705 82.8788 19.9518C82.8788 19.8698 82.8538 19.8037 82.8037 19.7535C82.7535 19.7011 82.6669 19.643 82.5439 19.5792C82.4208 19.5131 82.2568 19.4368 82.0517 19.3502C81.7578 19.2272 81.5413 19.1132 81.4023 19.0084C81.2656 18.9036 81.1653 18.784 81.1015 18.6495C81.04 18.5128 81.0092 18.3453 81.0092 18.1471C81.0092 17.8076 81.1402 17.5455 81.4023 17.361C81.6666 17.1741 82.0403 17.0807 82.5234 17.0807C82.9837 17.0807 83.4314 17.1809 83.8666 17.3815L83.5522 18.1334C83.3608 18.0514 83.1819 17.9842 83.0156 17.9318C82.8492 17.8794 82.6795 17.8531 82.5063 17.8531C82.1987 17.8531 82.0449 17.9363 82.0449 18.1027C82.0449 18.1961 82.0939 18.277 82.1918 18.3453C82.2921 18.4137 82.5097 18.5151 82.8447 18.6495C83.1432 18.7703 83.3619 18.8831 83.5009 18.9879C83.6399 19.0927 83.7425 19.2135 83.8085 19.3502C83.8746 19.4869 83.9077 19.6499 83.9077 19.839ZM88.7493 20.9738H87.6897V16.8585H86.3328V15.9767H90.1062V16.8585H88.7493V20.9738ZM93.026 17.0807C93.1673 17.0807 93.2846 17.0909 93.3781 17.1115L93.2995 18.089C93.2151 18.0662 93.1126 18.0548 92.9918 18.0548C92.6592 18.0548 92.3994 18.1403 92.2125 18.3112C92.028 18.4821 91.9357 18.7213 91.9357 19.0289V20.9738H90.8932V17.1525H91.6828L91.8366 17.795H91.8878C92.0063 17.5809 92.1658 17.4088 92.3663 17.2789C92.5691 17.1468 92.789 17.0807 93.026 17.0807ZM94.1275 16.1647C94.1275 15.8252 94.3166 15.6554 94.6949 15.6554C95.0731 15.6554 95.2622 15.8252 95.2622 16.1647C95.2622 16.3265 95.2144 16.4529 95.1187 16.5441C95.0253 16.6329 94.884 16.6774 94.6949 16.6774C94.3166 16.6774 94.1275 16.5065 94.1275 16.1647ZM95.2144 20.9738H94.1719V17.1525H95.2144V20.9738ZM98.5102 21.0421C98.0613 21.0421 97.7093 20.8792 97.454 20.5533H97.3994C97.4358 20.8724 97.454 21.0569 97.454 21.1071V22.6554H96.4116V17.1525H97.2592L97.4062 17.6481H97.454C97.6979 17.2698 98.059 17.0807 98.5375 17.0807C98.9887 17.0807 99.3419 17.255 99.5971 17.6036C99.8523 17.9523 99.9799 18.4365 99.9799 19.0563C99.9799 19.4642 99.9195 19.8185 99.7988 20.1193C99.6803 20.42 99.5105 20.649 99.2895 20.8063C99.0685 20.9635 98.8087 21.0421 98.5102 21.0421ZM98.2026 17.9147C97.9451 17.9147 97.7571 17.9944 97.6386 18.1539C97.5201 18.3112 97.4586 18.5721 97.454 18.9366V19.0494C97.454 19.4596 97.5144 19.7535 97.6352 19.9313C97.7582 20.109 97.9519 20.1979 98.2163 20.1979C98.6834 20.1979 98.9169 19.8128 98.9169 19.0426C98.9169 18.6666 98.8588 18.3852 98.7426 18.1984C98.6287 18.0092 98.4487 17.9147 98.2026 17.9147ZM101.963 20.2389C101.845 20.6992 101.644 21.2449 101.362 21.8761H100.61C100.758 21.27 100.873 20.698 100.955 20.1603H101.912L101.963 20.2389ZM105.072 20.9738V15.9767H106.131V20.0988H108.158V20.9738H105.072ZM109.003 16.1647C109.003 15.8252 109.193 15.6554 109.571 15.6554C109.949 15.6554 110.138 15.8252 110.138 16.1647C110.138 16.3265 110.09 16.4529 109.995 16.5441C109.901 16.6329 109.76 16.6774 109.571 16.6774C109.193 16.6774 109.003 16.5065 109.003 16.1647ZM110.09 20.9738H109.048V17.1525H110.09V20.9738ZM113.954 19.839C113.954 20.2309 113.817 20.5294 113.543 20.7345C113.272 20.9396 112.866 21.0421 112.323 21.0421C112.045 21.0421 111.808 21.0227 111.612 20.984C111.416 20.9476 111.233 20.8929 111.062 20.8199V19.9586C111.256 20.0498 111.473 20.1261 111.715 20.1876C111.959 20.2491 112.173 20.2799 112.357 20.2799C112.736 20.2799 112.925 20.1705 112.925 19.9518C112.925 19.8698 112.9 19.8037 112.85 19.7535C112.799 19.7011 112.713 19.643 112.59 19.5792C112.467 19.5131 112.303 19.4368 112.098 19.3502C111.804 19.2272 111.587 19.1132 111.448 19.0084C111.311 18.9036 111.211 18.784 111.147 18.6495C111.086 18.5128 111.055 18.3453 111.055 18.1471C111.055 17.8076 111.186 17.5455 111.448 17.361C111.713 17.1741 112.086 17.0807 112.569 17.0807C113.03 17.0807 113.477 17.1809 113.913 17.3815L113.598 18.1334C113.407 18.0514 113.228 17.9842 113.061 17.9318C112.895 17.8794 112.725 17.8531 112.552 17.8531C112.245 17.8531 112.091 17.9363 112.091 18.1027C112.091 18.1961 112.14 18.277 112.238 18.3453C112.338 18.4137 112.556 18.5151 112.891 18.6495C113.189 18.7703 113.408 18.8831 113.547 18.9879C113.686 19.0927 113.788 19.2135 113.854 19.3502C113.921 19.4869 113.954 19.6499 113.954 19.839ZM116.993 17.0807C117.444 17.0807 117.797 17.2573 118.053 17.6105C118.308 17.9614 118.435 18.4433 118.435 19.0563C118.435 19.6875 118.303 20.1762 118.039 20.5226C117.777 20.8689 117.419 21.0421 116.966 21.0421C116.517 21.0421 116.165 20.8792 115.91 20.5533H115.838L115.663 20.9738H114.867V15.6554H115.91V16.8927C115.91 17.0499 115.896 17.3017 115.868 17.6481H115.91C116.153 17.2698 116.514 17.0807 116.993 17.0807ZM116.658 17.9147C116.401 17.9147 116.213 17.9944 116.094 18.1539C115.976 18.3112 115.914 18.5721 115.91 18.9366V19.0494C115.91 19.4596 115.97 19.7535 116.091 19.9313C116.214 20.109 116.407 20.1979 116.672 20.1979C116.886 20.1979 117.056 20.0999 117.181 19.9039C117.309 19.7057 117.372 19.4186 117.372 19.0426C117.372 18.6666 117.309 18.3852 117.181 18.1984C117.053 18.0092 116.879 17.9147 116.658 17.9147ZM120.227 19.0563C120.227 19.4345 120.289 19.7205 120.412 19.9142C120.537 20.1079 120.74 20.2047 121.02 20.2047C121.298 20.2047 121.498 20.109 121.618 19.9176C121.741 19.7239 121.803 19.4368 121.803 19.0563C121.803 18.678 121.741 18.3943 121.618 18.2052C121.495 18.0161 121.294 17.9215 121.013 17.9215C120.735 17.9215 120.535 18.0161 120.412 18.2052C120.289 18.392 120.227 18.6757 120.227 19.0563ZM122.869 19.0563C122.869 19.6783 122.705 20.1648 122.377 20.5157C122.049 20.8667 121.592 21.0421 121.007 21.0421C120.64 21.0421 120.316 20.9624 120.036 20.8029C119.756 20.6411 119.54 20.4098 119.39 20.109C119.239 19.8082 119.164 19.4573 119.164 19.0563C119.164 18.4319 119.327 17.9466 119.653 17.6002C119.979 17.2539 120.437 17.0807 121.027 17.0807C121.394 17.0807 121.718 17.1604 121.998 17.3199C122.278 17.4795 122.493 17.7085 122.644 18.007C122.794 18.3055 122.869 18.6552 122.869 19.0563ZM127.358 20.9738H126.316V18.7418C126.316 18.4661 126.267 18.2599 126.169 18.1232C126.071 17.9842 125.915 17.9147 125.7 17.9147C125.409 17.9147 125.198 18.0127 125.068 18.2086C124.938 18.4023 124.873 18.7247 124.873 19.1759V20.9738H123.831V17.1525H124.627L124.767 17.6412H124.825C124.942 17.4567 125.101 17.3177 125.304 17.2242C125.509 17.1285 125.741 17.0807 126.001 17.0807C126.445 17.0807 126.783 17.2015 127.013 17.443C127.243 17.6823 127.358 18.0286 127.358 18.4821V20.9738Z" fill="#BFBFBF"/>
<path d="M149.042 120.276C150.083 123.085 152.07 125.366 154.189 127.434C155.056 128.279 155.202 128.151 155.687 127.598C157.998 124.964 160.073 121.867 160.844 118.589C161.495 115.823 160.581 112.46 158.046 110.83C155.647 109.288 152.14 109.626 150.179 111.731C148.066 114 148.016 117.507 149.042 120.276ZM155.762 113.217C156.442 113.435 157.038 113.857 157.47 114.426C157.902 114.994 158.148 115.681 158.175 116.394C158.213 118.05 156.568 119.919 154.822 119.802C152.77 119.666 150.23 117.312 151.99 114.567C152.4 113.977 152.983 113.531 153.66 113.289C154.336 113.047 155.071 113.022 155.762 113.217Z" fill="#D42151"/>
<path d="M269.746 124.06C269.746 121.744 269.883 119.477 268.573 117.452C267.973 116.524 267.178 115.738 266.242 115.149C265.306 114.56 264.253 114.183 263.155 114.043C261.627 113.854 262.105 114.063 254.246 114.301C254.075 114.308 253.913 114.381 253.795 114.505C253.676 114.629 253.61 114.793 253.61 114.964C253.61 115.135 253.676 115.3 253.795 115.423C253.913 115.547 254.075 115.62 254.246 115.628C259.946 115.86 261.324 115.145 263.467 115.6C264.708 115.877 265.832 116.531 266.686 117.472C267.54 118.413 268.081 119.596 268.234 120.856C268.371 123.152 268.38 125.454 268.26 127.751C268.26 130.405 268.505 146.354 268.547 151.713C268.624 153.771 267.939 155.784 266.622 157.369C265.305 158.953 263.449 159.996 261.409 160.299C260.147 160.509 159.17 175.579 158.543 175.649C157.401 175.79 156.242 175.617 155.191 175.149C154.14 174.682 153.236 173.937 152.577 172.995C151.126 170.882 151.455 168.182 151.379 165.737C151.325 163.994 151.244 162.277 151.172 160.559C151.142 159.883 150.107 159.883 150.129 160.559C150.404 168.895 149.817 170.756 151.197 173.204C151.969 174.541 153.13 175.611 154.526 176.271C155.923 176.931 157.487 177.15 159.012 176.898C161.225 176.586 254.646 162.932 261.723 161.73C263.373 161.466 264.929 160.789 266.246 159.76C267.562 158.732 268.596 157.387 269.25 155.85C270.569 152.667 269.746 151.318 269.746 124.06Z" fill="#3F3F3F"/>
<path d="M164.531 140.53C163.985 140.561 163.983 141.409 164.531 141.388C181.609 140.76 204.343 138.775 234.212 136.37C235.128 136.259 236.05 136.207 236.973 136.214C236.948 136.342 236.973 135.43 236.973 140.663C235.315 140.744 167.784 145.77 164.74 146.022C164.714 144.669 164.74 143.29 164.661 141.938C164.655 141.828 164.607 141.725 164.527 141.649C164.447 141.574 164.341 141.532 164.231 141.532C164.121 141.532 164.016 141.574 163.936 141.649C163.856 141.725 163.808 141.828 163.802 141.938C163.673 143.471 163.736 145.033 163.723 146.571C163.728 146.707 163.784 146.837 163.881 146.934C163.978 147.031 164.108 147.087 164.245 147.092C186.49 145.634 235.201 141.758 237.312 141.653C237.405 141.714 237.514 141.748 237.625 141.753C237.736 141.757 237.847 141.732 237.945 141.679C238.044 141.627 238.126 141.549 238.184 141.454C238.242 141.359 238.274 141.25 238.275 141.139C238.275 136.14 238.421 135.585 237.962 135.155C237.576 134.789 236.661 135.026 236.191 135.076C233.217 135.345 191.074 139.006 164.531 140.53Z" fill="#3F3F3F"/>
<path d="M163.933 159.262C163.933 157.909 163.927 156.531 163.855 155.177C163.849 155.068 163.801 154.964 163.721 154.889C163.641 154.813 163.535 154.771 163.425 154.771C163.315 154.771 163.209 154.813 163.129 154.889C163.049 154.964 163.001 155.068 162.995 155.177C162.921 156.713 162.918 158.274 162.918 159.81C162.918 159.941 162.971 160.067 163.063 160.159C163.156 160.252 163.282 160.304 163.413 160.304C202.824 156.947 252.949 150.035 259.559 149.507C259.653 149.564 259.761 149.596 259.871 149.599C259.981 149.602 260.091 149.576 260.188 149.524C260.285 149.472 260.367 149.396 260.426 149.303C260.485 149.209 260.518 149.103 260.523 148.993C260.563 143.806 260.672 142.933 259.636 142.852C259.508 142.841 174.618 152.773 163.725 153.857C163.178 153.912 163.177 154.758 163.725 154.715C192.373 152.337 257.437 144.127 259.167 144.127C259.167 144.77 259.272 146.026 259.272 146.233C259.272 147.015 259.246 147.796 259.246 148.601C257.969 148.639 174.202 158.398 163.933 159.262Z" fill="#3F3F3F"/>
<path d="M226.163 112.665C223.989 112.624 221.815 112.702 219.65 112.899C217.073 113.014 203.005 113.602 198.52 113.784C197.791 112.014 197.113 109.205 196.384 107.435C194.779 107.726 193.22 108.225 191.745 108.919C191.583 110.63 191.514 112.348 191.538 114.067C184.036 114.352 176.534 114.656 169.032 114.977C166.615 103.598 151.8 100.518 144.259 107.067C136.361 113.926 138.355 129.688 149.442 133.062C149.442 135.987 149.468 135.886 149.468 141.284C149.468 141.398 149.513 141.508 149.594 141.588C149.675 141.669 149.784 141.714 149.898 141.714C150.013 141.714 150.122 141.669 150.203 141.588C150.283 141.508 150.329 141.398 150.329 141.284C150.537 138.615 150.567 133.634 150.615 133.349C153.095 133.791 155.643 133.68 158.076 133.024C160.509 132.368 162.766 131.183 164.687 129.554C164.798 129.459 164.868 129.325 164.882 129.18C164.897 129.035 164.855 128.89 164.766 128.774C164.671 128.662 164.537 128.592 164.391 128.577C164.245 128.562 164.1 128.605 163.985 128.696C158.727 132.926 151.683 133.806 146.688 130.595C139.378 125.896 138.406 113.561 144.969 107.882C150.811 102.826 161.668 104.021 166.147 110.795C167.532 113.082 168.256 115.708 168.238 118.382C168.219 121.055 167.459 123.67 166.042 125.938C165.996 126.016 165.97 126.105 165.968 126.195C165.965 126.286 165.985 126.376 166.027 126.457C166.068 126.537 166.13 126.606 166.205 126.657C166.281 126.707 166.368 126.737 166.459 126.745C167.162 126.794 167.659 125.21 167.866 124.716C168.95 122.063 169.413 119.197 169.22 116.338C183.367 115.723 223.908 114.372 226.319 113.996C227.127 113.866 226.867 112.713 226.163 112.665Z" fill="#3F3F3F"/>
<path opacity="0.8" d="M177.811 126.244L176.607 126.327L175.749 123.756C175.717 123.665 175.66 123.475 175.579 123.189C175.499 122.9 175.451 122.705 175.435 122.606C175.43 122.73 175.41 122.93 175.374 123.206C175.339 123.481 175.31 123.677 175.289 123.795L174.8 126.454L173.6 126.537L171.979 121.641L173.019 121.569L173.847 124.245C173.993 124.74 174.105 125.169 174.181 125.534C174.185 125.403 174.202 125.201 174.231 124.927C174.261 124.651 174.293 124.437 174.326 124.283L174.856 121.44L175.855 121.371L176.777 124.113C176.818 124.235 176.871 124.423 176.937 124.677C177.003 124.931 177.055 125.148 177.092 125.331C177.103 125.152 177.124 124.929 177.155 124.662C177.187 124.392 177.217 124.174 177.246 124.008L177.69 121.243L178.73 121.17L177.811 126.244ZM181.083 122.856C180.862 122.872 180.695 122.954 180.579 123.104C180.464 123.251 180.406 123.454 180.406 123.712L181.866 123.61C181.843 123.354 181.762 123.161 181.623 123.031C181.483 122.899 181.303 122.841 181.083 122.856ZM181.455 126.058C180.841 126.101 180.349 125.965 179.98 125.65C179.611 125.336 179.404 124.868 179.361 124.248C179.316 123.609 179.441 123.104 179.735 122.735C180.031 122.362 180.46 122.156 181.024 122.117C181.563 122.079 181.993 122.204 182.315 122.489C182.636 122.775 182.816 123.189 182.854 123.73L182.889 124.234L180.431 124.406C180.463 124.701 180.567 124.925 180.742 125.08C180.917 125.234 181.153 125.301 181.448 125.281C181.678 125.265 181.893 125.226 182.094 125.164C182.296 125.102 182.504 125.011 182.719 124.89L182.776 125.695C182.6 125.799 182.411 125.879 182.207 125.937C182.003 125.997 181.752 126.037 181.455 126.058ZM188.887 125.471L187.684 125.555L186.825 122.984C186.793 122.892 186.737 122.703 186.655 122.416C186.575 122.127 186.527 121.933 186.511 121.834C186.506 121.957 186.486 122.157 186.451 122.434C186.415 122.708 186.387 122.904 186.365 123.022L185.877 125.681L184.676 125.765L183.055 120.869L184.095 120.796L184.923 123.472C185.07 123.967 185.181 124.397 185.257 124.761C185.262 124.631 185.278 124.429 185.307 124.155C185.338 123.879 185.37 123.664 185.402 123.511L185.933 120.668L186.932 120.598L187.854 123.34C187.894 123.463 187.948 123.651 188.013 123.905C188.079 124.158 188.131 124.376 188.169 124.558C188.179 124.38 188.2 124.156 188.232 123.889C188.263 123.62 188.293 123.402 188.323 123.235L188.766 120.47L189.806 120.398L188.887 125.471ZM191.495 123.367C191.522 123.744 191.603 124.025 191.74 124.21C191.878 124.395 192.087 124.477 192.367 124.457C192.644 124.438 192.836 124.329 192.943 124.129C193.053 123.928 193.094 123.637 193.067 123.257C193.041 122.88 192.96 122.601 192.824 122.421C192.688 122.241 192.48 122.161 192.2 122.18C191.923 122.2 191.73 122.308 191.62 122.505C191.51 122.7 191.469 122.987 191.495 123.367ZM194.131 123.183C194.175 123.804 194.045 124.3 193.742 124.673C193.439 125.046 192.996 125.253 192.412 125.294C192.046 125.319 191.717 125.262 191.427 125.123C191.136 124.981 190.905 124.765 190.734 124.475C190.563 124.186 190.463 123.841 190.435 123.441C190.391 122.818 190.52 122.323 190.821 121.955C191.122 121.586 191.566 121.382 192.155 121.341C192.521 121.315 192.849 121.372 193.14 121.512C193.431 121.651 193.662 121.865 193.833 122.152C194.004 122.439 194.103 122.783 194.131 123.183ZM197.08 120.997C197.221 120.987 197.338 120.989 197.433 121.003L197.423 121.984C197.337 121.967 197.234 121.963 197.114 121.971C196.782 121.994 196.529 122.098 196.354 122.281C196.182 122.465 196.107 122.71 196.128 123.017L196.264 124.957L195.224 125.029L194.957 121.217L195.745 121.162L195.943 121.793L195.994 121.789C196.097 121.567 196.244 121.384 196.435 121.241C196.628 121.095 196.843 121.014 197.08 120.997ZM199.349 122.658L199.762 122.047L200.747 120.813L201.92 120.732L200.522 122.491L202.28 124.537L201.08 124.621L199.873 123.153L199.452 123.542L199.535 124.729L198.495 124.801L198.123 119.496L199.163 119.423L199.329 121.789L199.335 122.659L199.349 122.658ZM203.893 123.688C203.807 124.155 203.645 124.714 203.408 125.363L202.657 125.415C202.763 124.8 202.838 124.222 202.882 123.68L203.836 123.613L203.893 123.688ZM211.468 123.896L210.125 123.99L207.692 120.37L207.661 120.372C207.751 121.035 207.806 121.509 207.826 121.793L207.99 124.139L207.046 124.205L206.696 119.22L208.029 119.127L210.456 122.709L210.48 122.708C210.401 122.062 210.351 121.605 210.333 121.337L210.167 118.978L211.119 118.911L211.468 123.896ZM214.172 120.761L215.068 118.636L216.207 118.557L214.766 121.717L214.902 123.657L213.852 123.73L213.719 121.824L211.849 118.861L212.995 118.781L214.172 120.761Z" fill="#BFBFBF"/>
</g>
<defs>
<clipPath id="clip0_1221_7887">
<rect width="285" height="158" fill="white"/>
</clipPath>
</defs>
</svg>
