<svg width="192" height="123" viewBox="0 0 192 123" fill="none" xmlns="http://www.w3.org/2000/svg">
<path d="M190.737 118.857C191.085 119.057 191.396 119.315 191.656 119.622C191.807 119.807 191.913 120.026 191.964 120.26C192.016 120.494 192.011 120.737 191.952 120.969C191.892 121.202 191.779 121.416 191.621 121.597C191.463 121.777 191.265 121.917 191.043 122.007C190.665 122.141 190.264 122.2 189.864 122.18C171.768 122.3 13.3472 124.167 9.95729 121.833C9.6672 121.642 9.4194 121.394 9.22935 121.103C9.03931 120.813 8.91108 120.486 8.85269 120.144C8.79429 119.801 8.80697 119.45 8.88994 119.113C8.97291 118.775 9.12438 118.459 9.33492 118.183C9.70272 117.809 10.11 117.477 10.5496 117.192C11.2207 116.699 12.5101 115.576 13.204 115.072L13.9042 115.415C13.6791 115.642 13.1293 116.061 12.2559 116.719C11.6937 117.143 11.0247 117.674 10.2612 118.335C10.0377 118.483 9.84895 118.677 9.70814 118.906C9.56734 119.134 9.47785 119.39 9.44591 119.656C9.42581 119.952 9.48204 120.248 9.6092 120.516C9.73636 120.784 9.93018 121.014 10.172 121.186C10.7764 121.474 11.4541 121.571 12.1149 121.463C13.871 121.495 189.105 121.137 189.991 121.203C190.407 121.234 191.001 121.098 191.049 120.594C191.127 119.792 190.151 119.716 180.449 112.531C179.904 112.147 179.388 111.722 178.906 111.262C180.453 111.926 185.884 115.797 190.737 118.857Z" fill="#263238"/>
<path d="M76.8007 94.0712C81.755 94.9924 98.8009 93.8651 94.3698 93.0292C89.4382 92.0984 72.3864 93.2506 76.8007 94.0712Z" fill="#263238"/>
<path d="M70.7616 28.8764C70.7616 27.2156 68.9025 25.5957 68.9025 23.9349C68.9025 22.2741 70.7616 20.6541 70.7616 18.9933V18.8748C70.7616 17.1486 69.3622 15.7493 67.636 15.7493H55.7163C53.5072 15.7493 51.7163 17.5401 51.7163 19.7493V30.7993C51.7163 33.0084 53.5072 34.7993 55.7163 34.7993H66.7616C68.9707 34.7993 70.7616 33.0084 70.7616 30.7993V28.8764ZM63.6196 26.7629C63.2292 27.0553 62.7665 26.9613 60.644 26.9613C59.6817 26.9549 58.7207 26.8887 57.7666 26.7629C57.6259 26.7568 57.4931 26.6966 57.3957 26.5949C57.2983 26.4932 57.244 26.3578 57.244 26.2169C57.244 26.0761 57.2983 25.9407 57.3957 25.839C57.4931 25.7373 57.6259 25.6771 57.7666 25.671C58.7285 25.6542 59.6889 25.588 60.644 25.4726C63.1166 25.4726 63.2612 25.3931 63.6196 25.5759C63.7208 25.6384 63.8044 25.7257 63.8624 25.8296C63.9203 25.9335 63.9508 26.0505 63.9508 26.1694C63.9508 26.2884 63.9203 26.4054 63.8624 26.5093C63.8044 26.6131 63.7208 26.7005 63.6196 26.7629ZM-nan -nanL65.7028 22.893C63.0175 22.7443 61.2916 22.298 57.6674 22.298C56.7702 22.3259 55.8726 22.2594 54.9893 22.0996C54.8816 22.0686 54.787 22.0034 54.7196 21.9139C54.6522 21.8243 54.6157 21.7153 54.6157 21.6032C54.6157 21.4911 54.6522 21.3821 54.7196 21.2925C54.787 21.203 54.8816 21.1378 54.9893 21.1068C57.3028 20.6182 63.8499 21.1616 65.9011 21.5035C66.0625 21.5536 66.2007 21.6595 66.291 21.8024C66.3814 21.9452 66.4179 22.1155 66.394 22.2828C66.3701 22.4501 66.2874 22.6034 66.1608 22.7152C66.0341 22.8271 65.8717 22.8901 65.7028 22.893L-nan -nanZ" fill="#F4F4F4"/>
<path d="M97.9385 23.6859C97.3036 23.6859 96.7564 24.1256 96.2093 24.4476C95.9077 24.6252 95.5589 24.7058 95.2099 24.6787C94.8647 24.6851 94.5245 24.5957 94.227 24.4204C93.6812 24.099 93.1284 23.6859 92.495 23.6859H89.5881C87.379 23.6859 85.5881 25.4768 85.5881 27.6859V38.7359C85.5881 40.945 87.379 42.7359 89.5881 42.7359H100.637C102.846 42.7359 104.637 40.945 104.637 38.7359V27.6859C104.637 25.4768 102.846 23.6859 100.637 23.6859H97.9385ZM94.9086 37.0751C94.7042 37.3388 94.3479 37.4164 94.0143 37.4159C94.0085 37.4159 94.0026 37.4159 93.9968 37.4159C93.681 37.4137 93.3645 37.3952 93.049 37.4089C92.3971 37.4373 91.744 37.4096 91.0968 37.326C90.8622 37.2958 90.6116 37.2555 90.4503 37.0825C90.428 37.0587 90.4073 37.0332 90.3883 37.0064C90.3 36.882 90.2527 36.7333 90.2527 36.5808C90.2527 36.4283 90.3 36.2796 90.3883 36.1552C90.4765 36.0309 90.6011 35.937 90.745 35.8866C91.1081 35.7652 91.3772 35.7807 93.9862 35.783C94.336 35.7833 94.7276 35.8061 94.9375 36.0861C95.0439 36.228 95.1041 36.3993 95.1097 36.5767C95.0909 36.7512 95.0259 36.9175 94.9213 37.0584C94.9171 37.0641 94.9129 37.0696 94.9086 37.0751ZM100.269 31.5249C98.7512 31.6524 97.2274 31.6869 95.7057 31.6282C94.1182 31.6282 92.6299 31.5249 91.1416 31.4299C90.988 31.4235 90.8428 31.3579 90.7364 31.2469C90.6299 31.136 90.5705 30.9881 90.5705 30.8343C90.5705 30.6805 90.6299 30.5327 90.7364 30.4217C90.8428 30.3107 90.988 30.2451 91.1416 30.2387C94.5345 30.0125 94.9806 30.0404 97.888 30.0404C98.6828 29.9757 99.4825 30.0104 100.269 30.1437C100.416 30.1894 100.545 30.281 100.637 30.4052C100.728 30.5294 100.778 30.6796 100.778 30.8339C100.778 30.9883 100.729 31.1386 100.637 31.2629C100.546 31.3869 100.418 31.4786 100.271 31.5246C100.27 31.5248 100.269 31.5249 100.269 31.5249Z" fill="#F4F4F4"/>
<path d="M71.655 54.0481C71.655 57.8302 71.749 57.7568 71.655 58.5131C72.9429 57.2227 75.3244 55.2361 76.5152 54.1473C74.8955 54.2611 73.2688 54.2279 71.655 54.0481Z" fill="#DFDFDF"/>
<path d="M73.4397 39.8599C73.3419 40.3671 73.0705 40.8243 72.6723 41.1531C72.274 41.4819 71.7738 41.6618 71.2574 41.6618C70.741 41.6618 70.2407 41.4819 69.8425 41.1531C69.4442 40.8243 69.1729 40.3671 69.075 39.8599H58.2634V58.9099H70.9599C70.5313 58.4812 70.7616 55.1351 70.5633 53.354C70.5737 53.1995 70.6397 53.054 70.749 52.9444C70.8584 52.8348 71.0038 52.7686 71.1582 52.7579C73.1999 52.9962 75.2602 53.0308 77.3087 52.8612V39.7608C73.0122 39.7608 73.4397 39.7163 73.4397 39.8599ZM70.7616 46.4086C70.2659 46.9045 69.2744 46.8053 68.5793 46.7062C67.1236 46.7592 65.6661 46.7247 64.2146 46.6028C63.4485 46.6428 62.6807 46.5761 61.933 46.4045C61.8039 46.3672 61.6904 46.289 61.6096 46.1816C61.5288 46.0742 61.4851 45.9434 61.4851 45.8089C61.4851 45.6745 61.5288 45.5437 61.6096 45.4363C61.6904 45.3289 61.8039 45.2506 61.933 45.2134C62.6847 45.07 63.453 45.0352 64.2146 45.11C65.6702 45.0585 67.1277 45.093 68.5793 45.2134C69.2744 45.2134 70.2659 45.1101 70.7616 45.6101C70.8587 45.7204 70.9123 45.8624 70.9123 46.0093C70.9123 46.1563 70.8587 46.2983 70.7616 46.4086Z" fill="#F4F4F4"/>
<path d="M71.1579 26.7624C71.3562 26.7624 71.4564 26.8658 71.6547 26.8658C73.2524 26.8658 74.2118 24.7603 72.3487 22.8967C70.5465 21.0939 68.0627 21.7603 68.3808 23.9886L68.6783 24.8812L67.4885 26.8658C67.5273 27.032 67.6002 27.1884 67.7026 27.325C67.805 27.4616 67.9347 27.5754 68.0834 27.6592L70.1665 26.4691C70.5672 26.5641 70.8605 26.6633 71.1579 26.7624ZM69.2742 23.7851C69.2742 23.5868 69.1709 23.0909 69.4725 22.8925C69.6511 22.7138 69.7482 22.6942 70.3648 22.6942C70.8502 22.8349 71.2896 23.1019 71.6381 23.468C71.9866 23.8341 72.2318 24.2861 72.3487 24.7779C72.3487 24.9763 72.452 25.4721 72.1504 25.6705C72.0254 25.7675 71.8805 25.8356 71.726 25.8699C71.5715 25.9042 71.4114 25.9038 71.2571 25.8688C70.7572 25.7406 70.3079 25.464 69.9682 25.0754C69.6615 24.6904 69.4264 24.2533 69.2742 23.7851Z" fill="#D42151"/>
<path d="M95.0121 20.9081C93.4144 21.3369 92.5851 22.8255 92.929 23.6861C93.0936 24.1161 93.3988 24.4777 93.7951 24.712C94.1914 24.9463 94.6552 25.0395 95.1112 24.9764L96.4011 26.961C96.5706 27.0054 96.748 27.0107 96.9198 26.9763C97.0916 26.942 97.2533 26.8689 97.3926 26.7626V24.3865C97.7881 24.1273 98.1259 23.7893 98.3851 23.3937C98.9076 21.2955 97.0291 20.3678 95.0121 20.9081ZM96.0046 24.0838C95.7688 24.1823 95.5159 24.233 95.2604 24.233C95.005 24.233 94.7521 24.1823 94.5163 24.0838C94.3181 23.9805 93.9215 23.8855 93.8223 23.4877C93.7906 23.3875 93.7835 23.2812 93.8014 23.1776C93.8194 23.0741 93.862 22.9763 93.9256 22.8927C94.0289 22.7894 94.0289 22.6943 94.1239 22.5952C94.4464 22.1868 94.903 21.9057 95.4128 21.8017C95.6485 21.7033 95.9014 21.6526 96.1569 21.6526C96.4123 21.6526 96.6653 21.7033 96.901 21.8017C97.0993 21.9051 97.4959 22.0001 97.595 22.3968C97.6307 22.5586 97.6219 22.727 97.5696 22.8842C97.5172 23.0414 97.4232 23.1814 97.2976 23.2894C96.9463 23.6663 96.4994 23.9408 96.0046 24.0838Z" fill="#D42151"/>
<path d="M73.1416 38.173C71.0895 37.1461 68.3104 38.642 68.5789 40.2567C68.6361 40.5588 68.7652 40.8426 68.9552 41.0843C69.1452 41.3259 69.3906 41.5183 69.6705 41.6452L70.5628 41.9438L71.4562 44.1267C71.7536 44.325 72.051 44.23 72.4476 44.1267L72.8442 41.7506C73.1415 41.6445 73.4122 41.4749 73.6374 41.2537C73.7406 41.1503 73.9358 41.0553 74.035 40.857C74.313 40.4864 74.4532 40.0305 74.4315 39.5677C74.1127 39.0111 73.6716 38.5342 73.1416 38.173ZM72.9433 40.5491C72.5439 40.8679 72.0659 41.0731 71.5597 41.1429C71.0535 41.2127 70.5378 41.1446 70.0671 40.9458C69.3442 40.5853 69.3731 40.2516 69.6705 39.6565C71.0937 38.2329 73.3399 38.9034 73.3399 39.7598C73.3115 40.0651 73.1696 40.3486 72.9423 40.5543L72.9433 40.5491Z" fill="#D42151"/>
<path fill-rule="evenodd" clip-rule="evenodd" d="M60.0478 71.9138L59.844 71.9139C59.9116 71.9139 59.9796 71.9139 60.0478 71.9138ZM58.603 71.9146L58.0096 71.9149C58.0033 71.9149 57.9971 71.9149 57.9909 71.9149H57.9886C46.1644 71.9212 45.1314 71.9218 45.1266 71.8578C45.1306 71.9218 46.1601 71.9213 57.9886 71.9149H57.9909C58.1918 71.9148 58.3958 71.9147 58.603 71.9146Z" fill="#F4F4F4"/>
<path fill-rule="evenodd" clip-rule="evenodd" d="M130.374 9.10111V69.4878C130.374 72.2493 128.136 74.4878 125.374 74.4878H45.3665C44.3408 74.4865 43.3575 74.0783 42.6323 73.3528C41.907 72.6274 41.4989 71.6439 41.4976 70.6179V9.20028C41.4989 8.17434 41.907 7.1908 42.6323 6.46535C43.3575 5.73989 44.3408 5.33173 45.3665 5.33037H81.7725C82.7729 4.55337 83.7023 3.68908 84.5498 2.74767C83.4591 0.0688917 87.1504 -0.836087 88.1213 0.862296C88.6294 1.74971 88.4229 2.7518 88.3196 2.64849C89.7356 3.35667 91.0668 4.2231 92.2877 5.23119H126.505C127.531 5.23256 128.514 5.64072 129.239 6.36617C129.965 7.09162 130.373 8.07516 130.374 9.10111ZM85.2449 3.54417C85.5382 3.68825 85.8606 3.76316 86.1873 3.76316C86.5141 3.76316 86.8365 3.68825 87.1298 3.54417C87.3281 3.64748 89.3121 5.13202 89.5053 5.33037H83.36C83.514 5.17414 83.9343 4.7807 84.3451 4.3962C84.7274 4.03829 85.1015 3.68811 85.2449 3.54417ZM45.1449 71.8377C45.1564 71.8291 45.1691 71.8195 45.1692 71.809C45.1059 71.8114 45.0427 71.8086 44.9801 71.8006C44.8872 71.7887 44.7959 71.7654 44.7083 71.7311C44.561 71.6735 44.4272 71.586 44.3154 71.4741C44.2035 71.3622 44.116 71.2284 44.0584 71.081C44.0007 70.9337 43.9742 70.776 43.9805 70.6179V9.20028C43.9744 9.04222 44.001 8.88461 44.0587 8.73734C44.1164 8.59006 44.2039 8.4563 44.3157 8.34446C44.4275 8.23261 44.5612 8.14509 44.7085 8.08739C44.8557 8.02969 45.0133 8.00304 45.1713 8.00914H126.314C126.472 8.00304 126.63 8.02969 126.777 8.08739C126.924 8.14509 127.058 8.23261 127.17 8.34446C127.282 8.4563 127.369 8.59006 127.427 8.73734C127.484 8.88461 127.511 9.04222 127.505 9.20028V66.9085C127.505 69.6698 125.297 71.9083 122.536 71.9085C107.654 71.9093 64.2145 71.9117 60.0478 71.9138L59.844 71.9139L58.603 71.9146L58.0096 71.9149L57.9909 71.9149H57.9886C46.1601 71.9213 45.1306 71.9218 45.1266 71.8578C45.1262 71.8517 45.1352 71.845 45.1449 71.8377Z" fill="#F4F4F4"/>
<path d="M39.7682 47.6406C39.7682 47.6406 39.552 51.9716 41.4972 51.9716C43.4424 51.9716 44.0908 41.5773 44.0908 41.5773L81.2653 71.8942C81.2653 71.8942 63.1103 71.8942 63.1103 72.7604C63.1103 73.6266 89.9106 74.4928 89.9106 74.4928L36.3101 76.6582L39.7682 47.6406Z" fill="white"/>
<path d="M130.543 69.044V11.2605C130.543 11.2605 130.111 18.19 128.814 18.19C127.517 18.19 127.517 9.09497 127.517 9.09497V68.4295C127.517 68.4295 128.814 63.2323 130.111 63.2323C130.543 63.2323 130.543 69.044 130.543 69.044Z" fill="white"/>
<path fill-rule="evenodd" clip-rule="evenodd" d="M158.572 90.7888C153.777 62.0126 169.88 60.0463 175.931 44.5793C181.942 29.2222 165.564 17.888 157.265 26.1896C156.933 25.8746 156.507 25.6776 156.052 25.6288C155.201 25.6319 154.377 25.9289 153.72 26.4696C152.764 27.0868 148 30.5275 147 31.4169C141.861 31.4169 131.647 33.6408 126.188 35.4311C124.435 35.932 122.719 36.5559 121.054 37.2983C120.774 37.5782 123.386 45.5134 124.974 47.194C124.647 52.1082 128.861 56.7543 133.467 58.2093C133.564 58.2093 141.491 65.4874 142.053 64.8372C144.229 62.3246 153.909 42.5557 153.909 39.8186C155.347 38.6999 160.693 33.5008 160.348 33.8439C160.765 33.5088 161.113 33.097 161.374 32.6309C161.541 31.9755 161.475 31.2825 161.188 30.6704C163.363 28.9306 165.205 28.7547 167.627 30.4838C168.643 31.1874 169.494 32.1023 170.122 33.1659C170.75 34.2294 171.141 35.4163 171.268 36.6451C171.699 41.782 168.485 46.3649 165.481 50.1808C159.476 57.805 155.354 60.7364 152.508 70.0645C150.483 76.7835 150.099 83.8906 151.389 90.7888L151.664 91.9124C151.85 92.9388 152.037 93.8729 152.224 94.8993C152.331 95.2321 152.393 95.5775 152.41 95.9267C146.064 97.7938 141.491 102.834 141.211 108.155C141.156 108.201 141.112 108.258 141.082 108.322C141.051 108.387 141.036 108.457 141.036 108.529C141.036 108.6 141.051 108.671 141.082 108.735C141.112 108.8 141.156 108.857 141.211 108.903C142.909 110.098 144.806 110.983 146.814 111.515C152.678 113.153 159.101 112.801 165.107 111.418C166.232 111.159 167.35 110.87 168.467 110.578C169.521 110.407 170.498 109.918 171.267 109.178C171.339 109.087 171.393 108.982 171.425 108.87C171.458 108.758 171.467 108.64 171.453 108.524C171.407 102.082 166.6 96.7635 159.695 95.4543C159.508 94.2413 159.228 93.0244 158.948 91.9076L158.572 90.7888ZM129.731 54.9415C131.616 56.5638 133.857 57.7398 136.357 57.4619L137.477 57.1819C137.44 57.144 137.422 57.1003 137.389 57.0178C137.224 56.6103 136.676 55.2561 131.411 48.9668C130.404 47.7642 129.305 46.6682 127.804 45.171L127.803 45.1702C127.555 44.9228 127.296 44.6644 127.025 44.3927C125.338 46.9237 125.617 51.4006 129.731 54.9415ZM141.955 62.5968C145.266 56.6763 148.227 50.5667 150.823 44.2994C151.382 42.7814 152.068 41.3137 152.875 39.9119C152.688 39.5387 152.339 36.9017 150.821 35.3378C147.449 31.8611 147.97 33.0148 147.182 32.4443C146.678 32.5006 146.179 32.5942 145.689 32.7242C137.978 33.8062 130.363 35.4916 122.916 37.7648C132.768 44.142 141.112 57.11 141.955 62.5968ZM153.624 38.418C154.365 37.6774 158.585 33.4765 159.41 32.8175C159.602 32.7358 159.757 32.585 159.843 32.3948C159.93 32.2046 159.942 31.9888 159.877 31.7901C159.877 30.3273 158.092 28.6332 156.983 27.6826C155.98 26.6795 155.829 26.7423 155.392 26.9236C155.312 26.9568 155.223 26.994 155.116 27.0294C154.023 27.691 152.964 28.4076 151.944 29.1765C151.164 29.8451 151.102 29.8917 150.795 30.1254C150.726 30.1778 150.645 30.2397 150.54 30.32C150.226 30.5611 149.703 30.969 148.677 31.7901C151.106 33.2921 152.875 35.6612 153.624 38.418ZM154.65 67.1689C153.105 71.2746 152.162 75.5823 151.85 79.9582V79.9601C151.544 85.9422 152.696 90.9556 153.477 94.3541C153.691 95.282 153.876 96.0896 153.997 96.7635C154.181 97.7948 156.144 97.7948 156.89 97.6976C157.145 97.7076 157.399 97.6529 157.627 97.5385C157.856 97.4241 158.052 97.2539 158.197 97.0435C158.227 96.953 158.249 96.9051 158.258 96.8548C158.292 96.6694 158.155 96.4527 157.636 93.9633C155.638 84.3583 155.363 73.7268 160.065 65.2104C161.647 62.3459 164.013 59.4837 166.435 56.5546C169.809 52.475 173.289 48.2657 174.905 43.7396C179.249 31.5695 168.819 22.9423 161.651 25.0689C160.333 25.5037 159.101 26.1673 158.012 27.0294C158.221 27.1564 158.409 27.3137 158.572 27.496C159.288 28.1207 159.914 28.8412 160.433 29.6372C160.446 29.6364 160.459 29.6383 160.471 29.6429C160.483 29.6474 160.494 29.6546 160.503 29.6638C160.513 29.673 160.52 29.684 160.524 29.6962C160.529 29.7084 160.531 29.7214 160.53 29.7344C160.934 29.2891 161.407 28.9111 161.93 28.6147C164.293 27.3628 166.879 28.3309 168.836 30.0143C169.845 30.8756 170.671 31.9311 171.264 33.118C171.857 34.3048 172.206 35.5989 172.289 36.9231C172.733 43.3633 168.057 48.892 163.251 54.575C159.869 58.573 156.423 62.6473 154.65 67.1689ZM159.788 96.6683C159.737 97.297 159.474 97.8896 159.041 98.3488L159.036 98.3508C158.006 99.0771 156.749 99.4077 155.495 99.2819C154.958 99.2684 154.431 99.1257 153.96 98.8659C153.488 98.6061 153.087 98.2367 152.788 97.789C152.695 97.789 152.318 97.1348 152.415 97.1348C146.628 98.8125 142.335 103.478 142.149 108.338C143.958 109.145 145.831 109.8 147.749 110.298C153.465 111.792 159.177 111.144 165.014 109.831C165.321 109.762 165.613 109.697 165.891 109.636C168.024 109.163 169.315 108.877 170.054 108.244C169.867 102.55 165.761 97.9756 159.788 96.6683Z" fill="#263238"/>
<path d="M69.7972 101.537L66.1796 99.9166C64.9861 99.387 67.7118 99.4142 27.6418 102.852C27.5208 102.863 27.4069 102.914 27.3176 102.997C27.2282 103.079 27.1685 103.189 27.1476 103.31C27.1267 103.43 27.1458 103.554 27.2019 103.662C27.258 103.77 27.3481 103.857 27.4581 103.909L31.3736 105.753C31.3817 105.598 30.497 105.824 69.7972 101.537Z" fill="#F4F4F4"/>
<path d="M78.9585 105.636L72.2791 102.657L33.6749 106.864C38.4254 109.108 38.7296 109.419 39.9138 109.325L78.7765 106.72C78.9 106.708 79.0161 106.655 79.1067 106.569C79.1973 106.484 79.2576 106.371 79.2783 106.248C79.299 106.125 79.2788 105.998 79.2211 105.888C79.1633 105.778 79.071 105.689 78.9585 105.636Z" fill="#F4F4F4"/>
<path d="M0.282634 63.1396C3.82401 73.7482 8.33363 84.1621 12.6787 94.4367C15.2645 100.552 15.8374 101.112 13.808 94.6254C11.2068 86.3156 8.55326 79.0079 5.40653 70.1187C5.13712 69.3501 2.81272 61.786 2.47348 61.821C3.07186 61.7732 5.02744 61.5218 6.32502 61.4518C21.0285 60.6565 35.6581 59.498 50.3748 59.6648C51.914 59.6822 51.7849 59.6645 52.0283 60.2187C56.3876 70.2397 60.1645 80.5064 63.3402 90.9671C65.4878 97.265 65.9922 97.7412 64.4654 91.2349C61.8863 80.2493 58.9023 69.1334 54.0384 58.8937C53.7498 58.3623 53.3193 57.9225 52.7953 57.6239C52.2714 57.3253 51.6748 57.1797 51.0729 57.2035C35.896 57.0142 20.7193 57.6027 5.60197 58.9668C3.91032 59.1436 0.70501 58.934 0.07914 60.99C-0.0744392 61.7105 -0.00338184 62.4611 0.282634 63.1396Z" fill="#263238"/>
<path d="M88.577 107.315C66.915 110.329 39.5173 112.21 38.1142 111.988C36.9474 111.69 35.8225 111.246 34.7658 110.667C31.9351 109.418 18.4653 103.543 15.8566 102.489C3.89086 97.6579 19.1606 105.522 31.5848 111.593C33.4321 112.656 35.3828 113.526 37.4065 114.189C40.5543 114.967 71.0211 112.553 85.7638 110.208C88.6702 109.739 93.2692 109.728 93.3686 107.825C93.3418 107.496 93.2195 107.182 93.0167 106.922C92.814 106.663 92.5398 106.469 92.2283 106.365C88.9926 104.959 85.5478 103.881 82.2481 102.663C61.6219 95.0606 58.7246 95.029 88.577 107.315Z" fill="#263238"/>
<path d="M24.9437 100.94C37.8113 101.009 62.2739 95.9955 62.4469 95.1134C62.5073 94.9345 61.9709 94.8036 60.7826 94.7658C52.5221 94.501 39.2571 97.3897 20.2263 99.5728C15.6905 100.093 20.5957 100.916 24.9437 100.94Z" fill="#263238"/>
<path d="M44.2746 69.5677C34.719 70.265 24.7724 70.7802 15.1369 71.3725C11.5111 71.5954 10.1995 71.9021 11.1347 73.3058C13.8814 77.427 15.8221 82.0369 17.7006 86.2309C18.4081 87.8097 19.5824 87.7855 24.8358 87.6076C32.3577 87.3524 43.3616 86.7321 51.2843 86.3194C55.4144 86.1046 55.8068 85.5674 55.5229 84.5358C54.263 79.9588 52.2847 75.4126 50.4487 70.8748C49.8496 69.3916 48.9791 69.2249 44.2746 69.5677Z" fill="#F4F4F4"/>
<path d="M30.004 80.8277C31.3892 80.735 32.7736 80.6424 34.1591 80.5611C34.7742 80.5252 34.4711 79.6143 33.8607 79.6507C32.4799 79.7362 31.094 79.8107 29.7072 79.8853C26.2624 80.0705 22.8128 80.256 19.426 80.6117C19.3289 80.6251 19.2491 80.6748 19.2033 80.7503C19.1575 80.8257 19.1494 80.921 19.1806 81.0161C19.2119 81.1112 19.28 81.1988 19.3707 81.2604C19.4614 81.3219 19.5677 81.3527 19.6671 81.3462C23.1365 81.2871 26.5726 81.0573 30.004 80.8277Z" fill="#263238"/>
<path d="M41.3881 80.1208C41.8377 80.0757 41.6286 79.2942 41.1265 79.3142C39.9517 79.3617 38.7821 79.4611 37.634 79.6001C37.1998 79.6522 37.435 80.3437 37.8722 80.335C39.0554 80.3099 40.2332 80.238 41.3881 80.1208Z" fill="#263238"/>
<path d="M49.3 79.6847C49.2562 79.7644 49.1794 79.8211 49.0833 79.8446C48.6515 79.9569 47.999 79.9734 44.3145 80.0665L43.6202 80.084C43.2046 80.0952 42.9958 79.4233 43.4121 79.3878L44.544 79.2922C47.874 79.0108 48.3811 78.968 48.839 79.0274C48.9446 79.0358 49.0512 79.0789 49.1397 79.1488C49.2283 79.2187 49.293 79.3109 49.3223 79.4091C49.3517 79.5072 49.3437 79.6049 49.3 79.6847Z" fill="#263238"/>
<path d="M24.8239 84.7211C25.3133 84.6727 25.7924 84.6253 26.253 84.5831C26.5289 84.558 26.9772 84.5254 27.5045 84.4871C28.9633 84.3811 31.0273 84.2311 31.7213 84.0742C32.2036 83.9651 31.8334 83.3308 31.5638 83.3402C28.866 83.4369 23.1187 83.9194 20.5134 84.3938C20.2775 84.4352 20.1998 85.0803 20.7114 85.0567C22.0453 84.996 23.4738 84.8547 24.8239 84.7211Z" fill="#263238"/>
<path d="M50.5457 82.447C50.6745 82.5109 50.9169 83.3578 50.8113 83.3983C50.4779 83.5249 49.3147 83.5915 48.6306 83.4423C48.6177 83.444 48.6018 83.4345 48.5838 83.4144C48.5658 83.3942 48.5461 83.3638 48.5257 83.3248C48.5054 83.2859 48.4848 83.2391 48.4652 83.1873C48.4456 83.1354 48.4273 83.0795 48.4114 83.0226C48.3955 82.9658 48.3823 82.9092 48.3726 82.856C48.3628 82.8028 48.3567 82.7541 48.3546 82.7127C48.3525 82.6713 48.3544 82.6379 48.3602 82.6146C48.3661 82.5912 48.3757 82.5783 48.3886 82.5766C48.7827 82.4431 50.1891 82.269 50.5457 82.447Z" fill="#263238"/>
<path fill-rule="evenodd" clip-rule="evenodd" d="M123.585 93.0895C123.097 93.5444 122.415 93.7264 121.765 93.5747L104.439 89.5291C102.789 89.1437 102.336 87.0083 103.688 85.9861L112.193 79.5566C112.634 79.2226 113.195 79.0867 113.741 79.1815L130.644 82.1156C132.273 82.3982 132.875 84.4212 131.667 85.5485L123.585 93.0895ZM121.756 98.2314C122.41 98.3871 123.1 98.2032 123.59 97.742L133.365 88.5396C133.867 88.0671 133.6 87.2239 132.918 87.1264C132.671 87.0911 132.421 87.1701 132.238 87.3411L123.591 95.4601C123.1 95.9212 122.41 96.1041 121.755 95.9467L103.1 91.4649C102.764 91.3842 102.41 91.4613 102.138 91.6743C101.391 92.2591 101.651 93.4479 102.574 93.6674L121.756 98.2314ZM132.954 91.7164C132.686 91.6652 132.409 91.7457 132.209 91.9328L123.587 100.029C123.098 100.487 122.412 100.671 121.76 100.517L103.095 96.1246C102.762 96.0463 102.412 96.1232 102.143 96.3337C101.396 96.9167 101.658 98.104 102.58 98.3194L121.764 102.8C122.413 102.951 123.095 102.769 123.583 102.315L133.377 93.1805C133.888 92.7034 133.641 91.8473 132.954 91.7164Z" fill="#D42151"/>
</svg>
