<svg width="192" height="123" viewBox="0 0 192 123" fill="none" xmlns="http://www.w3.org/2000/svg">
<path d="M190.737 118.857C191.085 119.057 191.396 119.315 191.656 119.622C191.807 119.807 191.913 120.026 191.964 120.26C192.016 120.494 192.011 120.737 191.952 120.969C191.892 121.202 191.779 121.416 191.621 121.597C191.463 121.777 191.265 121.917 191.043 122.007C190.665 122.141 190.264 122.2 189.864 122.18C171.768 122.3 13.3472 124.167 9.95729 121.833C9.6672 121.642 9.4194 121.394 9.22935 121.103C9.03931 120.813 8.91108 120.486 8.85269 120.144C8.79429 119.801 8.80697 119.45 8.88994 119.113C8.97291 118.775 9.12438 118.459 9.33492 118.183C9.70272 117.809 10.11 117.477 10.5496 117.192C11.2207 116.699 12.5101 115.576 13.204 115.072L13.9042 115.415C13.6791 115.642 13.1293 116.061 12.2559 116.719C11.6937 117.143 11.0247 117.674 10.2612 118.335C10.0377 118.483 9.84895 118.677 9.70814 118.906C9.56734 119.134 9.47785 119.39 9.44591 119.656C9.42581 119.952 9.48204 120.248 9.6092 120.516C9.73636 120.784 9.93018 121.014 10.172 121.186C10.7764 121.474 11.4541 121.571 12.1149 121.463C13.871 121.495 189.105 121.137 189.991 121.203C190.407 121.234 191.001 121.098 191.049 120.594C191.127 119.792 190.151 119.716 180.449 112.531C179.904 112.147 179.388 111.722 178.906 111.262C180.453 111.926 185.884 115.797 190.737 118.857Z" fill="#DFDFDF"/>
<path d="M76.8007 94.0712C81.755 94.9924 98.8009 93.8651 94.3698 93.0292C89.4382 92.0984 72.3864 93.2506 76.8007 94.0712Z" fill="#DFDFDF"/>
<path d="M70.7616 28.8764C70.7616 27.2156 68.9025 25.5957 68.9025 23.9349C68.9025 22.2741 70.7616 20.6541 70.7616 18.9933V18.8748C70.7616 17.1486 69.3622 15.7493 67.636 15.7493H55.7163C53.5072 15.7493 51.7163 17.5401 51.7163 19.7493V30.7993C51.7163 33.0084 53.5072 34.7993 55.7163 34.7993H66.7616C68.9707 34.7993 70.7616 33.0084 70.7616 30.7993V28.8764ZM63.6196 26.7629C63.2292 27.0553 62.7665 26.9613 60.644 26.9613C59.6817 26.9549 58.7207 26.8887 57.7666 26.7629C57.6259 26.7568 57.4931 26.6966 57.3957 26.5949C57.2983 26.4932 57.244 26.3578 57.244 26.2169C57.244 26.0761 57.2983 25.9407 57.3957 25.839C57.4931 25.7373 57.6259 25.6771 57.7666 25.671C58.7285 25.6542 59.6889 25.588 60.644 25.4726C63.1166 25.4726 63.2612 25.3931 63.6196 25.5759C63.7208 25.6384 63.8044 25.7257 63.8624 25.8296C63.9203 25.9335 63.9508 26.0505 63.9508 26.1694C63.9508 26.2884 63.9203 26.4054 63.8624 26.5093C63.8044 26.6131 63.7208 26.7005 63.6196 26.7629ZM-nan -nanL65.7028 22.893C63.0175 22.7443 61.2916 22.298 57.6674 22.298C56.7702 22.3259 55.8726 22.2594 54.9893 22.0996C54.8816 22.0686 54.787 22.0034 54.7196 21.9139C54.6522 21.8243 54.6157 21.7153 54.6157 21.6032C54.6157 21.4911 54.6522 21.3821 54.7196 21.2925C54.787 21.203 54.8816 21.1378 54.9893 21.1068C57.3028 20.6182 63.8499 21.1616 65.9011 21.5035C66.0625 21.5536 66.2007 21.6595 66.291 21.8024C66.3814 21.9452 66.4179 22.1155 66.394 22.2828C66.3701 22.4501 66.2874 22.6034 66.1608 22.7152C66.0341 22.8271 65.8717 22.8901 65.7028 22.893L-nan -nanZ" fill="#3F3F3F"/>
<path d="M97.9385 23.6858C97.3036 23.6858 96.7564 24.1255 96.2093 24.4475C95.9077 24.625 95.5589 24.7057 95.2099 24.6786C94.8647 24.6849 94.5245 24.5955 94.227 24.4203C93.6812 24.0988 93.1284 23.6858 92.495 23.6858H89.5881C87.379 23.6858 85.5881 25.4767 85.5881 27.6858V38.7358C85.5881 40.9449 87.379 42.7358 89.5881 42.7358H100.637C102.846 42.7358 104.637 40.9449 104.637 38.7358V27.6858C104.637 25.4767 102.846 23.6858 100.637 23.6858H97.9385ZM94.9086 37.075C94.7042 37.3386 94.3479 37.4163 94.0143 37.4158C94.0085 37.4158 94.0026 37.4158 93.9968 37.4157C93.681 37.4136 93.3645 37.3951 93.049 37.4088C92.3971 37.4372 91.744 37.4095 91.0968 37.3259C90.8622 37.2956 90.6116 37.2554 90.4503 37.0824C90.428 37.0585 90.4073 37.0331 90.3883 37.0063C90.3 36.8819 90.2527 36.7332 90.2527 36.5807C90.2527 36.4282 90.3 36.2795 90.3883 36.1551C90.4765 36.0307 90.6011 35.9369 90.745 35.8865C91.1081 35.7651 91.3772 35.7806 93.9862 35.7829C94.336 35.7832 94.7276 35.806 94.9375 36.0859C95.0439 36.2279 95.1041 36.3992 95.1097 36.5766C95.0909 36.7511 95.0259 36.9174 94.9213 37.0583C94.9171 37.0639 94.9129 37.0695 94.9086 37.075ZM100.269 31.5248C98.7512 31.6523 97.2274 31.6868 95.7057 31.6281C94.1182 31.6281 92.6299 31.5248 91.1416 31.4298C90.988 31.4234 90.8428 31.3578 90.7364 31.2468C90.6299 31.1358 90.5705 30.988 90.5705 30.8342C90.5705 30.6804 90.6299 30.5325 90.7364 30.4216C90.8428 30.3106 90.988 30.245 91.1416 30.2386C94.5345 30.0124 94.9806 30.0403 97.888 30.0403C98.6828 29.9756 99.4825 30.0103 100.269 30.1436C100.416 30.1892 100.545 30.2809 100.637 30.405C100.728 30.5292 100.778 30.6795 100.778 30.8338C100.778 30.9881 100.729 31.1384 100.637 31.2628C100.546 31.3868 100.418 31.4785 100.271 31.5245C100.27 31.5247 100.269 31.5248 100.269 31.5248Z" fill="#3F3F3F"/>
<path d="M71.655 54.0481C71.655 57.8302 71.749 57.7568 71.655 58.5131C72.9429 57.2227 75.3244 55.2361 76.5152 54.1473C74.8955 54.2611 73.2688 54.2279 71.655 54.0481Z" fill="#2A2A2A"/>
<path d="M73.4397 39.8598C73.3419 40.367 73.0705 40.8242 72.6723 41.153C72.274 41.4818 71.7738 41.6617 71.2574 41.6617C70.741 41.6617 70.2407 41.4818 69.8425 41.153C69.4442 40.8242 69.1729 40.367 69.075 39.8598H58.2634V58.9098H70.9599C70.5313 58.4811 70.7616 55.1349 70.5633 53.3539C70.5737 53.1994 70.6397 53.0539 70.749 52.9443C70.8584 52.8347 71.0038 52.7685 71.1582 52.7578C73.1999 52.9961 75.2602 53.0307 77.3087 52.8611V39.7606C73.0122 39.7606 73.4397 39.7162 73.4397 39.8598ZM70.7616 46.4085C70.2659 46.9044 69.2744 46.8052 68.5793 46.706C67.1236 46.7591 65.6661 46.7246 64.2146 46.6027C63.4485 46.6427 62.6807 46.576 61.933 46.4044C61.8039 46.3671 61.6904 46.2889 61.6096 46.1815C61.5288 46.074 61.4851 45.9432 61.4851 45.8088C61.4851 45.6744 61.5288 45.5436 61.6096 45.4362C61.6904 45.3287 61.8039 45.2505 61.933 45.2132C62.6847 45.0699 63.453 45.0351 64.2146 45.1099C65.6702 45.0584 67.1277 45.0929 68.5793 45.2132C69.2744 45.2132 70.2659 45.1099 70.7616 45.6099C70.8587 45.7203 70.9123 45.8622 70.9123 46.0092C70.9123 46.1562 70.8587 46.2982 70.7616 46.4085Z" fill="#3F3F3F"/>
<path d="M71.1579 26.7626C71.3562 26.7626 71.4564 26.8659 71.6547 26.8659C73.2524 26.8659 74.2118 24.7605 72.3487 22.8968C70.5465 21.0941 68.0627 21.7604 68.3808 23.9888L68.6783 24.8813L67.4885 26.8659C67.5273 27.0322 67.6002 27.1885 67.7026 27.3251C67.805 27.4617 67.9347 27.5755 68.0834 27.6593L70.1665 26.4692C70.5672 26.5642 70.8605 26.6634 71.1579 26.7626ZM69.2742 23.7852C69.2742 23.5869 69.1709 23.091 69.4725 22.8927C69.6511 22.7139 69.7482 22.6943 70.3648 22.6943C70.8502 22.835 71.2896 23.1021 71.6381 23.4681C71.9866 23.8342 72.2318 24.2862 72.3487 24.778C72.3487 24.9764 72.452 25.4723 72.1504 25.6706C72.0254 25.7676 71.8805 25.8357 71.726 25.87C71.5715 25.9043 71.4114 25.904 71.2571 25.869C70.7572 25.7408 70.3079 25.4641 69.9682 25.0756C69.6615 24.6905 69.4264 24.2535 69.2742 23.7852Z" fill="#D42151"/>
<path d="M95.0121 20.9081C93.4144 21.3369 92.5851 22.8255 92.929 23.6861C93.0936 24.1161 93.3988 24.4777 93.7951 24.712C94.1914 24.9463 94.6552 25.0395 95.1112 24.9764L96.4011 26.961C96.5706 27.0054 96.748 27.0107 96.9198 26.9763C97.0916 26.942 97.2533 26.8689 97.3926 26.7626V24.3865C97.7881 24.1273 98.1259 23.7893 98.3851 23.3937C98.9076 21.2955 97.0291 20.3678 95.0121 20.9081ZM96.0046 24.0838C95.7688 24.1823 95.5159 24.233 95.2604 24.233C95.005 24.233 94.7521 24.1823 94.5163 24.0838C94.3181 23.9805 93.9215 23.8855 93.8223 23.4877C93.7906 23.3875 93.7835 23.2812 93.8014 23.1776C93.8194 23.0741 93.862 22.9763 93.9256 22.8927C94.0289 22.7894 94.0289 22.6943 94.1239 22.5952C94.4464 22.1868 94.903 21.9057 95.4128 21.8017C95.6485 21.7033 95.9014 21.6526 96.1569 21.6526C96.4123 21.6526 96.6653 21.7033 96.901 21.8017C97.0993 21.9051 97.4959 22.0001 97.595 22.3968C97.6307 22.5586 97.6219 22.727 97.5696 22.8842C97.5172 23.0414 97.4232 23.1814 97.2976 23.2894C96.9463 23.6663 96.4994 23.9408 96.0046 24.0838Z" fill="#D42151"/>
<path d="M73.1416 38.1729C71.0895 37.146 68.3104 38.6419 68.5789 40.2566C68.6361 40.5587 68.7652 40.8425 68.9552 41.0842C69.1452 41.3258 69.3906 41.5182 69.6705 41.6451L70.5628 41.9436L71.4562 44.1265C71.7536 44.3249 72.051 44.2298 72.4476 44.1265L72.8442 41.7504C73.1415 41.6444 73.4122 41.4748 73.6374 41.2535C73.7406 41.1502 73.9358 41.0552 74.035 40.8568C74.313 40.4863 74.4532 40.0304 74.4315 39.5676C74.1127 39.011 73.6716 38.5341 73.1416 38.1729ZM72.9433 40.549C72.5439 40.8678 72.0659 41.073 71.5597 41.1428C71.0535 41.2126 70.5378 41.1445 70.0671 40.9457C69.3442 40.5851 69.3731 40.2514 69.6705 39.6564C71.0937 38.2328 73.3399 38.9033 73.3399 39.7597C73.3115 40.065 73.1696 40.3485 72.9423 40.5541L72.9433 40.549Z" fill="#D42151"/>
<path fill-rule="evenodd" clip-rule="evenodd" d="M60.0478 71.9138L59.844 71.9139C59.9116 71.9139 59.9796 71.9139 60.0478 71.9138ZM58.603 71.9146L58.0096 71.9149C58.0033 71.9149 57.9971 71.9149 57.9909 71.9149H57.9886C46.1644 71.9212 45.1314 71.9218 45.1266 71.8578C45.1306 71.9218 46.1601 71.9213 57.9886 71.9149H57.9909C58.1918 71.9148 58.3958 71.9147 58.603 71.9146Z" fill="#3F3F3F"/>
<path fill-rule="evenodd" clip-rule="evenodd" d="M130.374 9.10111V74.4878H45.3665C44.3408 74.4865 43.3575 74.0783 42.6323 73.3528C41.907 72.6274 41.4989 71.6439 41.4976 70.6179V9.20028C41.4989 8.17434 41.907 7.1908 42.6323 6.46535C43.3575 5.73989 44.3408 5.33173 45.3665 5.33037H81.7725C82.7729 4.55337 83.7023 3.68908 84.5498 2.74767C83.4591 0.0688917 87.1504 -0.836087 88.1213 0.862296C88.6294 1.74971 88.4229 2.7518 88.3196 2.64849C89.7356 3.35667 91.0668 4.2231 92.2877 5.23119H126.505C127.531 5.23256 128.514 5.64072 129.239 6.36617C129.965 7.09162 130.373 8.07516 130.374 9.10111ZM85.2449 3.54417C85.5382 3.68825 85.8606 3.76316 86.1873 3.76316C86.5141 3.76316 86.8365 3.68825 87.1298 3.54417C87.3281 3.64748 89.3121 5.13202 89.5053 5.33037H83.36C83.514 5.17414 83.9343 4.7807 84.3451 4.3962C84.7274 4.03829 85.1015 3.68811 85.2449 3.54417ZM45.1449 71.8377C45.1564 71.8291 45.1691 71.8195 45.1692 71.809C45.1059 71.8114 45.0427 71.8086 44.9801 71.8006C44.8872 71.7887 44.7959 71.7654 44.7083 71.7311C44.561 71.6735 44.4272 71.586 44.3154 71.4741C44.2035 71.3622 44.116 71.2284 44.0584 71.081C44.0007 70.9337 43.9742 70.776 43.9805 70.6179V9.20028C43.9744 9.04222 44.001 8.88461 44.0587 8.73734C44.1164 8.59006 44.2039 8.4563 44.3157 8.34446C44.4275 8.23261 44.5612 8.14509 44.7085 8.08739C44.8557 8.02969 45.0133 8.00304 45.1713 8.00914H126.314C126.472 8.00304 126.63 8.02969 126.777 8.08739C126.924 8.14509 127.058 8.23261 127.17 8.34446C127.282 8.4563 127.369 8.59006 127.427 8.73734C127.484 8.88461 127.511 9.04222 127.505 9.20028V71.9082C127.505 71.9082 65.0845 71.9112 60.0478 71.9138L59.844 71.9139L58.603 71.9146L58.0096 71.9149L57.9909 71.9149H57.9886C46.1601 71.9213 45.1306 71.9218 45.1266 71.8578C45.1262 71.8517 45.1352 71.845 45.1449 71.8377Z" fill="#3F3F3F"/>
<path d="M39.7682 47.6405C39.7682 47.6405 39.552 51.9715 41.4972 51.9715C43.4424 51.9715 44.0908 41.5771 44.0908 41.5771L81.2653 71.894C81.2653 71.894 63.1103 71.894 63.1103 72.7602C63.1103 73.6264 89.9106 74.4926 89.9106 74.4926L36.3101 76.6581L39.7682 47.6405Z" fill="#202020"/>
<path d="M130.543 69.044V11.2605C130.543 11.2605 130.111 18.19 128.814 18.19C127.517 18.19 127.517 9.09497 127.517 9.09497V68.4295C127.517 68.4295 128.814 63.2323 130.111 63.2323C130.543 63.2323 130.543 69.044 130.543 69.044Z" fill="#202020"/>
<path fill-rule="evenodd" clip-rule="evenodd" d="M158.572 90.789C153.777 62.0128 169.88 60.0465 175.931 44.5795C181.942 29.2223 165.564 17.8881 157.265 26.1897C156.933 25.8748 156.507 25.6777 156.052 25.6289C155.201 25.632 154.377 25.929 153.72 26.4697C152.764 27.0869 148 30.5277 147 31.417C141.861 31.417 131.647 33.6409 126.188 35.4313C124.435 35.9321 122.719 36.556 121.054 37.2984C120.774 37.5783 123.386 45.5135 124.974 47.1941C124.647 52.1084 128.861 56.7544 133.467 58.2094C133.564 58.2094 141.491 65.4876 142.053 64.8373C144.229 62.3248 153.909 42.5558 153.909 39.8187C155.347 38.7 160.693 33.5009 160.348 33.844C160.765 33.5089 161.113 33.0972 161.374 32.631C161.541 31.9757 161.475 31.2826 161.188 30.6705C163.363 28.9307 165.205 28.7548 167.627 30.4839C168.643 31.1875 169.494 32.1025 170.122 33.166C170.75 34.2295 171.141 35.4164 171.268 36.6453C171.699 41.7821 168.485 46.365 165.481 50.1809C159.476 57.8051 155.354 60.7366 152.508 70.0646C150.483 76.7836 150.099 83.8907 151.389 90.789L151.664 91.9126C151.85 92.939 152.037 93.873 152.224 94.8994C152.331 95.2322 152.393 95.5776 152.41 95.9268C146.064 97.794 141.491 102.835 141.211 108.155C141.156 108.201 141.112 108.258 141.082 108.323C141.051 108.387 141.036 108.458 141.036 108.529C141.036 108.6 141.051 108.671 141.082 108.735C141.112 108.8 141.156 108.857 141.211 108.903C142.909 110.098 144.806 110.983 146.814 111.515C152.678 113.153 159.101 112.801 165.107 111.418C166.232 111.16 167.35 110.87 168.467 110.578C169.521 110.407 170.498 109.919 171.267 109.178C171.339 109.087 171.393 108.982 171.425 108.87C171.458 108.758 171.467 108.64 171.453 108.525C171.407 102.082 166.6 96.7637 159.695 95.4544C159.508 94.2414 159.228 93.0245 158.948 91.9077L158.572 90.789ZM129.731 54.9417C131.616 56.5639 133.857 57.74 136.357 57.462L137.477 57.1821C137.44 57.1441 137.422 57.1004 137.389 57.0179C137.224 56.6105 136.676 55.2563 131.411 48.9669C130.404 47.7643 129.305 46.6683 127.804 45.1711L127.803 45.1704C127.555 44.9229 127.296 44.6645 127.025 44.3928C125.338 46.9239 125.617 51.4008 129.731 54.9417ZM141.955 62.5969C145.266 56.6764 148.227 50.5668 150.823 44.2995C151.382 42.7816 152.068 41.3138 152.875 39.9121C152.688 39.5388 152.339 36.9019 150.821 35.338C147.449 31.8612 147.97 33.0149 147.182 32.4444C146.678 32.5008 146.179 32.5943 145.689 32.7243C137.978 33.8063 130.363 35.4917 122.916 37.765C132.768 44.1421 141.112 57.1101 141.955 62.5969ZM153.624 38.4181C154.365 37.6775 158.585 33.4766 159.41 32.8176C159.602 32.736 159.757 32.5851 159.843 32.3949C159.93 32.2047 159.942 31.9889 159.877 31.7903C159.877 30.3274 158.092 28.6333 156.983 27.6827C155.98 26.6797 155.829 26.7424 155.392 26.9237C155.312 26.957 155.223 26.9942 155.116 27.0295C154.023 27.6911 152.964 28.4077 151.944 29.1766C151.164 29.8452 151.102 29.8919 150.795 30.1255C150.726 30.1779 150.645 30.2398 150.54 30.3202C150.226 30.5612 149.703 30.9691 148.677 31.7903C151.106 33.2923 152.875 35.6614 153.624 38.4181ZM154.65 67.1691C153.105 71.2747 152.162 75.5825 151.85 79.9583V79.9602C151.544 85.9423 152.696 90.9557 153.477 94.3542C153.691 95.2822 153.876 96.0897 153.997 96.7637C154.181 97.7949 156.144 97.7949 156.89 97.6977C157.145 97.7077 157.399 97.653 157.627 97.5386C157.856 97.4243 158.052 97.254 158.197 97.0436C158.227 96.9532 158.249 96.9052 158.258 96.8549C158.292 96.6695 158.155 96.4528 157.636 93.9634C155.638 84.3584 155.363 73.727 160.065 65.2105C161.647 62.346 164.013 59.4838 166.435 56.5547C169.809 52.4751 173.289 48.2658 174.905 43.7397C179.249 31.5696 168.819 22.9424 161.651 25.0691C160.333 25.5038 159.101 26.1674 158.012 27.0295C158.221 27.1566 158.409 27.3138 158.572 27.4961C159.288 28.1208 159.914 28.8413 160.433 29.6373C160.446 29.6365 160.459 29.6384 160.471 29.643C160.483 29.6476 160.494 29.6547 160.503 29.6639C160.513 29.6731 160.52 29.6842 160.524 29.6963C160.529 29.7085 160.531 29.7215 160.53 29.7345C160.934 29.2892 161.407 28.9113 161.93 28.6148C164.293 27.3629 166.879 28.331 168.836 30.0145C169.845 30.8758 170.671 31.9312 171.264 33.1181C171.857 34.3049 172.206 35.599 172.289 36.9232C172.733 43.3634 168.057 48.8921 163.251 54.5752C159.869 58.5731 156.423 62.6474 154.65 67.1691ZM159.788 96.6684C159.737 97.2971 159.474 97.8897 159.041 98.349L159.036 98.3509C158.006 99.0772 156.749 99.4078 155.495 99.2821C154.958 99.2685 154.431 99.1259 153.96 98.866C153.488 98.6062 153.087 98.2368 152.788 97.7891C152.695 97.7891 152.318 97.135 152.415 97.135C146.628 98.8126 142.335 103.478 142.149 108.338C143.958 109.145 145.831 109.8 147.749 110.298C153.465 111.792 159.177 111.144 165.014 109.831C165.321 109.762 165.613 109.697 165.891 109.636C168.024 109.164 169.315 108.878 170.054 108.245C169.867 102.55 165.761 97.9757 159.788 96.6684Z" fill="#DFDFDF"/>
<path d="M0.282634 63.1396C3.82401 73.7482 8.33363 84.1621 12.6787 94.4367C15.2645 100.552 15.8374 101.112 13.808 94.6254C11.2068 86.3156 8.55326 79.0079 5.40653 70.1187C5.13712 69.3501 2.81272 61.786 2.47348 61.821C3.07186 61.7732 5.02744 61.5218 6.32502 61.4518C21.0285 60.6565 35.6581 59.498 50.3748 59.6648C51.914 59.6822 51.7849 59.6645 52.0283 60.2187C56.3876 70.2397 60.1645 80.5064 63.3402 90.9671C65.4878 97.265 65.9922 97.7412 64.4654 91.2349C61.8863 80.2493 58.9023 69.1334 54.0384 58.8937C53.7498 58.3623 53.3193 57.9225 52.7953 57.6239C52.2714 57.3253 51.6748 57.1797 51.0729 57.2035C35.896 57.0142 20.7193 57.6027 5.60197 58.9668C3.91032 59.1436 0.70501 58.934 0.07914 60.99C-0.0744392 61.7105 -0.00338182 62.4611 0.282634 63.1396Z" fill="#DFDFDF"/>
<path d="M88.577 107.315C66.915 110.329 39.5173 112.21 38.1142 111.988C36.9474 111.69 35.8225 111.246 34.7658 110.667C31.9351 109.418 18.4653 103.543 15.8566 102.489C3.89086 97.6579 19.1606 105.522 31.5848 111.593C33.4321 112.656 35.3828 113.526 37.4065 114.189C40.5543 114.967 71.0211 112.553 85.7638 110.208C88.6702 109.739 93.2692 109.728 93.3686 107.825C93.3418 107.496 93.2195 107.182 93.0167 106.922C92.814 106.663 92.5398 106.469 92.2283 106.365C88.9926 104.959 85.5478 103.881 82.2481 102.663C61.6219 95.0606 58.7246 95.029 88.577 107.315Z" fill="#DFDFDF"/>
<path d="M24.9437 100.94C37.8113 101.009 62.2739 95.9955 62.4469 95.1134C62.5073 94.9345 61.9709 94.8036 60.7826 94.7658C52.5221 94.501 39.2571 97.3897 20.2263 99.5728C15.6905 100.093 20.5957 100.916 24.9437 100.94Z" fill="#DFDFDF"/>
<path d="M66.1796 99.9165L69.7973 101.537L31.3736 105.753L27.4581 103.909C27.3481 103.857 27.2581 103.77 27.2019 103.662C27.1458 103.554 27.1268 103.43 27.1476 103.31C27.1685 103.189 27.2283 103.079 27.3176 102.996C27.4069 102.914 27.5208 102.863 27.6418 102.851L66.1796 99.9165Z" fill="#3F3F3F"/>
<path d="M39.9138 109.325C38.7296 109.418 38.4254 109.108 33.6749 106.864L72 102.996L78.9585 105.636C79.0711 105.689 79.1633 105.777 79.2211 105.888C79.2789 105.998 79.299 106.125 79.2783 106.248C79.2576 106.371 79.1974 106.484 79.1067 106.569C79.0161 106.655 78.9001 106.708 78.7765 106.72L39.9138 109.325Z" fill="#3F3F3F"/>
<path d="M50.5456 82.447C50.6744 82.5109 50.9168 83.3578 50.8112 83.3982C50.4779 83.5249 49.3146 83.5914 48.6305 83.4423C48.6176 83.444 48.6017 83.4345 48.5838 83.4144C48.5658 83.3942 48.546 83.3638 48.5257 83.3248C48.5053 83.2859 48.4847 83.2391 48.4651 83.1873C48.4455 83.1354 48.4272 83.0795 48.4113 83.0226C48.3954 82.9658 48.3822 82.9092 48.3725 82.856C48.3627 82.8028 48.3566 82.7541 48.3545 82.7127C48.3524 82.6713 48.3543 82.6379 48.3602 82.6146C48.366 82.5912 48.3756 82.5783 48.3885 82.5766C48.7826 82.4431 50.189 82.269 50.5456 82.447Z" fill="#3F3F3F"/>
<path fill-rule="evenodd" clip-rule="evenodd" d="M15.1368 71.3725C11.511 71.5954 10.1995 71.9021 11.1346 73.3058C13.8813 77.4269 15.822 82.0369 17.7005 86.2309C18.408 87.8097 19.5824 87.7855 24.8357 87.6076C32.3576 87.3524 43.3615 86.7321 51.2842 86.3194C55.4143 86.1046 55.8067 85.5674 55.5228 84.5358C54.2629 79.9588 52.2846 75.4126 50.4486 70.8748C49.8495 69.3916 48.979 69.2248 44.2745 69.5677L15.1368 71.3725ZM30.0039 80.8277C31.3891 80.735 32.7735 80.6424 34.159 80.5611C34.7741 80.5252 34.4711 79.6143 33.8606 79.6507C32.4798 79.7362 31.0939 79.8107 29.7071 79.8853C26.2623 80.0705 22.8127 80.256 19.4259 80.6117C19.3288 80.6251 19.249 80.6748 19.2032 80.7502C19.1575 80.8257 19.1493 80.921 19.1806 81.0161C19.2118 81.1112 19.2799 81.1988 19.3706 81.2604C19.4613 81.3219 19.5676 81.3527 19.667 81.3462C23.1364 81.2871 26.5725 81.0572 30.0039 80.8277ZM41.388 80.1208C41.8376 80.0757 41.6285 79.2942 41.1264 79.3142C39.9516 79.3617 38.7821 79.4611 37.6339 79.6001C37.1997 79.6522 37.4349 80.3437 37.8721 80.335C39.0553 80.3099 40.2331 80.238 41.388 80.1208ZM49.2999 79.6846C49.2561 79.7644 49.1794 79.8211 49.0833 79.8446C48.6515 79.9569 47.9989 79.9734 44.3144 80.0665L43.6201 80.084C43.2046 80.0952 42.9957 79.4232 43.412 79.3878L44.5439 79.2922C47.8739 79.0108 48.381 78.9679 48.8389 79.0273C48.9445 79.0358 49.0511 79.0788 49.1396 79.1488C49.2282 79.2187 49.2929 79.3109 49.3222 79.4091C49.3516 79.5072 49.3437 79.6049 49.2999 79.6846ZM24.8238 84.7211C25.3132 84.6727 25.7923 84.6253 26.2529 84.5831C26.5288 84.558 26.9771 84.5254 27.5044 84.4871C28.9633 84.3811 31.0272 84.2311 31.7212 84.0742C32.2036 83.9651 31.8333 83.3308 31.5637 83.3402C28.8659 83.4369 23.1186 83.9193 20.5133 84.3937C20.2774 84.4352 20.1997 85.0803 20.7113 85.0567C22.0453 84.996 23.4737 84.8547 24.8238 84.7211ZM50.5456 82.447C50.6744 82.5109 50.9168 83.3578 50.8112 83.3982C50.4779 83.5249 49.3146 83.5914 48.6305 83.4423C48.6176 83.444 48.6017 83.4345 48.5838 83.4144C48.5658 83.3942 48.546 83.3638 48.5257 83.3248C48.5053 83.2859 48.4847 83.2391 48.4651 83.1873C48.4455 83.1354 48.4272 83.0795 48.4113 83.0226C48.3954 82.9658 48.3822 82.9092 48.3725 82.856C48.3627 82.8028 48.3566 82.7541 48.3545 82.7127C48.3524 82.6713 48.3543 82.6379 48.3602 82.6146C48.366 82.5912 48.3756 82.5783 48.3885 82.5766C48.7826 82.4431 50.189 82.269 50.5456 82.447Z" fill="#3F3F3F"/>
<path d="M34.159 80.5611C32.7735 80.6424 31.3891 80.735 30.0039 80.8277C26.5725 81.0572 23.1364 81.2871 19.667 81.3462C19.5676 81.3527 19.4613 81.3219 19.3706 81.2604C19.2799 81.1988 19.2118 81.1112 19.1806 81.0161C19.1493 80.921 19.1575 80.8257 19.2032 80.7502C19.249 80.6748 19.3288 80.6251 19.4259 80.6117C22.8127 80.256 26.2623 80.0705 29.7071 79.8853C31.0939 79.8107 32.4798 79.7362 33.8606 79.6507C34.4711 79.6143 34.7741 80.5252 34.159 80.5611Z" fill="#DFDFDF"/>
<path d="M41.1264 79.3142C41.6285 79.2942 41.8376 80.0757 41.388 80.1208C40.2331 80.238 39.0553 80.3099 37.8721 80.335C37.4349 80.3437 37.1997 79.6522 37.6339 79.6001C38.7821 79.4611 39.9516 79.3617 41.1264 79.3142Z" fill="#DFDFDF"/>
<path d="M49.0833 79.8446C49.1794 79.8211 49.2561 79.7644 49.2999 79.6846C49.3437 79.6049 49.3516 79.5072 49.3222 79.4091C49.2929 79.3109 49.2282 79.2187 49.1396 79.1488C49.0511 79.0788 48.9445 79.0358 48.8389 79.0273C48.381 78.9679 47.8739 79.0108 44.5439 79.2922L43.412 79.3878C42.9957 79.4232 43.2046 80.0952 43.6201 80.084L44.3144 80.0665C47.9989 79.9734 48.6515 79.9569 49.0833 79.8446Z" fill="#DFDFDF"/>
<path d="M26.2529 84.5831C25.7923 84.6253 25.3132 84.6727 24.8238 84.7211C23.4737 84.8547 22.0453 84.996 20.7113 85.0567C20.1997 85.0803 20.2774 84.4352 20.5133 84.3937C23.1186 83.9193 28.8659 83.4369 31.5637 83.3402C31.8333 83.3308 32.2036 83.9651 31.7212 84.0742C31.0272 84.2311 28.9633 84.3811 27.5044 84.4871C26.9771 84.5254 26.5288 84.558 26.2529 84.5831Z" fill="#DFDFDF"/>
<path fill-rule="evenodd" clip-rule="evenodd" d="M44.5439 79.2922C44.5439 79.2922 44.5439 79.2922 44.5439 79.2922L43.412 79.3878C42.9957 79.4232 43.2046 80.0952 43.6201 80.084L44.3144 80.0665C47.9989 79.9734 48.6515 79.9569 49.0833 79.8446" fill="#DFDFDF"/>
<path d="M50.8112 83.3982C50.9168 83.3578 50.6744 82.5109 50.5456 82.447C50.189 82.269 48.7826 82.4431 48.3885 82.5766C48.3756 82.5783 48.366 82.5912 48.3602 82.6146C48.3543 82.6379 48.3524 82.6713 48.3545 82.7127C48.3566 82.7541 48.3627 82.8028 48.3725 82.856C48.3822 82.9092 48.3954 82.9658 48.4113 83.0226C48.4272 83.0795 48.4455 83.1354 48.4651 83.1873C48.4847 83.2391 48.5053 83.2859 48.5257 83.3248C48.546 83.3638 48.5658 83.3942 48.5838 83.4144C48.6017 83.4345 48.6176 83.444 48.6305 83.4423C49.3146 83.5914 50.4779 83.5249 50.8112 83.3982Z" fill="#DFDFDF"/>
<path fill-rule="evenodd" clip-rule="evenodd" d="M123.585 93.0893C123.097 93.5443 122.415 93.7262 121.765 93.5746L104.439 89.529C102.789 89.1435 102.336 87.0082 103.688 85.986L112.193 79.5565C112.634 79.2224 113.195 79.0866 113.741 79.1813L130.644 82.1155C132.273 82.3981 132.875 84.4211 131.667 85.5483L123.585 93.0893ZM121.756 98.2313C122.41 98.387 123.1 98.2031 123.59 97.7418L133.365 88.5395C133.867 88.067 133.6 87.2238 132.918 87.1263C132.671 87.091 132.421 87.17 132.238 87.3409L123.591 95.46C123.1 95.921 122.41 96.104 121.755 95.9466L103.1 91.4648C102.764 91.3841 102.41 91.4612 102.138 91.6742C101.391 92.2589 101.651 93.4478 102.574 93.6673L121.756 98.2313ZM132.954 91.7162C132.686 91.6651 132.409 91.7455 132.209 91.9327L123.587 100.028C123.098 100.487 122.412 100.671 121.76 100.517L103.095 96.1245C102.762 96.0461 102.412 96.1231 102.143 96.3335C101.396 96.9166 101.658 98.1039 102.58 98.3193L121.764 102.799C122.413 102.951 123.095 102.769 123.583 102.315L133.377 93.1804C133.888 92.7033 133.641 91.8472 132.954 91.7162Z" fill="#D42151"/>
</svg>
