<svg width="286" height="158" viewBox="0 0 286 158" fill="none" xmlns="http://www.w3.org/2000/svg">
<g clip-path="url(#clip0_1305_9445)">
<path d="M114.707 63.6648C115.191 66.6922 115.839 70.2041 116.622 73.1504C116.665 73.294 116.649 73.4485 116.577 73.5801C116.506 73.7118 116.385 73.8096 116.242 73.8521C116.098 73.8947 115.943 73.8785 115.812 73.8071C115.68 73.7356 115.582 73.6149 115.54 73.4713C114.495 70.0745 113.64 66.6219 112.981 63.1295C112.96 63.0213 112.962 62.9099 112.986 62.8023C113.01 62.6947 113.055 62.5932 113.12 62.5039C113.185 62.4147 113.267 62.3397 113.362 62.2836C113.457 62.2275 113.562 62.1914 113.671 62.1777C114.587 62.133 115.462 61.7854 116.159 61.1895C117.985 59.1309 117.585 54.3911 115.052 53.2394C114.888 53.1627 114.75 53.0396 114.654 52.8853C114.559 52.7311 114.511 52.5523 114.517 52.3712C114.578 50.3374 114.288 48.3083 113.659 46.3732C110.116 35.8764 97.3563 36.1186 92.2271 43.1035C92.146 43.2243 92.0206 43.3083 91.8781 43.3373C91.7355 43.3663 91.5873 43.338 91.4655 43.2585C91.3456 43.1735 91.2636 43.0451 91.2369 42.9006C91.2102 42.7561 91.241 42.6069 91.3226 42.4847C97.9509 31.7675 116.372 34.9609 116.372 51.8516C120.196 54.2821 119.883 61.6957 116.051 63.3003C115.616 63.4647 115.165 63.5868 114.707 63.6648Z" fill="#DFDFDF"/>
<path d="M96.4528 50.8284C96.8391 50.3056 97.4031 49.9421 98.0387 49.8062C98.6743 49.6704 99.3376 49.7717 99.9038 50.0909C99.9605 50.1396 100.026 50.1763 100.098 50.1991C100.169 50.2218 100.244 50.23 100.318 50.2232C100.393 50.2164 100.465 50.1947 100.531 50.1595C100.597 50.1242 100.655 50.0761 100.702 50.018C100.749 49.9598 100.783 49.8929 100.804 49.8211C100.824 49.7492 100.83 49.674 100.821 49.5999C100.812 49.5257 100.789 49.4541 100.751 49.3893C100.714 49.3245 100.664 49.2678 100.605 49.2226C98.86 47.3347 95.7542 48.048 95.4284 50.4239C95.3255 51.1602 96.0048 51.4654 96.4528 50.8284Z" fill="#DFDFDF"/>
<path d="M98.5012 52.8969C98.9418 52.9753 99.3389 53.2113 99.6185 53.5608C99.898 53.9104 100.041 54.3498 100.02 54.7969C99.9999 55.2441 99.8176 55.6685 99.5073 55.9911C99.197 56.3138 98.7801 56.5125 98.3341 56.5504C97.8917 56.474 97.4924 56.2388 97.2112 55.8888C96.93 55.5389 96.7861 55.0984 96.8066 54.6499C96.8271 54.2014 97.0106 53.7759 97.3226 53.4531C97.6346 53.1303 98.0537 52.9325 98.5012 52.8969Z" fill="#DFDFDF"/>
<path d="M93.9583 68.0292C93.9898 67.8476 94.3676 67.1682 94.8265 67.2082C95.9256 67.5351 96.9822 67.9903 97.9748 68.5645C98.0832 68.6623 98.2253 68.7142 98.3713 68.7094C98.5172 68.7046 98.6556 68.6434 98.7574 68.5387C98.8591 68.4339 98.9163 68.2938 98.9169 68.1478C98.9175 68.0017 98.8615 67.8611 98.7606 67.7556C95.6838 64.0681 92.3261 64.9073 92.8589 68.0171C92.8573 68.1629 92.9136 68.3034 93.0156 68.4077C93.1176 68.5119 93.2568 68.5714 93.4025 68.573C93.5483 68.5746 93.6888 68.5182 93.793 68.4162C93.8973 68.3143 93.9567 68.1751 93.9583 68.0292Z" fill="#DFDFDF"/>
<path d="M112.103 58.4422C112.032 57.907 111.841 56.943 111.199 56.788C110.126 56.5361 110.034 62.4106 109.318 64.2852C108.743 65.6072 107.937 66.8164 106.939 67.8564C104.311 70.7627 104.329 69.2938 103.226 67.4931C101.894 65.4344 101.047 63.3757 99.4531 62.3876C98.9319 62.1003 98.3643 61.9068 97.7761 61.816C97.185 61.6372 96.5554 61.6288 95.9598 61.7918C95.2938 62.0655 95.519 62.6128 95.9828 62.9228C96.4529 63.124 96.9596 63.2254 97.471 63.2207C98.8029 63.4629 99.3454 64.6303 99.8503 65.719C100.398 66.8379 100.91 68.0041 101.398 69.1473C101.612 69.6704 102.135 70.4685 101.969 71.0752C101.814 71.6225 100.746 71.8454 100.315 72.027C99.665 72.3007 97.9941 73.0503 97.3281 72.5029C96.6016 71.8841 96.4115 70.7179 95.8884 69.9441C95.6861 69.6474 95.404 69.2538 95.019 69.1945C93.8275 69.0334 95.0952 72.1747 95.5554 73.2888C94.9127 73.3179 94.2702 73.2297 93.6592 73.0285C93.5909 73.0062 93.5278 72.9702 93.4739 72.9228C93.42 72.8753 93.3763 72.8173 93.3455 72.7524C92.5749 71.1303 91.9131 69.4587 91.3646 67.7486C91.0679 66.7798 90.8294 64.8568 89.9115 64.2368C89.7808 64.1532 89.8401 64.5456 89.8171 64.7006C89.6959 66.0938 89.7439 67.4967 89.96 68.8784C90.3559 71.2822 90.523 70.7276 90.2227 70.9286C90.1027 71.0104 90.0194 71.1357 89.9904 71.278C89.9615 71.4203 89.9892 71.5682 90.0677 71.6903C90.5031 72.6353 91.1382 73.4747 91.9292 74.1506C92.7202 74.8265 93.6484 75.3228 94.6497 75.6055C96.3796 76.1922 98.2404 76.2762 100.016 75.8476C100.935 77.8082 101.476 78.9889 102.301 80.4409C102.366 80.5723 102.478 80.6739 102.615 80.7248C102.752 80.7757 102.904 80.772 103.039 80.7146C103.106 80.6838 103.167 80.6399 103.217 80.5854C103.268 80.5309 103.307 80.4669 103.332 80.3972C103.358 80.3274 103.369 80.2532 103.366 80.179C103.362 80.1048 103.344 80.0321 103.312 79.965C102.752 78.0287 102.07 76.1301 101.268 74.2806C102.075 73.9416 102.988 73.5383 103.361 73.3857C105.983 72.1198 108.292 70.2865 110.12 68.0187C111.509 66.2906 112.687 62.9822 112.103 58.4422Z" fill="#DFDFDF"/>
<path d="M70.0564 47.9609C70.0334 47.8914 69.9966 47.8272 69.9484 47.7721C69.9002 47.717 69.8415 47.672 69.7757 47.6399C69.7099 47.6078 69.6383 47.5892 69.5652 47.5851C69.4921 47.581 69.4189 47.5916 69.3499 47.6162C69.2809 47.6408 69.2176 47.6789 69.1636 47.7284C69.1095 47.7778 69.0659 47.8375 69.0353 47.9041C69.0047 47.9706 68.9876 48.0425 68.9852 48.1157C68.9828 48.1889 68.995 48.2619 69.0211 48.3303C73.4105 60.8361 67.3429 75.5302 66.7955 94.172C66.4916 104.576 67.6855 115.906 73.2809 124.639C81.7364 137.861 98.9597 144.18 115.549 137.861C115.619 137.837 115.684 137.8 115.74 137.75C115.796 137.701 115.842 137.641 115.874 137.574C115.907 137.507 115.925 137.434 115.929 137.36C115.933 137.286 115.921 137.211 115.896 137.141C115.87 137.071 115.831 137.007 115.78 136.953C115.73 136.898 115.669 136.854 115.601 136.824C115.533 136.793 115.459 136.777 115.385 136.775C115.31 136.774 115.236 136.787 115.167 136.814C99.6075 142.323 83.0696 136.555 74.8272 123.639C69.4498 115.162 68.3854 104.287 68.6627 94.2205C69.2366 74.9404 75.3007 62.0338 70.0564 47.9609Z" fill="#DFDFDF"/>
<path d="M75.9477 55.2558C76.3194 58.1077 76.179 58.5642 76.8159 58.5884C77.6429 58.6199 77.6962 55.9739 77.6962 55.1492C77.6424 52.8063 77.2417 50.4842 76.5071 48.2588C76.3339 47.818 75.6026 46.1553 74.933 46.3781C73.9074 46.7632 75.3047 49.0762 75.9477 55.2558Z" fill="#DFDFDF"/>
<path d="M81.1728 48.0894C81.639 50.1636 81.8785 52.2823 81.8872 54.4083C81.9538 57.4357 81.869 57.6331 82.4103 57.7409C83.2579 57.8717 83.5981 54.9181 83.6357 54.4567C83.7903 52.1557 83.5286 49.8457 82.8632 47.6377C82.6985 47.1981 81.9913 45.5124 81.3399 45.757C80.7974 45.9605 80.9536 46.8058 81.1728 48.0894Z" fill="#DFDFDF"/>
<path d="M108.989 97.9202C108.724 97.3414 107.9 97.6453 106.407 98.1939C104.91 98.7802 103.475 99.5136 102.123 100.383C101.802 100.634 102.382 100.939 98.7963 93.3875C95.47 86.3541 91.5771 78.9417 89.693 71.0134C87.9712 63.8977 90.1773 56.3666 88.3235 48.4722C88.2931 48.332 88.2092 48.2091 88.0897 48.1298C87.9701 48.0505 87.8243 48.0209 87.6833 48.0474C87.5423 48.0739 87.4172 48.1544 87.3346 48.2717C87.252 48.389 87.2184 48.5339 87.241 48.6756C88.2484 55.5419 86.0435 63.7439 87.8719 71.453C90.8312 83.8946 98.7757 95.6726 102.866 105.955C102.917 106.094 103.02 106.207 103.154 106.27C103.288 106.332 103.442 106.339 103.58 106.288C103.719 106.238 103.832 106.134 103.895 106C103.957 105.866 103.964 105.713 103.913 105.574C102.63 101.863 102.526 102.093 102.647 102.05C103.137 101.876 106.954 99.9183 107.419 99.5865C108.782 98.7231 109.212 98.384 108.989 97.9202Z" fill="#DFDFDF"/>
<path d="M35.5913 63.8519C33.0357 68.9633 31.1366 74.3774 29.939 79.9653C28.1216 88.8584 27.3153 97.9285 27.5354 107.003C27.8071 111.154 28.8145 115.224 30.5105 119.023C32.2892 122.896 34.9912 126.274 38.3794 128.86C41.7676 131.445 45.7385 133.16 49.9437 133.853C56.6034 134.853 63.7947 133.223 70.5283 129.568C70.6558 129.499 70.751 129.382 70.7934 129.243C70.8359 129.104 70.8222 128.954 70.7554 128.825C70.6886 128.696 70.574 128.598 70.4361 128.553C70.2981 128.507 70.1478 128.517 70.0174 128.581C49.4823 138.996 30.8011 127.869 29.4026 106.885C29.1864 97.9773 29.958 89.0727 31.7032 80.3346C32.7463 74.8384 34.382 69.4715 36.5818 64.3278C36.6449 64.1965 36.6532 64.0454 36.605 63.9079C36.5567 63.7704 36.4558 63.6577 36.3245 63.5946C36.1931 63.5315 36.0421 63.5232 35.9046 63.5714C35.7671 63.6197 35.6544 63.7206 35.5913 63.8519Z" fill="#DFDFDF"/>
<path d="M65.3728 97.0422C63.5913 97.5669 61.8553 98.2351 60.1818 99.0403C55.9438 87.9404 54.7596 81.1601 54.3261 73.9729C54.2207 72.2691 54.0984 70.271 54.1238 68.2365C54.1221 68.1002 54.0699 67.9694 53.9772 67.8695C53.8845 67.7696 53.758 67.7076 53.6222 67.6957C53.4865 67.6838 53.3511 67.7227 53.2424 67.805C53.1337 67.8872 53.0595 68.0069 53.0341 68.1409C52.7285 70.0899 52.5735 72.0595 52.5703 74.0323C52.7052 78.6265 53.3637 83.1903 54.5331 87.6352C56.1304 93.9691 58.5591 100.064 61.7559 105.76C61.7867 105.827 61.8306 105.888 61.885 105.938C61.9395 105.988 62.0035 106.027 62.0731 106.052C62.1428 106.077 62.2168 106.088 62.2908 106.084C62.3647 106.081 62.4372 106.062 62.5038 106.03C62.5705 105.997 62.63 105.952 62.6789 105.896C62.7279 105.841 62.7652 105.776 62.7887 105.706C62.8122 105.635 62.8214 105.561 62.8158 105.487C62.8102 105.414 62.7899 105.342 62.7561 105.276C62.0441 103.689 61.1953 101.625 60.6492 100.237C62.4656 99.7439 64.2081 99.0109 65.8305 98.057C65.965 97.9963 66.07 97.8846 66.1222 97.7465C66.1744 97.6084 66.1697 97.4553 66.109 97.3207C66.0483 97.1861 65.9366 97.0812 65.7986 97.0289C65.6605 96.9767 65.5073 96.9815 65.3728 97.0422Z" fill="#DFDFDF"/>
<path d="M198.977 44.134C199.414 44.0637 199.863 44.1274 200.264 44.3166C200.664 44.5059 200.999 44.8118 201.222 45.1943C201.446 45.5768 201.549 46.0181 201.517 46.4601C201.486 46.9022 201.322 47.3244 201.046 47.6714C200.77 48.0183 200.396 48.2739 199.973 48.4045C199.549 48.5351 199.096 48.5346 198.673 48.4031C198.25 48.2716 197.877 48.0153 197.602 47.6677C197.327 47.3201 197.163 46.8976 197.133 46.4554C197.075 45.904 197.235 45.3517 197.58 44.9176C197.925 44.4834 198.427 44.202 198.977 44.134Z" fill="#DFDFDF"/>
<path d="M194.967 41.7801C196.444 40.1017 197.83 39.0421 200.179 39.5665C200.317 39.6185 200.469 39.6139 200.603 39.5536C200.737 39.4933 200.841 39.3823 200.893 39.245C200.945 39.1077 200.941 38.9553 200.88 38.8214C200.82 38.6876 200.709 38.5831 200.572 38.5311C199.965 38.2707 199.313 38.1339 198.653 38.1286C197.993 38.1233 197.339 38.2496 196.729 38.5001C196.118 38.7506 195.564 39.1204 195.098 39.5877C194.632 40.0551 194.264 40.6106 194.015 41.2219C193.761 41.8855 194.459 42.3578 194.967 41.7801Z" fill="#DFDFDF"/>
<path d="M193.621 66.0361C194.691 65.6949 195.683 65.1434 196.537 64.4139C197.391 63.6844 198.091 62.7916 198.595 61.788C198.889 61.0614 199.43 59.6179 198.678 59.4072C198.143 59.257 198.072 59.7112 197.56 60.4898C196.947 61.3796 196.232 62.1945 195.429 62.9178C193.414 64.6071 191.378 64.7125 191.479 65.5602C191.535 66.2892 193.151 66.1439 193.621 66.0361Z" fill="#DFDFDF"/>
<path d="M145.029 78.1555C141.631 75.6373 137.724 73.8912 133.581 73.0391C129.748 72.097 123.075 72.2532 119.134 72.5547C118.682 72.5262 118.232 72.6429 117.85 72.8878C114.045 76.5825 110.248 80.4758 106.068 82.9559C105.202 83.4704 104.208 83.7302 103.201 83.7055C102.536 83.6546 102.169 83.4851 102.51 82.3492C102.56 82.1775 102.559 81.9953 102.508 81.8241C102.457 81.653 102.358 81.5001 102.222 81.3835C102.087 81.267 101.921 81.1918 101.744 81.1668C101.567 81.1417 101.387 81.168 101.225 81.2423C99.4838 81.9247 97.9185 82.9891 96.6438 84.357C96.5152 84.4927 96.4296 84.6633 96.3977 84.8476C96.3658 85.0318 96.3891 85.2213 96.4646 85.3924L102.144 97.7093C102.246 97.9266 102.427 98.0969 102.651 98.1853C102.874 98.2737 103.123 98.2737 103.346 98.1852C105.275 97.4017 106.615 97.1183 108.439 96.4123C114.285 100.56 118.284 107.981 120.529 114.788C120.585 114.953 120.688 115.1 120.824 115.209C120.961 115.318 121.126 115.387 121.299 115.405C121.473 115.424 121.649 115.393 121.806 115.315C121.962 115.237 122.093 115.116 122.183 114.966C122.837 113.836 124.187 111.569 124.944 110.515C125.029 110.398 125.084 110.262 125.105 110.119C125.126 109.976 125.113 109.83 125.065 109.693C123.686 105.857 122.94 100.853 127.003 100.625C127.116 100.619 127.228 100.591 127.33 100.541C127.433 100.492 127.524 100.422 127.599 100.337C127.675 100.251 127.732 100.152 127.769 100.044C127.805 99.9362 127.82 99.8221 127.811 99.7086C127.501 95.6421 128.752 91.8941 132.881 92.3301C132.994 92.3426 133.109 92.3298 133.216 92.2926C133.324 92.2554 133.422 92.1947 133.503 92.1149C133.584 92.0351 133.647 91.9383 133.686 91.8314C133.725 91.7245 133.74 91.6102 133.729 91.4969C133.584 90.2665 133.6 89.0224 133.776 87.7962C134.149 85.8065 135.057 84.3243 137.045 84.6307C138.099 84.8084 139.067 85.3215 139.806 86.0935C139.875 86.1683 139.961 86.2257 140.056 86.261C140.151 86.2963 140.254 86.3086 140.355 86.2968C140.456 86.285 140.552 86.2494 140.637 86.193C140.722 86.1367 140.792 86.0611 140.842 85.9724C141.868 84.1196 144.006 80.6707 145.15 78.8918C145.221 78.775 145.249 78.6363 145.226 78.5011C145.204 78.3659 145.134 78.2432 145.029 78.1555Z" fill="#3F3F3F"/>
<path d="M127.935 156.491C124.933 154.389 122.609 151.457 121.248 148.054C119.827 144.771 119.324 141.163 119.795 137.616C119.821 137.445 119.798 137.27 119.73 137.111C119.661 136.952 119.548 136.815 119.406 136.717C119.263 136.619 119.095 136.563 118.922 136.556C118.749 136.549 118.577 136.591 118.426 136.677C111.83 140.405 104.996 142.265 97.5899 140.532C97.4369 140.498 97.2777 140.502 97.127 140.545C96.9762 140.589 96.8387 140.669 96.7272 140.779C96.6157 140.89 96.5338 141.026 96.4891 141.176C96.4443 141.327 96.4381 141.486 96.471 141.639L100.054 157.467C100.105 157.67 100.223 157.85 100.389 157.977C100.556 158.105 100.76 158.172 100.969 158.169C102.505 158.11 125.638 157.622 127.792 157.598C127.929 157.597 128.06 157.546 128.162 157.456C128.264 157.366 128.33 157.242 128.347 157.107C128.365 156.971 128.333 156.835 128.257 156.721C128.181 156.608 128.067 156.526 127.935 156.491Z" fill="#3F3F3F"/>
<path d="M197.488 74.3409C197.09 73.819 196.699 74.3276 195.596 74.6739C195.01 74.8442 194.414 74.9753 193.811 75.0663C191.418 75.5501 188.932 75.1753 186.788 74.0079C184.995 73.0718 184.851 72.6637 184.419 73.067C183.744 73.6725 185.438 75.2831 186.266 75.7808C186.103 77.9194 186.109 79.157 186.098 79.9586C182.683 79.9176 179.296 80.5822 176.149 81.9107C176.08 81.9334 176.015 81.9695 175.96 82.0171C175.904 82.0647 175.858 82.1227 175.825 82.1879C175.792 82.2532 175.772 82.3243 175.766 82.3972C175.761 82.4702 175.769 82.5435 175.792 82.6131C175.815 82.6827 175.851 82.7471 175.898 82.8027C175.946 82.8583 176.004 82.904 176.069 82.9372C176.134 82.9704 176.206 82.9904 176.278 82.9961C176.351 83.0017 176.425 82.993 176.494 82.9704C179.966 82.2775 183.49 81.8869 187.029 81.803C187.267 81.7992 187.495 81.7029 187.664 81.5343C187.833 81.3657 187.929 81.1381 187.933 80.8996C187.989 79.4361 187.965 77.9706 187.86 76.5098C189.897 77.1861 192.082 77.2797 194.169 76.7798C195.285 76.4856 198.136 75.2479 197.488 74.3409Z" fill="#DFDFDF"/>
<path d="M217.742 46.2112C217.241 44.9955 216.427 43.9341 215.383 43.1344C214.339 42.3348 213.103 41.8254 211.799 41.6579C212.279 37.4467 211.63 33.1837 209.919 29.3059C208.757 27.1198 207.137 25.21 205.169 23.7067C203.202 22.2033 200.934 21.1417 198.519 20.5941C194.569 19.6506 190.431 19.8573 186.595 21.1899C184.947 21.8123 182.829 23.2764 181.967 23.1529C182.084 22.4984 182.419 21.9029 182.918 21.4636C183.943 20.6702 185.067 20.0139 186.262 19.5115C189.546 18.0563 193.197 17.645 196.722 18.3332C201.007 18.7196 204.964 20.7863 207.729 24.0817C211.362 28.0537 210.725 29.5033 211.917 29.5444C213.8 29.6244 214.932 29.8811 216.559 28.5442C216.91 28.2609 217.191 27.9003 217.381 27.4907C217.57 27.081 217.663 26.6331 217.651 26.1819C217.639 25.7307 217.524 25.2882 217.313 24.8889C217.103 24.4896 216.803 24.1442 216.438 23.8795C215.707 23.2727 214.867 22.8119 213.963 22.522C214.794 22.0586 215.579 21.5169 216.307 20.9041C219.919 17.5061 216.349 12.0639 210.737 14.4302C213.792 8.56659 209.722 5.93755 205.714 9.43124C206.132 4.8295 203.88 1.50051 199.943 3.37633C198.566 4.05051 197.395 5.08229 196.553 6.36382C196.553 4.83072 197.234 -0.156107 193.721 -0.932347C190.663 -1.55964 188.756 2.3034 188.056 5.35144C187.626 7.34472 187.861 7.44886 187.64 7.00564C186.437 4.48438 184.115 2.10843 181.63 3.54223C180.839 4.12466 180.187 4.87488 179.72 5.73913C179.253 6.60338 178.982 7.56025 178.929 8.54116C178.889 9.18751 178.91 9.83609 178.989 10.4787C178.422 9.6824 177.721 8.99004 176.919 8.43218C173.988 6.53215 171.349 9.14423 171.373 12.3594C171.471 14.0074 171.965 15.6074 172.813 17.0241C171.646 16.2108 170.26 15.7708 168.839 15.7623C166.313 15.8603 164.089 20.7273 168.22 25.2079C170.852 28.0101 174.032 28.1784 177.882 28.4921C177.932 28.6284 178.029 28.7423 178.156 28.813C182.012 30.8717 186.477 34.1171 194.554 31.7412C197.062 30.9885 199.413 29.7867 201.492 28.1942C202.256 34.9878 204.073 41.1263 210.667 42.8325C211.519 42.8285 212.36 43.0219 213.125 43.3975C213.889 43.7732 214.557 44.3209 215.074 44.9978C215.651 45.6219 216.042 46.3951 216.201 47.2299C216.361 48.0646 216.284 48.9275 215.979 49.7206C215.169 51.8507 212.218 53.5098 209.924 53.7907C209.694 53.8235 209.483 53.9407 209.334 54.1196C209.184 54.2986 209.107 54.5266 209.115 54.7595C209.428 60.5221 207.739 66.2155 204.333 70.874C204.186 71.083 204.111 71.3335 204.118 71.5885C204.06 72.9642 204.382 78.0903 204.629 80.3076C204.646 80.4868 204.721 80.6555 204.844 80.7871C204.967 80.9187 205.13 81.0056 205.307 81.0342C208.667 81.761 211.965 82.7477 215.172 83.9854C215.239 84.0167 215.312 84.0345 215.386 84.0377C215.46 84.0409 215.534 84.0295 215.604 84.0042C215.674 83.9788 215.737 83.94 215.792 83.8899C215.847 83.8398 215.891 83.7795 215.922 83.7123C215.954 83.6451 215.971 83.5724 215.975 83.4983C215.978 83.4243 215.967 83.3503 215.941 83.2806C215.916 83.211 215.877 83.147 215.827 83.0923C215.777 83.0377 215.716 82.9934 215.649 82.9621C212.587 81.6061 209.43 80.4729 206.205 79.5713C206.076 77.8384 205.942 74.7686 205.942 71.7992C209.384 67.078 211.162 61.3484 211 55.5079C215.497 54.4604 219.345 50.5707 217.742 46.2112Z" fill="#DFDFDF"/>
<path d="M169.157 81.2909C169.073 82.4074 168.889 84.0483 168.859 86.0392C168.808 88.5895 168.98 101.088 169.835 110.889C169.837 111.035 169.897 111.175 170.002 111.277C170.106 111.38 170.248 111.437 170.394 111.436C170.544 111.43 170.685 111.366 170.788 111.257C170.89 111.148 170.945 111.003 170.941 110.853C170.978 108.877 171.025 106.914 171.037 104.927C171.077 102.291 170.572 84.8245 170.553 84.4806C170.469 83.4089 170.35 82.3505 170.255 81.2909C170.255 81.2189 170.241 81.1476 170.214 81.0811C170.186 81.0145 170.146 80.954 170.095 80.9031C170.044 80.8522 169.984 80.8119 169.917 80.7845C169.851 80.7572 169.779 80.7432 169.708 80.7435C169.562 80.7442 169.423 80.8019 169.32 80.9043C169.217 81.0067 169.158 81.1456 169.157 81.2909Z" fill="#3F3F3F"/>
<path d="M194.794 105.638C194.587 107.343 194.688 109.073 195.09 110.743C195.097 110.891 195.162 111.031 195.271 111.132C195.38 111.232 195.525 111.285 195.673 111.279C195.822 111.273 195.962 111.208 196.062 111.098C196.163 110.989 196.216 110.844 196.209 110.696C196.358 108.999 196.249 107.29 195.888 105.625C195.698 104.879 194.968 104.898 194.794 105.638Z" fill="#DFDFDF"/>
<path d="M126.43 104.395C127.694 106.465 129.227 108.358 130.988 110.025C131.579 110.553 133.644 112.406 134.165 111.822C134.517 111.408 134.364 111.184 132.238 108.795C130.68 107.101 129.233 105.309 127.906 103.428C127.543 102.934 126.529 101.611 126.002 101.917C125.393 102.251 126.171 103.898 126.43 104.395Z" fill="#DFDFDF"/>
<path d="M134.077 104.09C134.335 104.439 136.256 106.975 136.909 106.512C137.318 106.185 137.261 105.806 135.093 102.406C131.81 97.0123 130.772 94.8422 129.951 95.289C128.589 95.9926 133.15 102.877 134.077 104.09Z" fill="#DFDFDF"/>
<path d="M135.396 90.1578C136.091 92.3421 137.175 94.3824 138.597 96.18C138.939 96.6136 140.743 98.7982 141.358 98.275C141.798 97.9008 141.541 97.632 140.026 95.1688C138.836 93.4231 137.842 91.5513 137.063 89.5874C136.315 88.0919 136.172 87.6317 135.66 87.754C134.959 87.8933 135.271 89.6552 135.396 90.1578Z" fill="#DFDFDF"/>
<path d="M124.329 114.477C122.796 117.868 122.425 121.016 121.449 124.308C118.975 133.294 117.912 143.98 123.186 151.62C129.26 160.406 141.738 161.508 149.825 154.06C153.431 150.703 155.81 145.955 158.262 140.517C158.315 140.384 158.316 140.237 158.264 140.104C158.212 139.972 158.112 139.864 157.983 139.802C157.855 139.741 157.708 139.73 157.572 139.773C157.436 139.816 157.322 139.908 157.251 140.032C154.716 145.197 152.277 149.696 148.718 152.837C140.179 160.345 126.953 158.017 122.742 146.708C120.252 140.031 121.318 131.643 123.087 124.74C123.828 121.573 124.185 117.863 125.335 114.909C125.393 114.775 125.395 114.623 125.341 114.487C125.288 114.352 125.183 114.242 125.05 114.183C124.915 114.13 124.765 114.131 124.631 114.186C124.497 114.24 124.389 114.345 124.329 114.477Z" fill="#DFDFDF"/>
<path d="M165.942 84.9129C165.937 84.8393 165.917 84.7674 165.883 84.7016C165.85 84.6358 165.804 84.5774 165.747 84.5298C165.691 84.4822 165.625 84.4463 165.555 84.4243C165.484 84.4024 165.41 84.3947 165.337 84.4019C158.184 84.5738 150.146 91.9281 146.084 97.6985C146.689 95.3213 147.922 91.1228 148.848 88.7275C148.908 88.5949 148.913 88.4439 148.862 88.3077C148.81 88.1716 148.707 88.0614 148.574 88.0015C148.442 87.9416 148.291 87.9369 148.154 87.9883C148.018 88.0398 147.908 88.1432 147.848 88.2758C146.776 90.305 145.861 92.4135 145.112 94.5826C142.249 102.926 141.116 114.927 143.791 128.56C144.076 130.049 144.437 131.518 144.765 133.012C144.78 133.084 144.809 133.152 144.85 133.213C144.892 133.274 144.945 133.326 145.006 133.366C145.067 133.407 145.136 133.435 145.208 133.448C145.28 133.462 145.355 133.462 145.427 133.447C145.498 133.432 145.567 133.403 145.628 133.362C145.688 133.32 145.74 133.268 145.781 133.206C145.821 133.145 145.849 133.076 145.863 133.004C145.877 132.932 145.876 132.857 145.861 132.785C144.158 122.65 143.343 112.021 145.164 101.905C148.959 96.7297 152.638 92.2176 157.999 88.742C160.2 87.1201 162.738 86.0139 165.424 85.5051C165.571 85.4942 165.707 85.426 165.804 85.3152C165.901 85.2044 165.951 85.0599 165.942 84.9129Z" fill="#DFDFDF"/>
<path d="M224.252 86.881C227.548 88.0093 230.734 89.4353 233.772 91.1413C238.147 93.4226 241.833 96.8332 244.446 101.019C251.012 111.942 253.378 125.916 254.549 138.56C255.004 143.221 256.503 148.332 256.31 152.889C256.303 153.036 256.354 153.18 256.452 153.29C256.55 153.399 256.687 153.466 256.834 153.476C256.981 153.485 257.125 153.436 257.237 153.34C257.348 153.244 257.417 153.107 257.429 152.961C257.821 148.13 256.478 143.187 256.167 138.429C255.83 132.947 255.134 127.493 254.085 122.101C252.636 114.361 249.918 106.914 246.04 100.061C243.237 95.6198 239.286 92.0179 234.605 89.636C231.409 88.0092 228.045 86.7362 224.573 85.8396C224.44 85.812 224.301 85.8352 224.184 85.9045C224.067 85.9738 223.979 86.0843 223.939 86.2144C223.899 86.3445 223.909 86.4849 223.967 86.6082C224.025 86.7314 224.126 86.8287 224.252 86.881Z" fill="#DFDFDF"/>
<path d="M230.417 148.513C230.946 151.387 231.747 154.204 232.809 156.926C232.847 157.07 232.941 157.193 233.069 157.267C233.197 157.342 233.35 157.363 233.493 157.325C233.637 157.287 233.76 157.194 233.834 157.065C233.909 156.937 233.93 156.784 233.892 156.641C233.39 153.753 232.578 150.928 231.47 148.215C231.456 148.139 231.427 148.068 231.384 148.005C231.341 147.942 231.285 147.888 231.22 147.848C231.155 147.807 231.082 147.781 231.006 147.77C230.931 147.76 230.854 147.765 230.78 147.786C230.706 147.806 230.638 147.842 230.579 147.891C230.52 147.94 230.472 148 230.438 148.069C230.404 148.137 230.384 148.212 230.381 148.288C230.377 148.365 230.389 148.441 230.417 148.513Z" fill="#DFDFDF"/>
<path d="M228.671 112.437C228.614 112.271 228.508 112.125 228.369 112.017C228.229 111.91 228.061 111.845 227.885 111.832C226.063 111.676 223.742 111.541 221.069 111.431C222.256 103.875 222.436 100.09 222.233 84.9373C222.197 82.5722 222.054 80.7981 221.971 79.2009C221.973 79.1289 221.961 79.0574 221.935 78.9903C221.909 78.9232 221.87 78.8619 221.82 78.8099C221.77 78.7579 221.711 78.7162 221.645 78.6873C221.579 78.6584 221.508 78.6428 221.436 78.6414C221.291 78.64 221.152 78.6954 221.047 78.7957C220.943 78.8959 220.882 79.0331 220.877 79.1778C219.775 88.9868 220.975 96.0396 219.896 111.39C209.494 110.999 171.991 110.614 163.995 112.458C163.863 112.489 163.74 112.549 163.633 112.632C163.526 112.716 163.439 112.822 163.377 112.942C156.183 127.002 159.426 141.922 161.413 156.68C161.417 156.751 161.435 156.821 161.466 156.886C161.497 156.95 161.541 157.008 161.594 157.056C161.648 157.103 161.71 157.14 161.778 157.164C161.846 157.187 161.917 157.197 161.989 157.193C162.06 157.189 162.131 157.171 162.195 157.139C162.26 157.108 162.317 157.065 162.365 157.011C162.413 156.958 162.449 156.895 162.473 156.827C162.496 156.76 162.506 156.688 162.502 156.617L225.939 157.564C225.943 157.702 225.997 157.834 226.091 157.936C226.185 158.037 226.314 158.1 226.452 158.113C226.59 158.125 226.727 158.087 226.839 158.005C226.95 157.922 227.028 157.802 227.056 157.666C230.181 142.183 233.511 127.521 228.671 112.437Z" fill="#3F3F3F"/>
<path d="M119.793 21.9916C119.901 21.9174 120.033 21.8875 120.163 21.9081C123.633 22.1708 127.603 27.2521 125.161 30.4055C122.302 34.1014 114.882 29.2817 115.827 24.6182C115.892 24.174 116.05 23.7485 116.29 23.3694C116.531 22.9904 116.849 22.6664 117.223 22.4185C117.598 22.1707 118.02 22.0045 118.463 21.931C118.906 21.8574 119.359 21.8781 119.793 21.9916ZM119.925 22.9919C119.82 23.0512 119.699 23.0762 119.579 23.0633C119.215 23.0456 118.855 23.1368 118.543 23.3254C118.232 23.514 117.984 23.7913 117.831 24.1217C116.64 26.3935 119.473 29.5808 122.233 29.8461C122.521 29.8721 122.811 29.8268 123.078 29.7143C123.344 29.6018 123.579 29.4255 123.761 29.201C123.943 28.9764 124.067 28.7104 124.123 28.4265C124.178 28.1426 124.162 27.8495 124.077 27.573C123.721 25.7178 121.853 23.3709 120.008 23.0149C119.985 23.0004 119.944 23.0004 119.925 22.9883V22.9919Z" fill="#DFDFDF"/>
<path d="M126.511 18.1744C126.547 18.0895 126.604 18.0158 126.679 17.9613C128.439 16.2235 131.407 18.7981 131.212 21.4126C131.01 23.8346 127.6 24.7925 125.929 22.0423C125.708 21.7521 125.548 21.4205 125.457 21.0672C125.367 20.7138 125.348 20.3459 125.402 19.9852C125.457 19.6245 125.583 19.2784 125.773 18.9674C125.964 18.6564 126.215 18.3867 126.511 18.1744ZM127.594 18.746C127.554 18.7969 127.51 18.8447 127.463 18.8889C127.233 19.2067 127.111 19.5903 127.115 19.9828C127.119 20.3754 127.25 20.7561 127.487 21.0687C128.265 22.2724 129.38 21.9685 129.38 21.0324C129.319 20.072 128.451 18.5632 127.594 18.746Z" fill="#DFDFDF"/>
<path d="M150.031 21.3146C150.82 21.4448 151.551 21.8115 152.127 22.3662C152.703 22.9208 153.097 23.6373 153.257 24.4208C153.559 26.104 152.037 27.5693 149.222 26.7773C145.437 25.7807 145.236 22.7084 147.056 21.6125C147.503 21.3555 147.999 21.1961 148.511 21.1447C149.024 21.0934 149.542 21.1513 150.031 21.3146ZM150.186 22.5643C150.173 22.5644 150.161 22.5602 150.151 22.5522C149.892 22.5359 149.633 22.5477 149.377 22.5873C149.006 22.6497 148.649 22.7724 148.318 22.9506C147.985 23.1056 147.712 23.343 147.854 23.7717C148.132 24.6448 150.185 25.197 150.76 25.1522C151.417 25.1292 151.697 25.0081 151.462 24.2004C151.241 23.5225 150.79 22.9436 150.186 22.5643Z" fill="#DFDFDF"/>
<path d="M189.42 40.5632C186.614 35.848 182.379 32.1503 177.328 30.0075C172.277 27.8646 166.675 27.3883 161.335 28.6476C155.996 29.907 151.197 32.8364 147.636 37.0103C144.074 41.1841 141.937 46.3849 141.534 51.8568C141.34 55.8514 142.089 59.8356 143.72 63.4872C145.35 67.1389 147.818 70.3555 150.921 72.877C143.65 83.2612 141.89 85.1164 141.423 87.387C141.23 87.9991 141.263 88.6604 141.516 89.2502C141.77 89.84 142.227 90.319 142.804 90.5997C143.993 91.0841 145.24 90.274 146.159 89.3742C147.639 87.9211 148.107 86.859 155.922 76.0619C160.82 78.4288 166.344 79.1737 171.693 78.1886C177.043 77.2034 181.939 74.5395 185.672 70.5832C189.406 66.627 191.781 61.5841 192.455 56.1861C193.129 50.7882 192.066 45.3159 189.42 40.5632ZM189.598 53.9397C189.337 59.9304 186.708 65.5722 182.289 69.6242C177.869 73.6762 172.021 75.8063 166.031 75.546C160.041 75.2857 154.399 72.6563 150.348 68.2362C146.296 63.8161 144.166 57.9674 144.426 51.9767C144.649 45.9121 147.256 40.1806 151.682 36.0286C156.107 31.8766 161.993 29.6399 168.059 29.8048C179.786 30.3667 190.201 41.0645 189.598 53.9397Z" fill="#D42151"/>
<path d="M175.361 46.7543C174.981 46.1594 174.448 45.6776 173.818 45.3595C173.188 45.0414 172.484 44.8987 171.779 44.9463C171.229 44.8834 170.672 44.9424 170.148 45.1193C169.623 45.2962 169.144 45.5865 168.745 45.9696C167.627 47.0659 166.946 48.5318 166.83 50.0933C166.714 51.6549 167.17 53.2053 168.114 54.4549C168.486 54.9577 168.965 55.3711 169.517 55.6652C170.069 55.9594 170.68 56.1267 171.304 56.1551C171.929 56.1835 172.552 56.0723 173.128 55.8295C173.705 55.5867 174.22 55.2185 174.636 54.7516C175.606 53.6769 176.202 52.3162 176.332 50.874C176.463 49.4318 176.122 47.9861 175.361 46.7543Z" fill="#DFDFDF"/>
<path d="M181.941 52.9263C181.777 55.5904 181.392 57.488 181.262 60.2212C181.225 61.2736 180.956 62.734 181.453 63.5781C181.703 63.9575 182.057 64.2575 182.472 64.4429C182.887 64.6282 183.347 64.6912 183.797 64.6244C183.941 64.6265 184.08 64.5732 184.186 64.4755C184.291 64.3778 184.355 64.2431 184.365 64.0995C184.374 63.9559 184.327 63.8142 184.235 63.7038C184.143 63.5935 184.011 63.5228 183.868 63.5066C182.173 63.2644 182.699 62.7316 183 60.3641C183.273 57.3439 183.516 56.7312 183.809 53.045C184.379 45.8735 184.755 44.9653 184.035 44.8212C182.701 44.5644 182.041 51.6051 181.941 52.9263Z" fill="#DFDFDF"/>
<path d="M162.445 34.0408C163.674 33.6526 164.999 33.6988 166.198 34.1716C167.969 34.9297 168.748 36.6784 167.281 38.955C165.67 41.3867 163.327 42.7805 161.296 44.4541C159.989 45.5282 158.763 46.9075 157.036 47.381C156.416 47.6114 155.732 47.5954 155.124 47.3364C154.515 47.0773 154.03 46.5948 153.767 45.9884C153.203 44.5142 153.221 42.8813 153.815 41.4193C154.619 39.6861 155.773 38.1379 157.205 36.8721C158.636 35.6063 160.314 34.6502 162.132 34.0639C162.233 34.0289 162.34 34.021 162.445 34.0408ZM162.636 35.0399C159.557 36.5963 157.055 39.0935 155.492 42.1689C155.096 43.0772 155.035 45.0753 155.734 45.5597C156.778 46.2112 159.313 43.6766 160.113 43.0166C162.003 41.4956 168.245 37.4776 166.016 35.6854C165.097 35.0694 163.973 34.8386 162.885 35.0423C162.803 35.0665 162.715 35.0656 162.632 35.0399H162.636Z" fill="#DFDFDF"/>
<path d="M153.801 52.495C158.403 53.6442 156.962 61.9685 151.909 61.1475C146.211 60.1085 148.437 51.1738 153.385 52.2213C153.471 52.2304 153.554 52.26 153.626 52.3076C153.699 52.3552 153.759 52.4195 153.801 52.495ZM153.242 53.3161C150.536 53.3996 148.977 58.7195 152.23 59.3031C154.821 59.7875 156.114 54.7172 153.551 53.5776C153.484 53.557 153.423 53.5232 153.37 53.4782C153.317 53.4333 153.273 53.3781 153.242 53.3161Z" fill="#DFDFDF"/>
<path d="M52.93 41.6095C50.4768 40.555 47.8905 39.8424 45.2435 39.4915C43.8895 39.2252 42.485 39.4352 41.2682 40.0861C39.533 41.176 38.7774 43.1583 38.2108 45.1201C37.0588 49.4638 36.7303 53.9848 37.2421 58.4494C37.506 60.6086 38.0981 62.97 39.7764 64.3409C42.9113 66.8488 47.7548 65.5882 51.6429 64.7041C51.7754 64.6655 51.8888 64.5789 51.9612 64.4614C52.0336 64.3438 52.0597 64.2035 52.0345 64.0678C52.0093 63.932 51.9346 63.8104 51.8249 63.7267C51.7152 63.6429 51.5782 63.6028 51.4406 63.6143C48.2924 64.1156 43.3279 65.1219 40.8856 62.9954C39.6553 61.9455 39.246 59.8336 39.0765 58.2351C38.6191 54.0126 38.9338 49.7422 40.0053 45.6324C41.25 41.2728 42.6219 41.0512 45.0981 41.2728C47.6434 41.4916 50.1618 41.9539 52.6188 42.6534C52.6872 42.6746 52.7591 42.682 52.8303 42.6752C52.9016 42.6683 52.9708 42.6474 53.0339 42.6136C53.097 42.5798 53.1527 42.5338 53.1979 42.4782C53.243 42.4227 53.2767 42.3587 53.2969 42.2901C53.3354 42.1512 53.3187 42.0028 53.2503 41.876C53.182 41.7491 53.0672 41.6536 52.93 41.6095Z" fill="#D42151"/>
<path d="M63.9581 45.5561C63.8252 44.641 63.569 43.7481 63.1965 42.9017C62.8134 42.0301 62.2862 41.2293 61.6369 40.533C61.5484 40.4179 61.4178 40.3426 61.2739 40.3237C61.1299 40.3049 60.9843 40.344 60.8692 40.4325C60.7541 40.521 60.6788 40.6516 60.66 40.7955C60.6411 40.9395 60.6802 41.0851 60.7687 41.2002C61.0577 41.6964 61.2873 42.2248 61.4528 42.7745C57.44 44.7702 56.9194 50.767 56.8516 55.1968C56.9448 57.1452 58.0152 60.8884 59.9659 60.909C59.6995 61.351 59.3956 61.8487 58.8761 61.8221C58.8021 61.8114 58.7267 61.8157 58.6545 61.8348C58.5822 61.8538 58.5145 61.8872 58.4554 61.933C58.3963 61.9788 58.347 62.0361 58.3105 62.1013C58.274 62.1665 58.2509 62.2385 58.2428 62.3128C58.2347 62.3871 58.2416 62.4623 58.2631 62.5339C58.2847 62.6055 58.3204 62.672 58.3682 62.7295C58.416 62.787 58.4749 62.8343 58.5414 62.8686C58.6078 62.9028 58.6805 62.9233 58.755 62.9289C59.1085 62.9767 59.4682 62.9365 59.8024 62.8119C60.1366 62.6872 60.4348 62.482 60.6706 62.2144C61.5132 61.2077 62.1626 60.0541 62.5862 58.8116C64.2991 54.6146 64.7752 50.015 63.9581 45.5561ZM61.6575 46.8882C60.9939 48.9469 59.9381 52.9892 59.9078 53.1127C59.8984 53.1861 59.8747 53.2569 59.8379 53.3211C59.8012 53.3853 59.7521 53.4417 59.6936 53.4869C59.6351 53.5322 59.5682 53.5655 59.4968 53.5849C59.4254 53.6043 59.3509 53.6095 59.2775 53.6001C59.2041 53.5907 59.1333 53.567 59.0691 53.5302C59.0049 53.4935 58.9486 53.4444 58.9033 53.3859C58.8581 53.3274 58.8248 53.2605 58.8054 53.1891C58.7859 53.1177 58.7808 53.0432 58.7902 52.9698C58.7404 50.6354 59.3999 48.3409 60.6815 46.3893C61.1368 45.7983 61.8839 46.1846 61.6575 46.8882Z" fill="#D42151"/>
<path d="M46.5556 47.5429C46.5097 45.6105 45.7755 43.7579 44.4851 42.3188C44.3928 42.2029 44.2587 42.1279 44.1117 42.11C43.9647 42.0921 43.8165 42.1327 43.6992 42.2231C43.6427 42.2683 43.5957 42.3242 43.5609 42.3876C43.5261 42.451 43.5042 42.5207 43.4965 42.5926C43.4887 42.6645 43.4952 42.7373 43.5157 42.8067C43.5361 42.8761 43.5701 42.9407 43.6157 42.9969C43.9571 43.6299 44.1966 44.3128 44.3252 45.0205C42.8744 47.0719 42.0252 49.4877 41.8732 51.9957C41.803 52.64 41.6662 54.4601 41.6819 55.424C41.7068 56.5985 41.8222 57.7694 42.027 58.9262C42.2074 59.6528 42.6857 60.5307 43.4316 60.492C43.2793 60.9816 43.0119 61.4275 42.6518 61.7926C42.5388 61.8865 42.4661 62.0202 42.4485 62.1661C42.4309 62.3121 42.4699 62.4592 42.5574 62.5773C43.1725 63.385 44.3507 61.7877 44.858 60.7802C46.4691 56.5657 47.0511 52.0276 46.5556 47.5429ZM44.473 53.4392C44.462 53.5876 44.3926 53.7256 44.28 53.8228C44.1674 53.92 44.0207 53.9684 43.8724 53.9575C43.724 53.9466 43.586 53.8772 43.4889 53.7645C43.3917 53.6519 43.3432 53.5052 43.3541 53.3569C43.1917 51.7761 43.3621 50.1789 43.8542 48.6679C43.9632 48.3882 44.1642 48.1508 44.4596 48.1835C45.5579 48.2853 44.7272 52.3784 44.473 53.438V53.4392Z" fill="#D42151"/>
<path d="M92.5133 51.248C92.5073 50.1878 92.3822 49.1317 92.1403 48.0995C91.9759 47.093 91.5432 46.1494 90.8877 45.3681C90.2322 44.5868 89.3783 43.9968 88.4157 43.66C86.7048 42.9516 67.6724 37.7637 63.0336 37.2575C60.9848 37.0347 59.0801 37.0299 57.5956 38.46C54.8502 41.3696 53.044 45.0381 52.4119 48.9883C52.0536 48.9015 51.7 48.7964 51.3524 48.6735C51.2228 48.3913 51.0678 48.1431 50.7579 48.1612C50.4479 48.1794 50.351 48.4531 50.2457 48.7449C49.9744 49.4957 50.6186 50.3349 52.1927 50.3192C51.9165 52.2724 51.8548 54.25 52.0087 56.2167C50.1028 56.3317 49.6063 58.0332 50.1415 58.3965C50.6356 58.7258 51.4299 57.6953 52.1564 57.5488C53.429 66.6311 58.1187 66.9072 67.3176 65.6515C67.466 65.6341 67.6014 65.5585 67.694 65.4414C67.7867 65.3242 67.829 65.175 67.8117 65.0266C67.7943 64.8782 67.7187 64.7428 67.6016 64.6501C67.4844 64.5575 67.3352 64.5152 67.1869 64.5325C64.0919 64.8474 59.0293 65.4335 56.5119 63.64C54.7125 62.3273 54.2318 59.9174 53.9061 57.7062C53.0585 51.9092 54.6023 43.9095 58.8924 39.8067C59.912 38.8379 61.4353 38.959 62.8435 39.1164C65.942 39.5771 69.0039 40.2574 72.0061 41.1521C77.5167 42.5786 86.1841 44.7039 87.7352 45.3251C89.3093 45.9693 90.169 46.6947 90.7224 49.1579C91.3034 51.8443 91.0798 54.6424 90.0794 57.2024C90.0369 57.3413 90.0513 57.4915 90.1194 57.6198C90.1875 57.7481 90.3038 57.8441 90.4427 57.8866C90.5816 57.9292 90.7317 57.9148 90.86 57.8467C90.9883 57.7786 91.0843 57.6623 91.1268 57.5233C91.7634 55.9604 92.2106 54.3269 92.4588 52.6576C93.442 53.0609 94.1298 53.4133 94.0063 55.5797C93.93 57.6384 92.4067 58.8179 91.3048 58.6265C91.1643 58.5808 91.0114 58.5927 90.8797 58.6597C90.748 58.7267 90.6483 58.8433 90.6025 58.9838C90.5568 59.1243 90.5687 59.2772 90.6357 59.409C90.7027 59.5407 90.8192 59.6404 90.9597 59.6862C91.3719 59.8546 91.815 59.9343 92.26 59.9199C92.7051 59.9055 93.1421 59.7974 93.5425 59.6026C94.26 59.2289 94.8586 58.6619 95.2707 57.9658C95.6828 57.2696 95.892 56.4721 95.8746 55.6633C95.9909 53.1045 95.0149 51.0167 92.5133 51.248Z" fill="#D42151"/>
<path d="M111.216 95.7402C112.134 94.9168 115.265 92.9017 123.652 86.3503C123.773 86.265 123.856 86.1349 123.882 85.9887C123.907 85.8424 123.874 85.692 123.789 85.5704C123.703 85.4488 123.573 85.3661 123.427 85.3405C123.281 85.3148 123.13 85.3483 123.009 85.4336C119.847 87.4184 112.307 92.645 110.416 94.9785C110.315 95.0847 110.26 95.2266 110.264 95.3731C110.267 95.5196 110.329 95.6586 110.435 95.7596C110.541 95.8606 110.683 95.9153 110.83 95.9117C110.976 95.9081 111.115 95.8464 111.216 95.7402Z" fill="#DFDFDF"/>
<path d="M191.902 143.105C192.975 144.424 194.224 145.59 195.614 146.569C196.236 146.969 197.915 147.96 198.316 147.33C198.758 146.635 197.63 146.324 193.507 142.201C192.996 141.726 191.887 140.73 191.402 141.165C190.931 141.566 191.695 142.795 191.902 143.105Z" fill="#DFDFDF"/>
</g>
<defs>
<clipPath id="clip0_1305_9445">
<rect width="285" height="158" fill="white" transform="translate(0.5)"/>
</clipPath>
</defs>
</svg>
