<svg width="285" height="158" viewBox="0 0 285 158" fill="none" xmlns="http://www.w3.org/2000/svg">
<g clip-path="url(#clip0_2484_8021)">
<path d="M114.207 63.6648C114.691 66.6922 115.339 70.2041 116.122 73.1504C116.165 73.294 116.148 73.4485 116.077 73.5801C116.006 73.7118 115.885 73.8096 115.741 73.8521C115.598 73.8947 115.443 73.8785 115.312 73.8071C115.18 73.7356 115.082 73.6149 115.04 73.4713C113.994 70.0745 113.14 66.6219 112.481 63.1295C112.46 63.0213 112.462 62.9099 112.486 62.8023C112.509 62.6947 112.555 62.5932 112.62 62.5039C112.684 62.4147 112.767 62.3397 112.862 62.2836C112.957 62.2275 113.062 62.1914 113.171 62.1777C114.087 62.133 114.962 61.7854 115.658 61.1895C117.484 59.1309 117.085 54.3911 114.552 53.2394C114.387 53.1627 114.249 53.0396 114.154 52.8853C114.059 52.7311 114.011 52.5523 114.016 52.3712C114.078 50.3374 113.788 48.3083 113.159 46.3732C109.616 35.8764 96.8561 36.1186 91.7269 43.1035C91.6458 43.2243 91.5204 43.3083 91.3778 43.3373C91.2353 43.3663 91.0871 43.338 90.9652 43.2585C90.8454 43.1735 90.7634 43.0451 90.7367 42.9006C90.71 42.7561 90.7407 42.6069 90.8223 42.4847C97.4506 31.7675 115.871 34.9609 115.871 51.8516C119.695 54.2821 119.383 61.6957 115.551 63.3003C115.115 63.4647 114.665 63.5868 114.207 63.6648Z" fill="#263238"/>
<path d="M95.9528 50.8284C96.3391 50.3056 96.9031 49.9421 97.5387 49.8062C98.1743 49.6704 98.8376 49.7717 99.4038 50.0909C99.4605 50.1396 99.5264 50.1763 99.5975 50.1991C99.6687 50.2218 99.7437 50.23 99.8181 50.2232C99.8925 50.2164 99.9648 50.1947 100.031 50.1595C100.097 50.1242 100.155 50.0761 100.202 50.018C100.249 49.9598 100.283 49.8929 100.304 49.8211C100.324 49.7492 100.33 49.674 100.321 49.5999C100.312 49.5257 100.289 49.4541 100.251 49.3893C100.214 49.3245 100.164 49.2678 100.105 49.2226C98.36 47.3347 95.2542 48.048 94.9284 50.4239C94.8255 51.1602 95.5048 51.4654 95.9528 50.8284Z" fill="#263238"/>
<path d="M98.0017 52.897C98.4423 52.9754 98.8394 53.2114 99.119 53.561C99.3985 53.9106 99.5413 54.3499 99.5209 54.797C99.5004 55.2442 99.3181 55.6686 99.0078 55.9913C98.6975 56.3139 98.2805 56.5126 97.8346 56.5505C97.3922 56.4741 96.9929 56.2389 96.7117 55.889C96.4305 55.539 96.2866 55.0985 96.3071 54.65C96.3276 54.2016 96.5111 53.776 96.8231 53.4532C97.1351 53.1304 97.5542 52.9326 98.0017 52.897Z" fill="#263238"/>
<path d="M93.4586 68.0292C93.4901 67.8476 93.8679 67.1682 94.3268 67.2082C95.4258 67.5351 96.4825 67.9903 97.475 68.5645C97.5835 68.6623 97.7256 68.7142 97.8715 68.7094C98.0175 68.7046 98.1559 68.6434 98.2576 68.5387C98.3594 68.4339 98.4166 68.2938 98.4172 68.1478C98.4178 68.0017 98.3617 67.8611 98.2609 67.7556C95.1841 64.0681 91.8263 64.9073 92.3591 68.0171C92.3575 68.1629 92.4139 68.3034 92.5158 68.4077C92.6178 68.5119 92.757 68.5714 92.9028 68.573C93.0486 68.5746 93.1891 68.5182 93.2933 68.4162C93.3975 68.3143 93.457 68.1751 93.4586 68.0292Z" fill="#263238"/>
<path d="M111.604 58.4421C111.532 57.9068 111.342 56.9429 110.699 56.7879C109.626 56.536 109.534 62.4105 108.819 64.2851C108.243 65.6071 107.438 66.8163 106.439 67.8563C103.812 70.7626 103.83 69.2937 102.727 67.493C101.395 65.4343 100.547 63.3756 98.9536 62.3875C98.4324 62.1001 97.8648 61.9067 97.2766 61.8159C96.6855 61.637 96.0559 61.6286 95.4603 61.7917C94.7943 62.0653 95.0195 62.6127 95.4833 62.9227C95.9534 63.1239 96.4601 63.2253 96.9714 63.2206C98.3034 63.4628 98.8459 64.6302 99.3508 65.7189C99.8981 66.8378 100.41 68.004 100.898 69.1472C101.113 69.6703 101.636 70.4683 101.47 71.075C101.315 71.6224 100.247 71.8452 99.8158 72.0269C99.1655 72.3006 97.4945 73.0502 96.8286 72.5028C96.102 71.884 95.9119 70.7178 95.3889 69.944C95.1866 69.6473 94.9045 69.2537 94.5195 69.1944C93.328 69.0333 94.5957 72.1746 95.0559 73.2887C94.4132 73.3178 93.7707 73.2296 93.1597 73.0284C93.0913 73.0061 93.0283 72.9701 92.9744 72.9227C92.9204 72.8752 92.8768 72.8172 92.846 72.7523C92.0754 71.1302 91.4136 69.4585 90.8651 67.7485C90.5684 66.7797 90.3299 64.8567 89.412 64.2366C89.2813 64.1531 89.3406 64.5454 89.3176 64.7004C89.1964 66.0937 89.2444 67.4966 89.4605 68.8783C89.8564 71.2821 90.0235 70.7275 89.7232 70.9285C89.6032 71.0102 89.5199 71.1356 89.4909 71.2779C89.462 71.4201 89.4897 71.5681 89.5682 71.6902C90.0036 72.6352 90.6387 73.4746 91.4297 74.1505C92.2207 74.8264 93.1489 75.3227 94.1501 75.6053C95.8801 76.1921 97.7409 76.2761 99.5167 75.8475C100.436 77.8081 100.977 78.9888 101.802 80.4408C101.866 80.5721 101.979 80.6737 102.116 80.7247C102.253 80.7756 102.404 80.7719 102.539 80.7145C102.607 80.6837 102.667 80.6398 102.718 80.5853C102.768 80.5308 102.807 80.4668 102.833 80.397C102.858 80.3273 102.87 80.2531 102.866 80.1789C102.863 80.1047 102.845 80.0319 102.813 79.9649C102.253 78.0286 101.57 76.13 100.769 74.2805C101.575 73.9414 102.488 73.5382 102.861 73.3856C105.484 72.1197 107.793 70.2864 109.62 68.0185C111.009 66.2905 112.187 62.9821 111.604 58.4421Z" fill="#263238"/>
<path d="M69.5562 47.9609C69.5331 47.8914 69.4964 47.8272 69.4482 47.7721C69.4 47.717 69.3413 47.672 69.2754 47.6399C69.2096 47.6078 69.1381 47.5892 69.065 47.5851C68.9918 47.581 68.9186 47.5916 68.8497 47.6162C68.7807 47.6408 68.7173 47.6789 68.6633 47.7284C68.6093 47.7778 68.5657 47.8375 68.535 47.9041C68.5044 47.9706 68.4874 48.0425 68.485 48.1157C68.4825 48.1889 68.4947 48.2619 68.5209 48.3303C72.9103 60.8361 66.8426 75.5302 66.2953 94.172C65.9914 104.576 67.1853 115.906 72.7807 124.639C81.2361 137.861 98.4595 144.18 115.048 137.861C115.119 137.837 115.184 137.8 115.24 137.75C115.296 137.701 115.342 137.641 115.374 137.574C115.406 137.507 115.425 137.434 115.429 137.36C115.432 137.286 115.421 137.211 115.396 137.141C115.37 137.071 115.331 137.007 115.28 136.953C115.229 136.898 115.168 136.854 115.1 136.824C115.032 136.793 114.959 136.777 114.885 136.775C114.81 136.774 114.736 136.787 114.667 136.814C99.1073 142.323 82.5693 136.555 74.327 123.639C68.9495 115.162 67.8852 104.287 68.1625 94.2205C68.7364 74.9404 74.8004 62.0338 69.5562 47.9609Z" fill="#263238"/>
<path d="M75.4479 55.2558C75.8197 58.1077 75.6792 58.5642 76.3161 58.5884C77.1431 58.6199 77.1964 55.9739 77.1964 55.1492C77.1426 52.8063 76.7419 50.4842 76.0073 48.2588C75.8342 47.818 75.1028 46.1553 74.4332 46.3781C73.4076 46.7632 74.805 49.0762 75.4479 55.2558Z" fill="#263238"/>
<path d="M80.673 48.0894C81.1392 50.1636 81.3787 52.2823 81.3874 54.4083C81.454 57.4357 81.3693 57.6331 81.9105 57.7409C82.7581 57.8717 83.0984 54.9181 83.1359 54.4567C83.2905 52.1557 83.0288 49.8457 82.3634 47.6377C82.1987 47.1981 81.4916 45.5124 80.8401 45.757C80.2977 45.9605 80.4539 46.8058 80.673 48.0894Z" fill="#263238"/>
<path d="M108.489 97.9203C108.224 97.3415 107.399 97.6454 105.906 98.194C104.409 98.7803 102.974 99.5137 101.622 100.383C101.301 100.634 101.881 100.939 98.296 93.3876C94.9698 86.3542 91.0769 78.9418 89.1928 71.0135C87.4709 63.8978 89.6771 56.3667 87.8233 48.4723C87.7929 48.3321 87.709 48.2093 87.5894 48.1299C87.4699 48.0506 87.3241 48.0211 87.1831 48.0476C87.0421 48.0741 86.917 48.1545 86.8344 48.2718C86.7518 48.3891 86.7182 48.5341 86.7408 48.6758C87.7482 55.542 85.5432 63.744 87.3716 71.4531C90.331 83.8947 98.2754 95.6727 102.366 105.955C102.416 106.094 102.52 106.207 102.654 106.27C102.788 106.332 102.941 106.339 103.08 106.288C103.219 106.238 103.332 106.134 103.395 106C103.457 105.866 103.464 105.713 103.413 105.574C102.13 101.863 102.025 102.093 102.147 102.05C102.637 101.877 106.454 99.9184 106.919 99.5866C108.282 98.7232 108.712 98.3841 108.489 97.9203Z" fill="#263238"/>
<path d="M35.0913 63.8521C32.5357 68.9635 30.6366 74.3775 29.439 79.9654C27.6216 88.8585 26.8153 97.9287 27.0354 107.003C27.3071 111.154 28.3145 115.224 30.0105 119.023C31.7892 122.897 34.4912 126.274 37.8794 128.86C41.2676 131.445 45.2385 133.16 49.4437 133.853C56.1034 134.853 63.2947 133.223 70.0283 129.568C70.1558 129.499 70.251 129.382 70.2934 129.243C70.3359 129.104 70.3222 128.954 70.2554 128.825C70.1886 128.696 70.074 128.598 69.9361 128.553C69.7981 128.507 69.6478 128.518 69.5174 128.581C48.9823 138.996 30.3011 127.869 28.9026 106.886C28.6864 97.9774 29.458 89.0728 31.2032 80.3347C32.2463 74.8385 33.882 69.4716 36.0818 64.328C36.1449 64.1966 36.1532 64.0456 36.105 63.9081C36.0567 63.7705 35.9558 63.6578 35.8245 63.5947C35.6931 63.5316 35.5421 63.5233 35.4046 63.5715C35.2671 63.6198 35.1544 63.7207 35.0913 63.8521Z" fill="#263238"/>
<path d="M64.8725 97.0422C63.0911 97.5669 61.3551 98.2351 59.6816 99.0403C55.4435 87.9404 54.2593 81.1601 53.8258 73.9729C53.7205 72.2691 53.5982 70.271 53.6236 68.2365C53.6219 68.1002 53.5696 67.9694 53.4769 67.8695C53.3843 67.7696 53.2578 67.7076 53.122 67.6957C52.9862 67.6838 52.8509 67.7227 52.7422 67.805C52.6335 67.8872 52.5592 68.0069 52.5338 68.1409C52.2283 70.0899 52.0732 72.0595 52.0701 74.0323C52.2049 78.6265 52.8635 83.1903 54.0329 87.6352C55.6302 93.9691 58.0589 100.064 61.2557 105.76C61.2864 105.827 61.3303 105.888 61.3848 105.938C61.4393 105.988 61.5032 106.027 61.5729 106.052C61.6426 106.077 61.7166 106.088 61.7905 106.084C61.8645 106.081 61.9369 106.062 62.0036 106.03C62.0703 105.997 62.1298 105.952 62.1787 105.896C62.2276 105.841 62.2649 105.776 62.2884 105.706C62.3119 105.635 62.3211 105.561 62.3156 105.487C62.31 105.414 62.2897 105.342 62.2559 105.276C61.5439 103.689 60.6951 101.625 60.149 100.237C61.9653 99.7439 63.7078 99.0109 65.3302 98.057C65.4648 97.9963 65.5697 97.8846 65.622 97.7465C65.6742 97.6084 65.6694 97.4553 65.6087 97.3207C65.548 97.1861 65.4364 97.0812 65.2983 97.0289C65.1602 96.9767 65.0071 96.9815 64.8725 97.0422Z" fill="#263238"/>
<path d="M198.477 44.134C198.914 44.0637 199.363 44.1274 199.763 44.3166C200.164 44.5059 200.498 44.8118 200.722 45.1943C200.946 45.5768 201.049 46.0181 201.017 46.4601C200.986 46.9022 200.821 47.3244 200.546 47.6714C200.27 48.0183 199.896 48.2739 199.473 48.4045C199.049 48.5351 198.596 48.5346 198.173 48.4031C197.75 48.2716 197.376 48.0153 197.101 47.6677C196.826 47.3201 196.663 46.8976 196.633 46.4554C196.574 45.904 196.735 45.3517 197.08 44.9176C197.425 44.4834 197.926 44.202 198.477 44.134Z" fill="#263238"/>
<path d="M194.466 41.7801C195.944 40.1017 197.33 39.0421 199.679 39.5665C199.816 39.6185 199.969 39.6139 200.103 39.5536C200.237 39.4933 200.341 39.3823 200.393 39.245C200.445 39.1077 200.44 38.9553 200.38 38.8214C200.32 38.6876 200.209 38.5831 200.072 38.5311C199.465 38.2707 198.813 38.1339 198.153 38.1286C197.493 38.1233 196.839 38.2496 196.228 38.5001C195.618 38.7506 195.063 39.1204 194.597 39.5877C194.132 40.0551 193.763 40.6106 193.515 41.2219C193.26 41.8855 193.959 42.3578 194.466 41.7801Z" fill="#263238"/>
<path d="M193.121 66.0361C194.191 65.6949 195.183 65.1434 196.037 64.4139C196.891 63.6844 197.591 62.7916 198.095 61.788C198.389 61.0614 198.93 59.6179 198.178 59.4072C197.643 59.257 197.572 59.7112 197.06 60.4898C196.447 61.3796 195.732 62.1945 194.929 62.9178C192.914 64.6071 190.878 64.7125 190.979 65.5602C191.035 66.2892 192.651 66.1439 193.121 66.0361Z" fill="#263238"/>
<path d="M144.529 78.1554C141.131 75.6372 137.224 73.8911 133.081 73.039C129.248 72.0969 122.575 72.2531 118.635 72.5546C118.182 72.5261 117.732 72.6428 117.35 72.8876C113.545 76.5823 109.748 80.4757 105.568 82.9557C104.702 83.4703 103.708 83.7301 102.701 83.7053C102.036 83.6545 101.669 83.4849 102.011 82.349C102.06 82.1774 102.059 81.9952 102.008 81.824C101.957 81.6528 101.858 81.4999 101.722 81.3834C101.587 81.2669 101.421 81.1917 101.244 81.1666C101.067 81.1416 100.887 81.1678 100.725 81.2422C98.9841 81.9246 97.4187 82.9889 96.1441 84.3569C96.0154 84.4925 95.9298 84.6632 95.8979 84.8474C95.866 85.0317 95.8893 85.2212 95.9648 85.3922L101.644 97.7091C101.746 97.9265 101.927 98.0967 102.151 98.1852C102.374 98.2736 102.623 98.2735 102.846 98.1851C104.775 97.4016 106.116 97.1182 107.939 96.4122C113.785 100.56 117.785 107.981 120.03 114.788C120.086 114.953 120.188 115.099 120.324 115.209C120.461 115.318 120.626 115.386 120.8 115.405C120.974 115.424 121.149 115.392 121.306 115.315C121.462 115.237 121.594 115.116 121.684 114.966C122.337 113.836 123.688 111.569 124.444 110.515C124.529 110.398 124.584 110.262 124.605 110.119C124.626 109.976 124.613 109.83 124.565 109.693C123.186 105.857 122.44 100.853 126.503 100.625C126.617 100.619 126.728 100.591 126.83 100.541C126.933 100.492 127.024 100.422 127.1 100.337C127.175 100.251 127.233 100.152 127.269 100.044C127.305 99.9361 127.32 99.822 127.312 99.7085C127.002 95.642 128.253 91.894 132.382 92.33C132.495 92.3425 132.609 92.3297 132.717 92.2925C132.824 92.2552 132.922 92.1946 133.003 92.1148C133.084 92.035 133.147 91.9381 133.186 91.8312C133.225 91.7244 133.24 91.6101 133.229 91.4968C133.084 90.2664 133.1 89.0223 133.276 87.796C133.649 85.8064 134.557 84.3242 136.546 84.6305C137.599 84.8083 138.568 85.3213 139.306 86.0934C139.375 86.1682 139.461 86.2255 139.556 86.2609C139.652 86.2962 139.754 86.3085 139.855 86.2966C139.956 86.2848 140.053 86.2493 140.137 86.1929C140.222 86.1365 140.292 86.0609 140.342 85.9723C141.369 84.1195 143.506 80.6706 144.65 78.8917C144.722 78.7749 144.749 78.6362 144.727 78.501C144.704 78.3658 144.634 78.2431 144.529 78.1554Z" fill="#F4F4F4"/>
<path d="M127.435 156.491C124.433 154.389 122.109 151.457 120.748 148.054C119.327 144.771 118.824 141.163 119.295 137.616C119.321 137.445 119.298 137.27 119.23 137.111C119.161 136.951 119.048 136.815 118.906 136.717C118.763 136.619 118.595 136.563 118.422 136.556C118.249 136.549 118.077 136.59 117.926 136.677C111.33 140.405 104.496 142.265 97.0899 140.532C96.9369 140.498 96.7777 140.502 96.627 140.545C96.4762 140.588 96.3387 140.669 96.2272 140.779C96.1157 140.889 96.0338 141.026 95.9891 141.176C95.9443 141.327 95.9381 141.486 95.971 141.639L99.554 157.467C99.605 157.67 99.7232 157.85 99.8894 157.977C100.056 158.105 100.26 158.172 100.469 158.169C102.005 158.11 125.138 157.622 127.292 157.597C127.429 157.597 127.56 157.546 127.662 157.456C127.764 157.366 127.83 157.242 127.847 157.106C127.865 156.971 127.833 156.834 127.757 156.721C127.681 156.608 127.567 156.526 127.435 156.491Z" fill="#F4F4F4"/>
<path d="M196.989 74.341C196.59 73.8191 196.199 74.3277 195.096 74.6741C194.51 74.8443 193.914 74.9754 193.311 75.0664C190.919 75.5502 188.432 75.1755 186.288 74.008C184.495 73.0719 184.351 72.6638 183.92 73.0671C183.244 73.6726 184.938 75.2832 185.766 75.7809C185.603 77.9195 185.609 79.1571 185.598 79.9588C182.183 79.9177 178.796 80.5823 175.649 81.9109C175.58 81.9335 175.515 81.9697 175.46 82.0172C175.404 82.0648 175.359 82.1228 175.325 82.1881C175.292 82.2533 175.272 82.3244 175.267 82.3974C175.261 82.4703 175.27 82.5437 175.292 82.6132C175.315 82.6828 175.351 82.7472 175.399 82.8028C175.446 82.8585 175.504 82.9041 175.569 82.9373C175.635 82.9705 175.706 82.9905 175.779 82.9962C175.852 83.0019 175.925 82.9931 175.995 82.9705C179.466 82.2776 182.99 81.887 186.529 81.8031C186.768 81.7994 186.995 81.703 187.164 81.5344C187.333 81.3658 187.43 81.1382 187.434 80.8997C187.49 79.4362 187.465 77.9707 187.36 76.5099C189.397 77.1862 191.582 77.2798 193.67 76.7799C194.785 76.4857 197.636 75.2481 196.989 74.341Z" fill="#263238"/>
<path d="M217.241 46.2112C216.74 44.9955 215.927 43.9341 214.883 43.1344C213.839 42.3348 212.603 41.8254 211.299 41.6579C211.778 37.4467 211.13 33.1837 209.419 29.3059C208.257 27.1198 206.636 25.21 204.669 23.7067C202.702 22.2033 200.434 21.1417 198.019 20.5941C194.069 19.6506 189.931 19.8573 186.094 21.1899C184.446 21.8123 182.329 23.2764 181.466 23.1529C181.584 22.4984 181.919 21.9029 182.418 21.4636C183.443 20.6702 184.567 20.0139 185.761 19.5115C189.045 18.0563 192.697 17.645 196.222 18.3332C200.506 18.7196 204.464 20.7863 207.229 24.0817C210.861 28.0537 210.224 29.5033 211.417 29.5444C213.3 29.6244 214.432 29.8811 216.058 28.5442C216.41 28.2609 216.691 27.9003 216.881 27.4907C217.07 27.081 217.162 26.6331 217.151 26.1819C217.139 25.7307 217.023 25.2882 216.813 24.8889C216.603 24.4896 216.303 24.1442 215.937 23.8795C215.207 23.2727 214.367 22.8119 213.462 22.522C214.294 22.0586 215.078 21.5169 215.807 20.9041C219.419 17.5061 215.849 12.0639 210.237 14.4302C213.292 8.56659 209.222 5.93755 205.214 9.43124C205.632 4.8295 203.379 1.50051 199.443 3.37633C198.066 4.05051 196.895 5.08229 196.053 6.36382C196.053 4.83072 196.734 -0.156107 193.22 -0.932347C190.163 -1.55964 188.256 2.3034 187.556 5.35144C187.126 7.34472 187.361 7.44886 187.139 7.00564C185.937 4.48438 183.615 2.10843 181.13 3.54223C180.339 4.12466 179.686 4.87488 179.219 5.73913C178.752 6.60338 178.482 7.56025 178.428 8.54116C178.389 9.18751 178.409 9.83609 178.489 10.4787C177.922 9.6824 177.221 8.99004 176.418 8.43218C173.488 6.53215 170.848 9.14423 170.873 12.3594C170.971 14.0074 171.465 15.6074 172.312 17.0241C171.146 16.2108 169.76 15.7708 168.338 15.7623C165.812 15.8603 163.589 20.7273 167.72 25.2079C170.352 28.0101 173.532 28.1784 177.382 28.4921C177.432 28.6284 177.529 28.7423 177.656 28.813C181.511 30.8717 185.977 34.1171 194.053 31.7412C196.562 30.9885 198.913 29.7867 200.992 28.1942C201.756 34.9878 203.573 41.1263 210.166 42.8325C211.018 42.8285 211.86 43.0219 212.624 43.3975C213.389 43.7732 214.056 44.3209 214.574 44.9978C215.151 45.6219 215.541 46.3951 215.701 47.2299C215.861 48.0646 215.784 48.9275 215.478 49.7206C214.668 51.8507 211.717 53.5098 209.424 53.7907C209.193 53.8235 208.983 53.9407 208.833 54.1196C208.684 54.2986 208.606 54.5266 208.615 54.7595C208.928 60.5221 207.238 66.2155 203.832 70.874C203.686 71.083 203.611 71.3335 203.618 71.5885C203.56 72.9642 203.882 78.0903 204.129 80.3076C204.145 80.4868 204.221 80.6555 204.344 80.7871C204.466 80.9187 204.629 81.0056 204.807 81.0342C208.167 81.761 211.465 82.7477 214.672 83.9854C214.739 84.0167 214.812 84.0345 214.886 84.0377C214.96 84.0409 215.034 84.0295 215.104 84.0042C215.173 83.9788 215.237 83.94 215.292 83.8899C215.347 83.8398 215.391 83.7795 215.422 83.7123C215.453 83.6451 215.471 83.5724 215.474 83.4983C215.478 83.4243 215.466 83.3503 215.441 83.2806C215.416 83.211 215.377 83.147 215.327 83.0923C215.277 83.0377 215.216 82.9934 215.149 82.9621C212.086 81.6061 208.93 80.4729 205.704 79.5713C205.576 77.8384 205.442 74.7686 205.442 71.7992C208.883 67.078 210.662 61.3484 210.499 55.5079C214.996 54.4604 218.845 50.5707 217.241 46.2112Z" fill="#263238"/>
<path d="M168.657 81.2908C168.573 82.4073 168.389 84.0482 168.359 86.039C168.308 88.5894 168.48 101.088 169.335 110.888C169.337 111.035 169.397 111.175 169.502 111.277C169.607 111.38 169.748 111.437 169.894 111.436C170.044 111.43 170.185 111.366 170.288 111.257C170.39 111.148 170.446 111.003 170.442 110.853C170.478 108.877 170.525 106.914 170.537 104.927C170.577 102.29 170.072 84.8244 170.053 84.4805C169.969 83.4088 169.851 82.3504 169.755 81.2908C169.755 81.2188 169.741 81.1475 169.714 81.0809C169.687 81.0144 169.646 80.9539 169.595 80.903C169.545 80.8521 169.484 80.8118 169.418 80.7844C169.351 80.757 169.28 80.7431 169.208 80.7434C169.062 80.744 168.923 80.8018 168.82 80.9042C168.717 81.0066 168.658 81.1455 168.657 81.2908Z" fill="#F4F4F4"/>
<path d="M194.293 105.638C194.087 107.343 194.187 109.073 194.59 110.743C194.596 110.891 194.661 111.031 194.77 111.132C194.88 111.232 195.025 111.285 195.173 111.279C195.321 111.273 195.461 111.208 195.562 111.098C195.662 110.989 195.715 110.844 195.709 110.696C195.857 108.999 195.749 107.29 195.388 105.625C195.198 104.879 194.468 104.898 194.293 105.638Z" fill="#263238"/>
<path d="M125.93 104.395C127.194 106.465 128.726 108.358 130.488 110.025C131.079 110.553 133.143 112.406 133.665 111.822C134.016 111.408 133.864 111.184 131.738 108.795C130.179 107.101 128.733 105.309 127.406 103.428C127.043 102.934 126.028 101.611 125.502 101.917C124.893 102.251 125.671 103.898 125.93 104.395Z" fill="#263238"/>
<path d="M133.577 104.09C133.835 104.439 135.756 106.975 136.409 106.512C136.818 106.185 136.761 105.806 134.593 102.406C131.31 97.0123 130.272 94.8422 129.451 95.289C128.089 95.9926 132.651 102.877 133.577 104.09Z" fill="#263238"/>
<path d="M134.895 90.1579C135.59 92.3422 136.675 94.3825 138.097 96.1802C138.438 96.6137 140.243 98.7983 140.858 98.2751C141.297 97.901 141.041 97.6321 139.526 95.169C138.336 93.4232 137.342 91.5514 136.563 89.5876C135.815 88.092 135.672 87.6318 135.159 87.7541C134.458 87.8934 134.771 89.6554 134.895 90.1579Z" fill="#263238"/>
<path d="M123.829 114.477C122.296 117.868 121.925 121.016 120.949 124.308C118.475 133.294 117.412 143.98 122.686 151.62C128.76 160.406 141.238 161.508 149.325 154.06C152.931 150.703 155.31 145.955 157.762 140.517C157.815 140.384 157.816 140.237 157.764 140.104C157.712 139.972 157.612 139.864 157.483 139.802C157.355 139.741 157.208 139.73 157.072 139.773C156.936 139.816 156.822 139.908 156.751 140.032C154.216 145.197 151.777 149.696 148.218 152.837C139.679 160.345 126.453 158.017 122.242 146.708C119.752 140.031 120.818 131.643 122.587 124.74C123.328 121.573 123.685 117.863 124.835 114.909C124.893 114.775 124.895 114.623 124.841 114.487C124.788 114.352 124.683 114.242 124.55 114.183C124.415 114.13 124.265 114.131 124.131 114.186C123.997 114.24 123.889 114.345 123.829 114.477Z" fill="#263238"/>
<path d="M165.442 84.9128C165.437 84.8392 165.417 84.7673 165.383 84.7015C165.35 84.6357 165.303 84.5773 165.247 84.5297C165.191 84.482 165.125 84.4462 165.055 84.4242C164.984 84.4023 164.91 84.3946 164.837 84.4018C157.684 84.5737 149.646 91.928 145.584 97.6984C146.189 95.3212 147.422 91.1227 148.348 88.7274C148.408 88.5947 148.413 88.4437 148.361 88.3076C148.31 88.1714 148.207 88.0613 148.074 88.0014C147.941 87.9415 147.79 87.9368 147.654 87.9882C147.518 88.0396 147.408 88.143 147.348 88.2757C146.276 90.3049 145.361 92.4134 144.611 94.5825C141.749 102.926 140.616 114.927 143.29 128.56C143.576 130.049 143.937 131.517 144.265 133.012C144.28 133.084 144.309 133.152 144.35 133.213C144.391 133.274 144.444 133.326 144.506 133.366C144.567 133.407 144.636 133.434 144.708 133.448C144.78 133.462 144.854 133.461 144.926 133.447C144.998 133.432 145.067 133.403 145.127 133.362C145.188 133.32 145.24 133.267 145.281 133.206C145.321 133.145 145.349 133.076 145.363 133.004C145.376 132.932 145.376 132.857 145.361 132.785C143.657 122.649 142.842 112.021 144.664 101.905C148.458 96.7296 152.138 92.2174 157.499 88.7419C159.7 87.12 162.237 86.0138 164.924 85.505C165.071 85.4941 165.207 85.4259 165.304 85.3151C165.401 85.2043 165.451 85.0598 165.442 84.9128Z" fill="#263238"/>
<path d="M223.752 86.8809C227.048 88.0092 230.235 89.4352 233.272 91.1411C237.648 93.4225 241.333 96.8331 243.946 101.019C250.512 111.942 252.878 125.916 254.049 138.56C254.505 143.221 256.004 148.332 255.81 152.889C255.803 153.036 255.854 153.18 255.952 153.29C256.05 153.399 256.187 153.466 256.334 153.475C256.481 153.485 256.626 153.436 256.737 153.34C256.848 153.243 256.917 153.107 256.929 152.961C257.321 148.13 255.978 143.187 255.667 138.429C255.33 132.947 254.635 127.492 253.586 122.101C252.137 114.361 249.418 106.914 245.541 100.061C242.737 95.6197 238.786 92.0178 234.105 89.6359C230.909 88.0091 227.545 86.7361 224.073 85.8394C223.94 85.8119 223.801 85.8351 223.684 85.9044C223.567 85.9737 223.48 86.0842 223.44 86.2143C223.399 86.3444 223.409 86.4848 223.467 86.6081C223.525 86.7313 223.627 86.8286 223.752 86.8809Z" fill="#263238"/>
<path d="M229.917 148.513C230.446 151.387 231.247 154.204 232.31 156.926C232.347 157.07 232.441 157.193 232.569 157.267C232.697 157.342 232.85 157.363 232.994 157.325C233.137 157.287 233.26 157.194 233.335 157.065C233.409 156.937 233.43 156.784 233.392 156.641C232.891 153.753 232.079 150.928 230.97 148.215C230.956 148.139 230.927 148.068 230.884 148.005C230.841 147.942 230.785 147.888 230.72 147.848C230.655 147.807 230.582 147.781 230.507 147.77C230.431 147.76 230.354 147.765 230.28 147.786C230.207 147.806 230.138 147.842 230.079 147.891C230.02 147.94 229.972 148 229.938 148.069C229.904 148.137 229.884 148.212 229.881 148.288C229.877 148.365 229.889 148.441 229.917 148.513Z" fill="#263238"/>
<path d="M228.171 112.437C228.113 112.271 228.008 112.125 227.868 112.017C227.729 111.91 227.561 111.845 227.385 111.832C225.563 111.676 223.241 111.541 220.569 111.431C221.756 103.875 221.936 100.09 221.733 84.9373C221.696 82.5722 221.553 80.7981 221.471 79.2009C221.473 79.1289 221.46 79.0574 221.434 78.9903C221.408 78.9232 221.369 78.8619 221.32 78.8099C221.27 78.7579 221.21 78.7162 221.145 78.6873C221.079 78.6584 221.008 78.6428 220.936 78.6414C220.791 78.64 220.651 78.6954 220.547 78.7957C220.442 78.8959 220.381 79.0331 220.376 79.1778C219.274 88.9868 220.474 96.0396 219.396 111.39C208.993 110.999 171.49 110.614 163.495 112.458C163.363 112.489 163.239 112.549 163.132 112.632C163.026 112.716 162.938 112.822 162.876 112.942C155.682 127.002 158.925 141.922 160.912 156.68C160.916 156.751 160.934 156.821 160.966 156.886C160.997 156.95 161.04 157.008 161.094 157.056C161.147 157.103 161.21 157.14 161.278 157.164C161.345 157.187 161.417 157.197 161.488 157.193C161.56 157.189 161.63 157.171 161.695 157.139C161.759 157.108 161.817 157.065 161.865 157.011C161.912 156.958 161.949 156.895 161.972 156.827C161.996 156.76 162.006 156.688 162.002 156.617L225.439 157.564C225.442 157.702 225.496 157.834 225.59 157.936C225.685 158.037 225.813 158.1 225.951 158.113C226.089 158.125 226.227 158.087 226.338 158.005C226.45 157.922 226.527 157.802 226.555 157.666C229.681 142.183 233.011 127.521 228.171 112.437Z" fill="#F4F4F4"/>
<path d="M119.294 21.9915C119.401 21.9173 119.534 21.8873 119.663 21.9079C123.133 22.1707 127.104 27.252 124.661 30.4054C121.803 34.1013 114.382 29.2816 115.327 24.6181C115.392 24.1739 115.55 23.7484 115.791 23.3693C116.031 22.9903 116.349 22.6663 116.723 22.4184C117.098 22.1705 117.52 22.0044 117.963 21.9308C118.406 21.8573 118.859 21.878 119.294 21.9915ZM119.426 22.9918C119.32 23.0511 119.199 23.0761 119.079 23.0632C118.716 23.0455 118.355 23.1367 118.043 23.3253C117.732 23.5138 117.484 23.7911 117.331 24.1216C116.141 26.3934 118.973 29.5807 121.734 29.8459C122.022 29.872 122.312 29.8267 122.578 29.7142C122.844 29.6017 123.079 29.4254 123.261 29.2008C123.443 28.9763 123.568 28.7103 123.623 28.4264C123.678 28.1425 123.662 27.8494 123.578 27.5729C123.222 25.7177 121.353 23.3708 119.508 23.0148C119.485 23.0002 119.444 23.0002 119.426 22.9881V22.9918Z" fill="#263238"/>
<path d="M126.011 18.1744C126.047 18.0895 126.104 18.0158 126.179 17.9613C127.939 16.2235 130.907 18.7981 130.712 21.4126C130.51 23.8346 127.1 24.7925 125.429 22.0423C125.208 21.7521 125.048 21.4205 124.957 21.0672C124.867 20.7138 124.848 20.3459 124.902 19.9852C124.957 19.6245 125.083 19.2784 125.273 18.9674C125.464 18.6564 125.715 18.3867 126.011 18.1744ZM127.094 18.746C127.054 18.7969 127.01 18.8447 126.963 18.8889C126.733 19.2067 126.611 19.5903 126.615 19.9828C126.619 20.3754 126.75 20.7561 126.987 21.0687C127.765 22.2724 128.88 21.9685 128.88 21.0324C128.819 20.072 127.951 18.5632 127.094 18.746Z" fill="#263238"/>
<path d="M149.531 21.3145C150.32 21.4447 151.051 21.8114 151.627 22.366C152.203 22.9207 152.597 23.6371 152.757 24.4206C153.06 26.1039 151.538 27.5692 148.722 26.7772C144.937 25.7806 144.736 22.7083 146.556 21.6124C147.003 21.3554 147.499 21.196 148.012 21.1446C148.525 21.0933 149.042 21.1512 149.531 21.3145ZM149.686 22.5642C149.673 22.5643 149.661 22.56 149.651 22.5521C149.393 22.5358 149.133 22.5475 148.877 22.5872C148.507 22.6496 148.149 22.7723 147.818 22.9505C147.485 23.1055 147.212 23.3429 147.354 23.7716C147.633 24.6447 149.685 25.1969 150.26 25.1521C150.918 25.1291 151.197 25.008 150.962 24.2002C150.741 23.5224 150.29 22.9435 149.686 22.5642Z" fill="#263238"/>
<path d="M188.919 40.5632C186.114 35.848 181.878 32.1503 176.828 30.0075C171.777 27.8646 166.175 27.3883 160.835 28.6476C155.495 29.907 150.696 32.8364 147.135 37.0103C143.574 41.1841 141.437 46.3849 141.033 51.8568C140.84 55.8514 141.588 59.8356 143.219 63.4872C144.85 67.1389 147.317 70.3555 150.421 72.877C143.15 83.2612 141.389 85.1164 140.923 87.387C140.73 87.9991 140.762 88.6604 141.016 89.2502C141.269 89.84 141.726 90.319 142.304 90.5997C143.493 91.0841 144.74 90.274 145.659 89.3742C147.139 87.9211 147.607 86.859 155.422 76.0619C160.32 78.4288 165.844 79.1737 171.193 78.1886C176.542 77.2034 181.439 74.5395 185.172 70.5832C188.905 66.627 191.281 61.5841 191.955 56.1861C192.629 50.7882 191.566 45.3159 188.919 40.5632ZM189.097 53.9397C188.837 59.9304 186.208 65.5722 181.788 69.6242C177.369 73.6762 171.52 75.8063 165.53 75.546C159.54 75.2857 153.899 72.6563 149.847 68.2362C145.796 63.8161 143.666 57.9674 143.926 51.9767C144.149 45.9121 146.756 40.1806 151.182 36.0286C155.607 31.8766 161.493 29.6399 167.559 29.8048C179.286 30.3667 189.7 41.0645 189.097 53.9397Z" fill="#D42151"/>
<path d="M174.861 46.7543C174.481 46.1594 173.948 45.6776 173.318 45.3595C172.688 45.0414 171.984 44.8987 171.28 44.9463C170.73 44.8834 170.173 44.9424 169.648 45.1193C169.124 45.2962 168.645 45.5865 168.245 45.9696C167.127 47.0659 166.447 48.5318 166.33 50.0933C166.214 51.6549 166.671 53.2053 167.614 54.4549C167.986 54.9577 168.466 55.3711 169.017 55.6652C169.569 55.9594 170.18 56.1267 170.805 56.1551C171.429 56.1835 172.052 56.0723 172.629 55.8295C173.205 55.5867 173.72 55.2185 174.136 54.7516C175.106 53.6769 175.702 52.3162 175.833 50.874C175.963 49.4318 175.622 47.9861 174.861 46.7543Z" fill="#263238"/>
<path d="M181.44 52.9264C181.277 55.5906 180.892 57.4882 180.762 60.2214C180.724 61.2737 180.456 62.7341 180.952 63.5782C181.203 63.9576 181.556 64.2576 181.972 64.443C182.387 64.6283 182.847 64.6913 183.296 64.6245C183.44 64.6266 183.579 64.5733 183.685 64.4756C183.791 64.3779 183.855 64.2433 183.864 64.0996C183.873 63.956 183.827 63.8143 183.734 63.7039C183.642 63.5936 183.511 63.523 183.368 63.5067C181.673 63.2645 182.198 62.7317 182.5 60.3642C182.772 57.3441 183.015 56.7313 183.308 53.0451C183.879 45.8736 184.254 44.9654 183.535 44.8213C182.2 44.5646 181.541 51.6052 181.44 52.9264Z" fill="#263238"/>
<path d="M161.945 34.041C163.174 33.6527 164.499 33.6989 165.699 34.1717C167.469 34.9298 168.249 36.6785 166.781 38.9551C165.171 41.3868 162.828 42.7806 160.796 44.4542C159.489 45.5283 158.263 46.9076 156.536 47.3811C155.916 47.6115 155.232 47.5956 154.624 47.3365C154.016 47.0774 153.53 46.595 153.267 45.9885C152.704 44.5143 152.721 42.8814 153.315 41.4195C154.12 39.6862 155.274 38.138 156.705 36.8722C158.136 35.6064 159.814 34.6503 161.633 34.064C161.733 34.029 161.841 34.0211 161.945 34.041ZM162.136 35.04C159.058 36.5965 156.555 39.0936 154.992 42.1691C154.596 43.0773 154.536 45.0754 155.234 45.5598C156.278 46.2113 158.814 43.6767 159.613 43.0168C161.503 41.4958 167.745 37.4777 165.516 35.6855C164.597 35.0696 163.473 34.8387 162.386 35.0424C162.303 35.0666 162.215 35.0658 162.133 35.04H162.136Z" fill="#263238"/>
<path d="M153.302 52.4951C157.903 53.6444 156.462 61.9686 151.409 61.1476C145.711 60.1086 147.938 51.174 152.885 52.2215C152.972 52.2306 153.054 52.2601 153.127 52.3078C153.199 52.3554 153.259 52.4196 153.302 52.4951ZM152.742 53.3162C150.036 53.3997 148.478 58.7196 151.73 59.3033C154.321 59.7877 155.615 54.7173 153.051 53.5778C152.985 53.5571 152.923 53.5233 152.87 53.4784C152.817 53.4334 152.774 53.3783 152.742 53.3162Z" fill="#263238"/>
<path d="M52.4298 41.6094C49.9766 40.5549 47.3902 39.8422 44.7432 39.4914C43.3892 39.225 41.9848 39.4351 40.7679 40.086C39.0328 41.1758 38.2772 43.1582 37.7105 45.12C36.5586 49.4637 36.23 53.9847 36.7418 58.4493C37.0058 60.6085 37.5979 62.9699 39.2762 64.3407C42.4111 66.8487 47.2545 65.588 51.1426 64.704C51.2751 64.6654 51.3886 64.5788 51.461 64.4612C51.5333 64.3437 51.5594 64.2034 51.5342 64.0676C51.5091 63.9319 51.4344 63.8103 51.3246 63.7265C51.2149 63.6427 51.078 63.6027 50.9404 63.6141C47.7922 64.1155 42.8276 65.1218 40.3853 62.9953C39.1551 61.9454 38.7458 59.8335 38.5763 58.235C38.1189 54.0125 38.4336 49.742 39.505 45.6323C40.7498 41.2727 42.1217 41.0511 44.5979 41.2727C47.1431 41.4915 49.6615 41.9538 52.1186 42.6532C52.1869 42.6744 52.2588 42.6819 52.3301 42.675C52.4013 42.6682 52.4705 42.6473 52.5336 42.6135C52.5967 42.5797 52.6525 42.5337 52.6976 42.4781C52.7428 42.4226 52.7764 42.3586 52.7967 42.2899C52.8352 42.1511 52.8185 42.0027 52.7501 41.8758C52.6817 41.749 52.5669 41.6535 52.4298 41.6094Z" fill="#D42151"/>
<path d="M63.4584 45.5561C63.3254 44.641 63.0692 43.7481 62.6967 42.9017C62.3137 42.0301 61.7864 41.2293 61.1371 40.533C61.0487 40.4179 60.9181 40.3426 60.7741 40.3237C60.6301 40.3049 60.4846 40.344 60.3694 40.4325C60.2543 40.521 60.1791 40.6516 60.1602 40.7955C60.1414 40.9395 60.1805 41.0851 60.2689 41.2002C60.5579 41.6964 60.7875 42.2248 60.9531 42.7745C56.9403 44.7702 56.4196 50.767 56.3518 55.1968C56.445 57.1452 57.5154 60.8884 59.4661 60.909C59.1998 61.351 58.8958 61.8487 58.3764 61.8221C58.3024 61.8114 58.227 61.8157 58.1547 61.8348C58.0824 61.8538 58.0147 61.8872 57.9556 61.933C57.8965 61.9788 57.8472 62.0361 57.8107 62.1013C57.7742 62.1665 57.7512 62.2385 57.7431 62.3128C57.7349 62.3871 57.7418 62.4623 57.7634 62.5339C57.7849 62.6055 57.8207 62.672 57.8685 62.7295C57.9163 62.787 57.9751 62.8343 58.0416 62.8686C58.1081 62.9028 58.1807 62.9233 58.2553 62.9289C58.6087 62.9767 58.9685 62.9365 59.3027 62.8119C59.6368 62.6872 59.9351 62.482 60.1709 62.2144C61.0134 61.2077 61.6628 60.0541 62.0864 58.8116C63.7993 54.6146 64.2754 50.015 63.4584 45.5561ZM61.1577 46.8882C60.4942 48.9469 59.4383 52.9892 59.408 53.1127C59.3986 53.1861 59.3749 53.2569 59.3381 53.3211C59.3014 53.3853 59.2524 53.4417 59.1938 53.4869C59.1353 53.5322 59.0684 53.5655 58.9971 53.5849C58.9257 53.6043 58.8512 53.6095 58.7778 53.6001C58.7044 53.5907 58.6336 53.567 58.5694 53.5302C58.5052 53.4935 58.4488 53.4444 58.4036 53.3859C58.3583 53.3274 58.325 53.2605 58.3056 53.1891C58.2862 53.1177 58.281 53.0432 58.2904 52.9698C58.2407 50.6354 58.9002 48.3409 60.1818 46.3893C60.637 45.7983 61.3842 46.1846 61.1577 46.8882Z" fill="#D42151"/>
<path d="M46.0556 47.5431C46.0097 45.6106 45.2755 43.758 43.9851 42.3189C43.8928 42.203 43.7587 42.128 43.6117 42.1101C43.4647 42.0922 43.3165 42.1328 43.1992 42.2232C43.1427 42.2684 43.0957 42.3243 43.0609 42.3877C43.0261 42.4511 43.0042 42.5208 42.9965 42.5927C42.9887 42.6647 42.9952 42.7374 43.0157 42.8068C43.0361 42.8762 43.0701 42.9408 43.1157 42.997C43.4571 43.63 43.6966 44.3129 43.8252 45.0206C42.3744 47.072 41.5252 49.4878 41.3732 51.9958C41.303 52.6401 41.1662 54.4602 41.1819 55.4241C41.2068 56.5986 41.3222 57.7695 41.527 58.9263C41.7074 59.6529 42.1857 60.5308 42.9316 60.4921C42.7793 60.9817 42.5119 61.4276 42.1518 61.7927C42.0388 61.8866 41.9661 62.0203 41.9485 62.1663C41.9309 62.3122 41.9699 62.4593 42.0574 62.5774C42.6725 63.3851 43.8507 61.7878 44.358 60.7803C45.9691 56.5659 46.5511 52.0277 46.0556 47.5431ZM43.973 53.4393C43.962 53.5877 43.8926 53.7257 43.78 53.8229C43.6674 53.9201 43.5207 53.9686 43.3724 53.9576C43.224 53.9467 43.086 53.8773 42.9889 53.7646C42.8917 53.652 42.8432 53.5054 42.8541 53.357C42.6917 51.7762 42.8621 50.179 43.3542 48.6681C43.4632 48.3883 43.6642 48.151 43.9596 48.1837C45.0579 48.2854 44.2272 52.3785 43.973 53.4381V53.4393Z" fill="#D42151"/>
<path d="M92.0128 51.2479C92.0068 50.1877 91.8817 49.1316 91.6398 48.0993C91.4754 47.0928 91.0427 46.1493 90.3872 45.368C89.7317 44.5867 88.8778 43.9966 87.9152 43.6599C86.2043 42.9515 67.1719 37.7636 62.5331 37.2574C60.4843 37.0346 58.5796 37.0297 57.0951 38.4599C54.3497 41.3694 52.5435 45.038 51.9114 48.9882C51.5531 48.9013 51.1995 48.7962 50.8519 48.6733C50.7223 48.3912 50.5673 48.1429 50.2574 48.1611C49.9474 48.1793 49.8505 48.453 49.7452 48.7448C49.4739 49.4956 50.1181 50.3348 51.6922 50.3191C51.416 52.2723 51.3543 54.2499 51.5082 56.2166C49.6023 56.3316 49.1058 58.033 49.641 58.3963C50.1351 58.7257 50.9294 57.6952 51.6559 57.5486C52.9285 66.631 57.6182 66.9071 66.8171 65.6513C66.9655 65.634 67.1009 65.5584 67.1936 65.4412C67.2862 65.324 67.3285 65.1749 67.3112 65.0265C67.2938 64.8781 67.2183 64.7427 67.1011 64.65C66.9839 64.5574 66.8347 64.515 66.6864 64.5324C63.5914 64.8472 58.5288 65.4334 56.0114 63.6399C54.212 62.3272 53.7313 59.9173 53.4056 57.7061C52.558 51.9091 54.1019 43.9093 58.3919 39.8065C59.4115 38.8377 60.9348 38.9588 62.343 39.1163C65.4415 39.577 68.5035 40.2572 71.5056 41.1519C77.0162 42.5785 85.6836 44.7037 87.2347 45.325C88.8088 45.9692 89.6685 46.6946 90.2219 49.1577C90.8029 51.8442 90.5793 54.6423 89.5789 57.2023C89.5364 57.3412 89.5508 57.4913 89.6189 57.6196C89.687 57.748 89.8033 57.844 89.9422 57.8865C90.0811 57.9291 90.2312 57.9147 90.3595 57.8466C90.4878 57.7784 90.5838 57.6621 90.6263 57.5232C91.2629 55.9603 91.7101 54.3267 91.9583 52.6575C92.9415 53.0607 93.6293 53.4131 93.5058 55.5796C93.4295 57.6383 91.9062 58.8178 90.8043 58.6264C90.6638 58.5807 90.5109 58.5926 90.3792 58.6596C90.2475 58.7266 90.1478 58.8431 90.102 58.9837C90.0563 59.1242 90.0682 59.2771 90.1352 59.4088C90.2022 59.5406 90.3187 59.6403 90.4592 59.686C90.8714 59.8545 91.3145 59.9341 91.7595 59.9197C92.2046 59.9053 92.6416 59.7972 93.042 59.6025C93.7595 59.2288 94.3581 58.6618 94.7702 57.9657C95.1823 57.2695 95.3915 56.472 95.3741 55.6631C95.4904 53.1043 94.5144 51.0166 92.0128 51.2479Z" fill="#D42151"/>
<path d="M110.716 95.7402C111.634 94.9168 114.765 92.9017 123.151 86.3503C123.273 86.265 123.356 86.1349 123.381 85.9887C123.407 85.8424 123.373 85.692 123.288 85.5704C123.203 85.4488 123.073 85.3661 122.927 85.3405C122.78 85.3148 122.63 85.3483 122.508 85.4336C119.347 87.4184 111.807 92.645 109.915 94.9785C109.814 95.0847 109.76 95.2266 109.763 95.3731C109.767 95.5196 109.829 95.6586 109.935 95.7596C110.041 95.8606 110.183 95.9153 110.329 95.9117C110.476 95.9081 110.615 95.8464 110.716 95.7402Z" fill="#263238"/>
<path d="M191.402 143.105C192.475 144.424 193.724 145.59 195.114 146.569C195.735 146.969 197.415 147.96 197.816 147.33C198.258 146.635 197.13 146.324 193.007 142.201C192.496 141.726 191.387 140.73 190.902 141.165C190.431 141.566 191.195 142.795 191.402 143.105Z" fill="#263238"/>
</g>
<defs>
<clipPath id="clip0_2484_8021">
<rect width="285" height="158" fill="white"/>
</clipPath>
</defs>
</svg>
