<svg xmlns="http://www.w3.org/2000/svg" viewBox="0 0 194.47 194.47">
            <circle fill="#06D8A0" cx="97.23" cy="97.23" r="94.71" />
            <path fill="#FFFFFF"
                  d="M77.43,42.72l43.14-10.06a17.71,17.71,0,0,1,21.26,13.23h0A17.72,17.72,0,0,1,128.6,67.15l-26.2,6.11a17.4,17.4,0,0,1-20.89-13Z"/>
            <path fill="#FFFFFF"
                  d="M44.1,104.75l-4-17.1A35.41,35.41,0,0,1,66.57,45.13h0l12,51.59A17.71,17.71,0,0,1,65.36,118h0A17.69,17.69,0,0,1,44.1,104.75Z"/>
            <path fill="#FFFFFF"
                  d="M117,151.75,73.9,161.81a17.72,17.72,0,0,1-21.26-13.23h0a17.7,17.7,0,0,1,13.23-21.26l26.22-6.12a17.37,17.37,0,0,1,20.86,13Z"/>
            <path fill="#FFFFFF"
                  d="M150.37,89.71l4,17.11a35.4,35.4,0,0,1-26.46,42.52h0l-12-51.6a17.71,17.71,0,0,1,13.23-21.26h0A17.71,17.71,0,0,1,150.37,89.71Z"/>
</svg>